<?xml version="1.0" encoding="UTF-8" standalone="no"?>
<svg xmlns:rdf="http://www.w3.org/1999/02/22-rdf-syntax-ns#" xmlns="http://www.w3.org/2000/svg" xml:space="preserve" height="161.36" viewBox="0 0 200 161.36081" width="200" version="1.1" xmlns:cc="http://creativecommons.org/ns#" xmlns:dc="http://purl.org/dc/elements/1.1/"><g transform="matrix(1.25 0 0 -1.25 -146.68 839.33)"><g><path d="m270.6 616.45c-0.36571 1.9127-1.4251 4.4945-3.541 8.4869 0 0.003-0.74739 1.4512-0.74739 1.4512-0.17124 0.36716-0.25832 0.77786-0.25832 1.206 0 0.28444 0.0363 0.57469 0.11465 0.86639l0.57614 2.1609c0.029 0.11755 0.045 0.23511 0.045 0.35266 0 0.35555-0.13932 0.7024-0.39329 0.96217-0.34104 0.34684-0.83736 0.48326-1.3076 0.36861l-7.6698-1.8968-0.41651-0.10594c-0.26847-0.0682-0.51228-0.21914-0.69224-0.42811l-0.27718-0.31347c-1.1305-1.3003-2.335-3.5178-4.1564-7.6553 0 0-0.34829-0.70965-0.81269-1.6617-0.045 0.71837-0.0914 1.4411-0.28009 2.1072-1.1204 3.9067-5.0982 6.2853-8.8729 5.3028-1.7386-0.45134-3.4075-1.3627-4.9313-2.65 0.50358 1.7067 0.91138 3.4482 1.1029 5.2259 0.0435 0.42521 0.0653 0.83882 0.0653 1.2394 0 2.4802-0.85478 4.4974-2.5034 5.8833-1.8706 1.5601-4.7136 1.0855-5.9559 0.61823-5.7571-2.1885-10.964-11.224-13.674-18.299 0-0.006-2.1638-5.7208-2.1638-5.7208s-0.32653-1.1624-0.65451-2.3466c-0.27864 0.8809-0.58775 1.6442-0.88961 2.3162-1.5702 3.5222-4.0925 4.7905-5.8572 5.4364-3.1318 1.1479-6.728 0.54856-9.8699-1.6428-0.99555-0.69659-1.8097-1.5543-2.4657-2.5092-0.31782-0.39619-0.67193-0.95637-1.0028-1.5194 0.001 0.004 0.0102 0.0247 0.0102 0.0247 0.0609 0.16109 0.0914 0.32653 0.0914 0.49342 0 0.26413-0.13642 0.50358-0.28299 0.72997 0.17415 0.35991 0.22639 0.46585 0.40489 0.83157 0.10449 0.029 0.25687 0.074 0.25687 0.074 0.77351 0.32362 1.936 1.7879 2.306 2.4453 0.24236 0.43392 0.34105 0.88235 0.34105 1.3032 0 0.42376-0.17996 0.74014-0.32508 1.0754 0.045 0.35846 0.0929 0.73143 0.0929 0.73143-0.16254 0.5834-0.66032 2.3539-7.5856 5.9094-0.0624 0.0319-1.042 0.59356-1.7313 0.98684 0.16835 0.10884 0.40635 0.24236 0.70676 0.38458 0.26412 0.0348 0.87509 0.119 0.87509 0.119l2.2073 0.24381c18.528 2.0622 21.171 10.807 22.748 16.035l0.0682 0.22784c0.39764 1.3076 0.59792 2.7356 0.59792 4.2463 0 0.20318-0.004 0.4107-0.0102 0.61533l-0.11755 2.6659v0.37732s0.0972 1.5673 0.0972 1.5833c0.004-0.13641 1.0797 1.2916 1.0797 1.2916 1.1015 1.3351 2.3583 2.9431 2.6877 4.554 0.50068 0.27864 1.2568 0.69514 1.2568 0.69514l4.9081 1.9766c0.48036 0.19302 0.8185 0.64 0.86349 1.1508 0.004 0.0435 0.007 0.0871 0.007 0.12916 0 0.4673-0.23219 0.90557-0.62838 1.1566-1.5993 1.0115-2.4294 1.1262-4.0794 1.3569-0.12771 0.0189-2.2378 0.2409-2.2378 0.2409-0.0305 0.001-0.86349 0.12336-1.4266 0.20317-0.44118 0.53696-1.2263 1.2873-2.7182 2.0825-1.8111 0.97088-4.1085 0.94041-8.4781-0.11319-4.091-0.98394-6.2461-3.2188-8.3301-5.3783-1.0362-1.071-2.0114-2.084-3.2174-2.9373l-1.8706-1.4295c-0.8693-0.7053-1.0014-0.8156-2.9417-1.2974-5.387-1.3351-12.848-4.8225-13.164-4.9676 0.0784 0.0319-0.54421-0.21333-0.54421-0.21333-2.1464-0.84317-4.8167-1.8953-8.0602-3.808-1.1392-0.66758-2.6006-1.2248-4.599-1.7488l-0.79818-0.21188c-1.9113-0.51084-3.8879-1.0405-5.6584-1.0652h0.003s-0.28009-0.0116-0.28445-0.0116c-0.007 0.006-1.8489 0.16109-1.8489 0.16109l-13.887 1.7313-0.72852 0.0653c-1.7487 0.16544-2.6326 0.18576-3.9082-0.72997-0.40199-0.09-0.88526-0.39329-1.4614-0.92154-0.62403-0.0929-1.5906-0.33233-2.0129-1.1624-2.1478-0.22204-3.4003-0.67483-3.5904-1.8808-0.0145-0.10014-0.0232-0.19592-0.0232-0.28589 0-1.3714 1.6588-2.0143 3.0215-2.5382 0.46295-0.45715 1.3308-0.92299 2.9068-1.1828 0.60372-0.37732 1.4454-0.53841 2.2915-0.60516 0.89251-0.78948 2.9881-1.8721 7.7583-1.8257 0.0697 0.004 8.8003 0.67482 8.8003 0.67482l2.0985 0.18141c0.004 0.003 4.0301 0.25977 4.0301 0.25977 0.007 0 0.56163 0.029 0.58195 0.029 0.26848-0.10304 1.0812-0.42086 2.158-0.83882-1.428-0.73578-2.9736-1.7662-4.0112-3.3248-0.16689-0.25397-0.5268-0.79964-0.5268-1.4498 0-0.27284 0.0624-0.56163 0.23075-0.85769 0.67338-1.1958 2.0564-1.6747 12.215-1.2234 0.64726-0.1161 4.2652-0.74594 8.394-1.219-0.0261-0.17415-0.045-0.31057-0.045-0.31057v-0.0697c0-1.7966 1.1102-2.6746 1.4774-2.9634-0.0348 0.0261 0.47456-0.34395 0.47456-0.34395 0.006-0.001 1.6138-0.98103 1.6138-0.98103s2.782-1.518 3.9329-2.1449c-1.7255-1.0478-3.1739-2.6485-3.7515-4.612 0-0.003-0.11174-0.50503-0.16544-0.73288-0.759-1.19-0.96072-1.9838-0.96072-1.9838-0.19882-0.67048-0.29605-1.3366-0.29605-1.9795 0-0.74449 0.2975-1.3888 0.55582-2.0448-0.0102-0.0261-1.7125-4.3552-2.4192-6.3448-0.17269 0.62259-0.44117 1.2074-0.89106 1.6573-0.68789 0.68499-1.8198 1.9882-2.1116 2.4773-0.51229 0.85768-1.3148 1.4208-2.2567 1.5804-1.0362 0.16979-2.1028-0.15819-3.0142-0.91864-1.5906-1.3235-3.5134-1.6065-6.4275-0.94475-2.7574 0.62693-4.5917-0.0682-5.461-2.068-0.004-0.0363-0.25687-0.68499-0.25687-0.68499l-0.29315-0.89977s-0.17705-0.59355-0.27138-0.91283c-0.96363 11.574-5.7048 15.866-9.793 17.335-4.152 1.4962-8.3722 1.1116-11.881-1.087-2.8894-1.8126-5.0938-4.7456-6.0691-8.0573-0.476-0.89397-0.83591-1.8416-1.1131-2.814-2.8996-3.245-5.297-7.2359-6.9094-11.604-1.8228-3.9488-2.9939-8.3635-3.3495-12.668-0.0987-1.2336-0.14948-2.4366-0.14948-3.6063 0-6.577 1.5877-12.114 4.6556-16.16 2.2756-2.9939 6.0081-5.014 9.7393-5.2767 4.2304-0.30622 8.1952 1.1378 11.781 4.2826 4.2391 3.7123 6.9863 8.9454 8.5449 12.679 0 0.003 0.57615 1.4628 0.57615 1.4628-0.0319-0.0769 0.55147 1.2597 0.55147 1.2597 1.4135 3.4061 2.4032 6.9892 2.962 10.424 0.95782 0.50939 1.9838 1.1436 2.9838 1.9418-0.37442-0.83591-0.7648-1.6704-1.0812-2.5208-1.9548-4.2812-3.1797-8.9266-3.1797-12 0-0.19882 0.004-0.39183 0.016-0.57759 0.22204-3.8487 1.7096-6.3216 4.4219-7.3563 2.261-0.85768 5.4799-0.36571 7.8193 1.1929 0.95057 0.63564 3.1826 2.2872 5.3986 4.7122 1.6689-1.5369 3.7573-1.6123 4.5598-1.6123 4.1026 0 9.2386 3.4061 12.973 8.32 1.3642-1.2306 2.9678-2.1261 4.8631-2.2726 5.0808-0.38313 9.7843 2.9794 12.005 6.2679 1.4135 2.097 2.3641 3.9691 3.1042 5.9559 0.40054-1.3235 1.0086-2.5818 1.9853-3.5381 1.3438-1.3192 3.1536-2.01 5.1113-1.9476-8.5797-3.0665-38.017-13.573-38.017-13.573l-45.315-16.203-1.6312-0.5892c-0.36426-0.12916-0.67628-0.44843-0.82286-0.80689l-1.1058-2.6775c-0.0711-0.16834-0.10449-0.34539-0.10449-0.5239 0-0.28154 0.0856-0.56017 0.25832-0.79818l1.0144-1.415 1.0609-1.4948c0.24525-0.3425 0.63274-0.55293 1.0536-0.57324l0.63564-0.0261c9.6406-0.51954 14.103-1.6341 18.348-4.599l0.9288-0.6429c0.55437-0.38748 1.3061-0.31201 1.772 0.1756l0.78077 0.8156c4.8718 5.0837 12.504 8.6654 19.885 12.128l2.6674 1.2568c2.872 1.3642 41.276 17.286 64.267 26.532 11.185 4.4887 20.023 8.0341 21.744 8.8322 2.2276 1.0275 9.5985 4.956 10.8 12.244 0.25106 0.8809 0.39038 1.9693 0.39038 3.0969 0 3.6194-2.1972 6.5059-6.088 8.2808" fill="#fff"/><path d="m269.38 615.55c-0.1756 1.7647-1.2727 4.4655-3.5381 8.7437-0.3512 0.66031-0.62694 1.1828-0.78222 1.5194-0.41796 0.89687-0.50213 1.9592-0.22204 3.0012l0.57324 2.1594-2.1725-0.53696-5.4973-1.3598-0.40489-0.10304-0.27284-0.31347c-1.0376-1.1871-2.2117-3.3741-3.9387-7.307-0.94911-2.1493-2.5411-5.2811-3.8168-7.7961l-0.0334-0.0653c-3.1332-6.1794-5.1911-8.5101-7.5769-8.616-0.22349-0.007-0.43537-0.001-0.62984 0.0276 2.3162 1.4919 3.8574 3.1042 4.8326 4.3769 1.4062 1.83 2.6151 4.2028 3.184 6.474 0.76336 2.1261 0.91138 4.3203 0.37152 6.2215-0.91428 3.1956-4.1491 5.1476-7.2083 4.3523-3.0505-0.79238-5.8833-3.1594-7.9934-6.6815-0.43973-0.73288-1.354-2.3902-2.1217-4.5801-1.0347-2.142-2.3278-5.5728-2.367-9.3779-1.6922-2.2422-3.6441-4.4394-5.0663-5.3391-1.4222-0.89396-2.1478-0.84897-2.261-0.78947-0.32653 0.17124-0.59646 0.38022-0.72272 1.2205-0.15093 1.0942-0.0247 2.5121 0.2946 4.3116 3.9895 3.213 7.1575 6.7352 9.4273 10.481 1.2263 2.0317 2.3946 4.4974 3.2842 6.9906 1.0391 2.5266 1.7038 5.1403 1.9896 7.8106 0.27283 2.5788-0.4049 4.6266-1.9534 5.9283-1.2727 1.0608-3.4989 0.79818-4.5946 0.38457-5.2114-1.9766-10.234-10.614-12.878-17.506-0.88235-1.9824-1.6094-3.9184-2.1319-5.6279-0.51954-1.7154-0.9375-3.2218-1.325-4.763-0.44553-0.33234-0.878-0.64871-1.2742-0.91719-0.24381 2.4584-0.86494 4.0577-1.5035 5.4871-1.3482 3.0171-3.422 4.1012-5.0793 4.7093-2.708 0.99265-5.8441 0.45279-8.616-1.4803-1.4788-1.0347-2.5339-2.4236-3.0955-3.9909-0.85333-1.4614-1.4121-3.1811-1.5514-4.7122-0.73432-1.2611-1.3903-2.6964-1.904-4.1796-1.19-2.441-2.0419-5.2927-2.2436-7.7569-0.16544-1.9882-0.16544-3.7253-0.007-5.207-1.3613-1.8373-3.0882-3.5846-4.2681-3.7529-0.67773-0.10013-1.0217 0.0218-1.0855 0.0987-0.29751 0.38022-0.21914 1.0405-0.10014 1.5238 0.94186 3.8879 5.252 16.524 7.7816 23.114l0.95492 2.4773-0.6371-0.18286c0.0247 0.0682 0.0494 0.13496 0.0682 0.20753 0.0755 0.25106 0.12771 0.49922 0.16689 0.74739 0.41361 0.59355 0.74014 1.2437 0.94912 1.9418 0.2975 0.0639 0.5355 0.12626 0.64144 0.17415 0.30622 0.12771 1.2655 1.1465 1.6733 1.8678 0.40635 0.72562-0.0856 1.4527-0.0856 1.4527 1.0565 1.7255-6.4101 5.4567-6.9297 5.728-2.2059 1.1624-2.5339 1.4628-2.5789 1.5107-0.67918 0.98394 0.76045 1.8561 1.859 2.351 0.69079 0.11465 1.1886 0.15818 1.206 0.15818l2.1536 0.24091c17.889 1.9911 20.085 10.118 21.653 15.298 0.26123 0.85623 0.60372 2.3336 0.52971 4.4176-0.15238 4.5264-0.18141 1.534-0.0174 4.7528 0.0595 1.0797 4.078 4.3886 3.8937 6.6409 0 0 0.74013 0.49633 1.904 1.0565 0.89686 0.42957 5.0097 2.0187 5.0097 2.0187-1.3816 0.87655-1.994 0.94331-3.6571 1.1755-0.5892 0.0798-0.6516 0.0856-2.0985 0.21913-0.87945 0.0813-1.9984 0.2888-1.9984 0.2888s-0.48181 1.0115-2.6151 2.1493c-1.4542 0.77641-3.5396 0.72126-7.5145-0.2351-5.6511-1.3627-7.2751-5.4102-11.076-8.1008-2.9097-2.0593-2.1043-2.1507-5.2767-2.9388-5.313-1.3221-12.912-4.882-12.912-4.882-2.2509-0.89107-5.0271-1.9156-8.4912-3.9604-1.3714-0.80544-3.0186-1.3874-4.9458-1.8924-2.1798-0.57324-4.5772-1.2902-6.7846-1.3206-0.0638 0-0.16834-0.006-0.28734-0.0131-0.63565 0.045-1.3003 0.10014-1.994 0.1669-5.0097 0.49197-11.191 1.4962-13.875 1.7299-2.4511 0.21479-2.8009 0.37297-3.943-0.53695 0 0-0.65161 0.0653-1.5049-0.9854-0.38457-0.0697-2.1957-0.19446-0.97378-1.1-6.8934-0.37442-2.5527-1.8329-1.3801-2.2973 0 0 0.29315-0.76916 2.6877-1.0754 0 0 0.17125-0.46295 2.3728-0.55873 0 0 1.0841-1.8358 7.1009-1.7749 5.0968 0.30766 8.2996 0.64435 10.8 0.85042 1.3758 0.12046 2.9257 0.20463 4.0751 0.26123 0.32653 0.0174 0.62113 0.0305 0.87365 0.0435 1.8837-0.80398 3.9256-1.5369 5.7019-2.2001 0 0-4.5932-1.0275-6.6365-4.1056-0.77932-1.174-0.89106-1.9243 10.873-1.3961 0 0 4.8268-0.88235 9.957-1.399-0.0566-0.16108-0.13352-0.30476-0.18576-0.53115-0.13642-0.53841-0.14222-0.63129-0.14803-0.99845-0.016-0.97669 0.42812-1.5194 0.95637-1.9345 0.0943-0.0798 0.21043-0.16834 0.3483-0.25396 0.357-0.21769 1.6007-0.97379 1.6007-0.97379l4.7325-2.5788c0.82576-0.55728 0.47601-0.9346-0.10884-1.3685-1.7371-0.73868-3.2566-2.3974-3.8371-4.3697-0.0726-0.24526-0.12916-0.49342-0.16545-0.74013-0.42231-0.60081-0.75319-1.2698-0.96072-1.9766-0.41505-1.4004-0.28299-2.7661 0.35411-3.8052l-0.17125-0.42521c-0.16689-0.41506-1.1291-2.7196-1.1291-2.7196-1.2974-3.2377-3.0694-8.4578-4.7891-13.504-0.81995-2.4149-1.6065-4.7281-2.2988-6.6888-1.5746-2.3931-3.9851-4.4988-5.2462-5.2361-0.49777-0.29315-0.84607-0.29895-0.90993-0.26993-0.0508 0.0421-0.238 0.3512-0.22929 1.1712 0.007 1.7284 0.4702 3.7282 1.2147 5.7846 1.8779 4.0548 4.5525 7.976 6.7221 10.192 0.89542 0.90703 2.0521 3.213 1.8387 4.3711 0.0232 0.7024-0.238 1.3845-0.68934 1.8373-0.68353 0.67918-1.9301 2.0912-2.3205 2.7414-0.30766 0.51229-0.77061 0.84172-1.3119 0.93315-0.62548 0.10304-1.3003-0.1161-1.9069-0.62113-1.9272-1.6051-4.2724-1.9838-7.606-1.2263-2.0956 0.47601-3.319 0.0755-3.9067-1.2844-0.058-0.10739-0.12191-0.26848-0.19156-0.50793-0.13207-0.47601-1.341-3.93-1.4527-4.7528-0.003-0.0247-0.004-0.0508-0.007-0.0798-0.42376-0.44118-0.96363-0.87945-1.5891-1.2902 0.0784 14.332-4.8355 19.201-9.0891 20.731-3.7529 1.354-7.5523 1.0072-10.688-0.96218-2.6892-1.6834-4.6657-4.3827-5.522-7.3883-0.52244-0.94621-0.92734-1.9548-1.1987-2.9968-2.9039-3.1913-5.239-7.1358-6.8121-11.401-1.7749-3.853-2.9214-8.0689-3.2696-12.305-0.64-7.8236 0.8214-14.331 4.2318-18.825 2.0375-2.6833 5.3856-4.5032 8.7423-4.7412 3.853-0.27138 7.4812 1.0536 10.783 3.9474 4.0504 3.5454 6.6801 8.5768 8.1806 12.177 0.19447 0.4702 0.38168 0.94476 0.56018 1.4208 0.20317 0.44698 0.39474 0.8838 0.56453 1.2989 1.4774 3.5526 2.5164 7.2838 3.0273 10.797 2.4207 1.161 4.9894 3.2 6.2737 5.3333 0.50068-0.13932 1.0202-0.20898 1.5441-0.22204-1.399-2.2872-2.5527-4.7281-3.4278-7.0661-2.1304-4.6788-3.2319-9.3373-3.081-12.024 0.0711-1.2132 0.28444-4.9081 3.5425-6.1504 1.8402-0.69805 4.6048-0.25832 6.5756 1.055 1.1828 0.78948 3.8124 2.7182 6.1823 5.6395 1.2698-2.3133 3.6208-2.3133 4.5337-2.3133 4.0504 0 9.3489 3.7674 12.797 8.8918 1.235-1.6747 3.0258-2.6848 5.1417-2.8473 4.5337-0.34104 8.7582 2.7008 10.764 5.6686 1.296 1.9171 2.3844 3.853 3.2102 6.2578 0.80979 1.6573 1.4701 3.4917 1.949 5.7251 0.0755 0.0479 0.14948 0.0958 0.22349 0.14657-0.22784-1.8344-0.32653-3.8574-0.21623-5.1983 0.13932-1.6167 0.8751-3.1811 2.0172-4.3015 1.0884-1.0696 2.5687-1.6254 4.1752-1.5572 4.3465 0.1698 10.455 5.2477 13.788 10.157 1.5746-1.9897 3.7224-3.0287 6.5117-3.1579 4.3276-0.20318 8.2619 2.4366 12.034 8.0689 0.57904 0.86349 1.1407 1.8358 1.6892 2.8633 0.18286-1.2306 0.74449-2.4207 1.5659-3.2392 1.0086-1.0086 3.0374-2.0869 5.416-1.7879 3.9619 0.50794 7.085 3.0476 8.3911 6.667 1.1407-0.96798 1.264-1.8997 1.2771-2.1478-0.91429-1.1073-2.2175-2.0056-3.3132-2.6819-2.0216-1.2452-4.7049-2.2422-6.1474-2.7777-5.3536-1.9882-42.235-15.15-74.777-26.767-23.739-8.4709-44.247-15.79-49.322-17.634l-1.6356-0.58776 0.0203-0.0276c-0.0131-0.001-0.0261-0.009-0.0392-0.0116l-1.1058-2.6804 1.0159-1.4179 0.69079-0.97524 0.37007-0.51809 0.63564-0.0247c9.9512-0.53841 14.581-1.7125 19.074-4.8471l0.92735-0.64435 0.77786 0.81704c5.0445 5.2651 12.798 8.9048 20.293 12.423l2.6659 1.2539c2.9039 1.3801 41.375 17.328 64.341 26.565 11.177 4.4858 20.007 8.0297 21.679 8.8032 4.1564 1.9185 9.1356 5.8427 10.022 11.225 0.24091 0.87365 0.37442 1.8257 0.37442 2.872 0 3.2784-2.0985 5.8717-5.9312 7.381"/><path d="m208.9 662.17c0.99265 0.007 1.5557 0.77351 1.7255 1.0681 0.13206 0.21914 0.0131 0.31928-0.10449 0.13787-0.32508-0.49052-1.0318-0.71111-1.5601-0.74739-0.67628-0.0435-1.1712 0.54277-1.1958 1.2089-0.0479 1.3235 1.161 1.7241 1.9766 1.3438 0 0 0.51084-0.16689 1.0231-1.0202 0 0 0.49922 0.0755 0.67337 0.061 0.17125-0.0102 0.34395 0.15093 0.0232 0.35411 0 0-1.026 1.0115-1.9911 1.0855-1.9461 0.30476-2.396-1.8228-2.396-1.8228 0.3483-1.2074 1.2713-1.6733 1.8257-1.6689m4.5755-0.0504 1.6225 0.15383-0.22784-1.177s2.3249 1.7807 7.1648 3.3959c0 0-4.5642-0.97378-8.5594-2.3728m8.9125 2.5956c-2.2872 0.73287-5.2593 0.70095-6.2432 0.57033-0.98394-0.12771-1.8068 0.57324-1.8068 0.57324l-0.20753 0.49197 0.61678-1.592s-0.68644-0.72417-1.46-2.0883c0 0 4.3566 1.6356 9.1007 2.0448m-26.69-20.69c-0.003 0.009-0.009 0.016-0.0116 0.0218-1.0957-0.41216-1.7778 0.22639-2.0404 0.64725 0.006-0.18866 0.45569-0.97814 1.3293-1.0638 0.10884-0.0102 0.22349-0.0102 0.34394 0.003 0.16254 0.0218 0.33814 0.0624 0.51809 0.13642 0.004 0 0.004 0 0.004 0.001-0.074 0.11029-0.12191 0.20463-0.14367 0.25397m0.0199 0.0332c-0.0102-0.006-0.0203-0.007-0.029-0.0116 0.0697-0.0958 0.14077-0.1785 0.21624-0.24961 0.10884 0.0435 0.22059 0.09 0.33668 0.15963 1.6602 0.96363 3.454 3.0331 3.454 3.0331s0.0145 0.016 0.0203 0.0305c-0.49197-0.48616-1.8271-1.7444-3.1376-2.5266-0.43537-0.26122-0.72997-0.38748-0.86058-0.43537m-2.1528 0.89368c0.0522-0.074 0.10594-0.13642 0.15963-0.19302 0.15529 0.0552 0.32218 0.12771 0.50068 0.23365 1.6631 0.95927 2.7428 2.4018 2.7428 2.4018s0.0261 0.0261 0.0261 0.0363c-0.46585-0.43827-1.6675-1.5238-2.8691-2.1522-0.21624-0.11319-0.4049-0.20752-0.58631-0.26412-0.95927-0.29751-1.489 0.25251-1.6921 0.64435v-0.0247c0.0305-0.19011 0.27428-0.69805 0.79383-0.90412 0.25832-0.0987 0.5834-0.12626 0.98539-0.001-0.074 0.12336-0.10884 0.2264-0.10304 0.27429 0.0116-0.0247 0.029-0.0305 0.0421-0.0508m-3.3914 1.6878c-0.004 0.003-0.004 0.004-0.004 0.007-0.0116-0.10013 0.074-0.44262 0.33233-0.7111 0.25252-0.25832 0.66757-0.44118 1.3221-0.23656-0.045 0.10014-0.0711 0.18431-0.0769 0.23656-1.0275-0.15819-1.5514 0.46149-1.5732 0.70385m1.9968-0.60082c-0.14222-0.0479-0.27718-0.0769-0.40489-0.0987 0.004-0.006 0.0131-0.016 0.016-0.0218 0.0392-0.0711 0.0842-0.13206 0.13207-0.18866 0.13931 0.0479 0.28879 0.11029 0.45278 0.19592 1.6878 0.91863 2.5019 1.8736 2.5019 1.8736s0.0319 0.0348 0.0566 0.0711c-0.36136-0.3483-1.1015-0.9912-2.2509-1.6152-0.18431-0.0943-0.34395-0.16399-0.50359-0.21624m6.2818-2.7601c0.10304-0.0711 0.20898-0.13206 0.31347-0.18141 0.16399 0.0943 0.33524 0.19882 0.51519 0.33524 1.772 1.3337 2.4816 2.7037 2.6326 3.02-0.4078-0.5268-1.3424-1.6225-2.8023-2.7211-0.21479-0.15964-0.41361-0.28445-0.60372-0.39039-1.502-0.8272-2.3104-0.0813-2.6413 0.39329 0.001-0.003 0.001-0.003 0.004-0.009 0.119-0.25251 0.90557-1.7255 2.7994-0.68498-0.0914 0.0697-0.16254 0.15093-0.20462 0.22058-0.007 0.007-0.0116 0.0116-0.0131 0.0174m0.2679-0.27777c0.0131-0.0189 0.0247-0.0348 0.0363-0.0508 0.0189-0.0276 0.0421-0.0523 0.0668-0.0798 0.029-0.029 0.0639-0.0566 0.10014-0.09 0.001-0.003 0.006-0.006 0.0102-0.0101 0.238-0.18576 0.61387-0.34395 1.0855-0.38023 0.0305 0.0842 0.0653 0.16689 0.0943 0.25106-0.60952-0.0348-1.0957 0.13932-1.3932 0.35991m-1.5029-4.2424s2.6413 0.57034 4.0228 3.8255c0.26703 0.0972 0.54131 0.22204 0.82866 0.4136 1.5267 1.0028 2.7719 3.3088 2.9112 3.5802-0.31637-0.44988-1.7328-2.3858-3.1637-3.3306-0.28735-0.18866-0.56163-0.31347-0.83011-0.40635-1.3787-3.2595-4.0214-3.8269-4.0214-3.8269-0.69079-2.0303-8.8961-4.2826-14.925-5.5641-0.0189-0.004-0.0363-0.0131-0.0551-0.016 6.0328 1.28 14.537 3.2798 15.232 5.3246m-13.999 0.61649-0.1103-0.0247c-0.004 0-0.009-0.001-0.0116-0.001-11.224-2.3728-13.933-1.5543-14.34-1.5006 0.0871 0.31492 0.36861 0.63855 0.66031 0.90558-0.37877-0.2859-0.89542-0.75175-1.0217-1.2074 0.42376-0.0537 2.7835-0.84027 15.113 1.8779-0.006-0.003-0.016-0.004-0.0276-0.006 0.25397 0.0566 0.38458 0.0958 0.39764 0.0987l-0.66031-0.14222zm-11.762 0.78584c0.24962 0.38603 0.60807 0.70095 0.92009 0.93315-0.31492-0.1727-1.0014-0.58775-1.4019-1.1639 0 0 1.9679-0.8722 7.7525 0.15673-5.5452-0.9404-7.2707 0.074-7.2707 0.074m2.4554-4.4756c-5.0271-0.79673-7.1401-0.14222-7.1401-0.14222s0.25832 0.28444 0.66467 0.57759c-0.68934-0.35846-1.1842-0.89687-1.1842-0.89687s2.0666-0.55872 7.098 0.23511c8.6479 1.3627 11.788 2.7022 12.598 3.1129-1.3337-0.5776-4.689-1.7299-12.037-2.8865m17.855 3.0974s2.1812-0.50938 3.9169 2.1986c0 0 0.0247 0.0406 0.045 0.0813-1.7183-2.4149-3.9619-2.2799-3.9619-2.2799m-2.3887 0.66815c-0.0218-0.003-0.0435-0.006-0.0624-0.007-0.0189 0-0.0334-0.003-0.0508-0.003h-0.0305c-0.11174-0.003-0.19011-0.003-0.19156-0.003 0 0 3.1434-0.38458 4.4901 2.1188 0 0 0.0131 0.0261 0.0218 0.0493-1.1479-1.8126-3.3596-2.1072-4.1767-2.1551m-3.5168 0.88294h-0.0131c0.2322 0.0218 0.46585 0.0479 0.68934 0.0813-0.35265-0.0421-0.70095-0.0726-0.71691-0.0856 0 0 4.9342-0.0464 5.8746 1.9679-1.0434-1.4745-4.6033-1.8692-5.834-1.9635m-5.1233 1.6193s0.63855 0.57905 1.4585 1.0217c-4.9937-0.52099-7.3505 0.0131-7.3505 0.0131 0.35265 0.54566 1.0289 0.96362 1.621 1.2437-0.65741-0.26122-1.6326-0.74594-2.0825-1.444 0 0 2.3525-0.53695 7.3476-0.0131-0.81995-0.44262-1.4585-1.026-1.4585-1.026 5.1069-0.64871 8.7582 0.83011 9.7001 1.2684-1.3946-0.56743-4.7557-1.6341-9.2357-1.0638m-0.92749 2.716c0.61243 0.74884 1.7473 1.2306 2.7167 1.518-1.0434-0.26268-2.5019-0.77206-3.229-1.6573 0 0 2.2189-1.0173 6.9297 0.33378-4.361-1.1378-6.4174-0.19446-6.4174-0.19446" fill="#b3b5b7"/><path d="m201.23 656.48c-0.85332-1.5572-0.26757-2.5964-0.26757-2.5964s1.0132-0.77841 1.3832-1.1383c1.3293-1.2902 1.4059-1.7007 1.4059-1.7007-1.1436 1.0275-5.5465 1.9456-5.5465 1.9456l1.7392-1.093c-1.9229 0.70821-4.415 0.92743-4.415 0.92743l0.95691-0.66893c-2.9896 0.14513-4.6634-0.25995-5.5646-0.65759-0.69804-0.28444-0.91156-0.51564-0.91156-0.57369-0.0435-0.045-0.0612-0.0748-0.0612-0.0748s0.1786 0.0168 0.45578 0.0385c0.91138-0.0842 2.7162-0.25423 2.9252-0.31519l-0.45125 0.52608s1.4515 0.39927 3.2902-0.24943l-0.46712 0.49659-0.0159 0.0249c0.0392-0.001 1.7552-0.13097 3.263-0.9161l-0.49433 0.58277-0.0295 0.0589c0.21478-0.0551 3.7645-0.9521 4.9342-2.2698-1.1479 0.5834-3.5394 1.3956-6.7075 0.29705l0.6712 0.82993s-1.8783-0.23247-4.5442-1.3673l0.58275 0.63039s-2.6434-0.9141-3.1383-2.2449c-0.0348-0.10158-0.0521-0.1902-0.0521-0.27437l0.0114-0.0136c1.7357-1.4527 4.9909 1.4399 4.9909 1.4399s-0.0848-0.0997-0.2517-0.26077c-0.0247-0.0348-0.0567-0.0703-0.0567-0.0703s-0.81478-0.95438-2.5011-1.873c-0.16544-0.0871-0.31274-0.14939-0.45351-0.19728 1.309-1.5848 5.2789 1.8912 5.2789 1.8912s-0.071-0.0715-0.19728-0.19048c0-0.0101-0.0272-0.0363-0.0272-0.0363s-1.0806-1.4406-2.7438-2.4014c-0.17705-0.10594-0.34358-0.18068-0.49886-0.23582 1.3148-1.3352 4.399 0.95927 5.6485 1.9954 0.13351 0.11755 0.22131 0.18757 0.27211 0.22676 0.17124 0.14802 0.27211 0.23809 0.27211 0.23809s-0.0741-0.0739-0.20182-0.19728c-0.006-0.0145-0.0204-0.0317-0.0204-0.0317s-1.7941-2.0696-3.4558-3.0317c-0.1161-0.0711-0.22676-0.11746-0.3356-0.161 0.0363-0.0334 0.0697-0.0648 0.10884-0.0952 0.004-0.007 0.0125-0.014 0.0227-0.0227 1.8736-1.4411 6.1111 3.0975 6.1111 3.0975s-0.0797-0.12399-0.23356-0.32426c-0.15093-0.31492-0.86213-1.683-2.6326-3.0181-0.17996-0.13497-0.3522-0.24127-0.51474-0.3356 2.5368-1.2031 6.2789 3.5691 6.2789 3.5691s-0.0185-0.0312-0.0635-0.0907c-0.13932-0.27138-1.3863-2.5754-2.9116-3.5782-0.2888-0.19302-0.5629-0.31692-0.82993-0.4127-1.3816-3.2566-4.0227-3.8254-4.0227-3.8254-0.69514-2.0448-9.1984-4.0442-15.231-5.3242-3.2827-0.69369-5.8264-1.1985-6.0136-1.3379-0.13496-0.10884-0.0756-0.2936 0.21315-0.35601 0.21479-0.0493 2.2618-0.50467 3.356-0.64398 0.25251-0.0479 0.59038-0.0752 0.8458-0.12019 0 0-0.5659-0.90013-0.56009-1.8231 0.0116-1.0928 0.96562-1.7551 1.2834-1.9002l1.5578 0.21541c-0.0914 0.2888-0.16164 0.63392 0.13151 1.136 0.91574 1.5499 4.3528 2.0147 5.2744 2.1134-0.001 0.001 4.8248 0.50032 8.0408 1.2245 1.3584 0.30766 2.7083 0.61151 3.9796 1.0658 5.4755 1.949 8.24 5.5071 9.8639 8.4081 0.22639 0.40344 0.38875 0.78675 0.53968 1.1655 1.7458 4.406 1.9395 6.69 1.449 8.5011-0.0653 0.42666-0.22458 0.7853-0.39002 0.94784 0 0 0.78213-1.9408-2.0521-4.2222-0.55873 0.15093-1.2258 0.42013-2.0544 0.88888 0 0 1.3163 0.0715 2.2494-0.24489 0 0-1.695 1.8162-4.4626 3.2471 0 0 1.1126 0.17833 1.8209 0.28572-0.80109 0.38893-2.5482 0.60072-4.7846 2.1564-1.37 1.5136-1.0408 2.3447-1.0408 2.3447zm-21.655-4.3877c-6.5001-0.95201-9.4278-3.056-11.587-4.3084-2.2509-1.2989-4.2365-1.6867-7.3016-2.585-0.78512-0.22785-3.3046-0.51175-4.5034-0.63945l-0.28798-0.1678 2.4172-0.68254-2.9093-0.21088c1.4135-0.0479 4.2109-0.36735 4.2109-0.36735-0.24962-0.0595-3.2177-0.31519-3.2177-0.31519 0.64 0.0682 5.9093-0.96825 5.9093-0.96825-0.24235-0.11465-3.4399-0.27211-3.4399-0.27211 2.306-0.029 5.839-0.81179 5.839-0.81179-0.20028-0.0551-3.1678-0.50339-3.1678-0.50339 0.3483 0.11464 4.5056-1.8072 4.5056-1.8072 0.48761 0.87219 2.39 2.3106 2.39 2.3106 0.43102 1.3613 2.8866 2.6236 2.8866 2.6236 3.6092 4.4045 12.054 6.1088 12.054 6.1088-0.80543 0.89977-3.7506 1.1066-3.7506 1.1066 0.0464 0.21914-0.0476 1.4898-0.0476 1.4898zm-39.728-5.619c-1.1271 0.042-1.2086-0.0952-1.2086-0.0952 2.457-0.10303 15.898-1.9297 15.898-1.9297s-10.608 1.6503-13.177 1.9116c-0.64399 0.066-1.1368 0.0994-1.5125 0.11338zm-1.975-0.52608c-1.9565 0.0655-1.619-0.23809-1.619-0.23809 2.0999 0.09 17.295-1.5419 17.295-1.5419s-9.3828 1.2142-12.857 1.5669c-1.2593 0.1288-2.1664 0.19132-2.8186 0.21315zm52.626-0.0181c0.12626-0.13061 0.29306-0.24027 0.5102-0.29252-0.21714 0.0526-0.38394 0.16336-0.5102 0.29252zm0.5102-0.29252c0.21714-0.0522 0.48453-0.0472 0.81179 0.0544-0.32726-0.10159-0.59465-0.10703-0.81179-0.0544zm-55.596-0.55782c-0.82285-0.0392-0.61677-0.34013-0.61677-0.34013 1.2132 0.13206 18.349-1.0068 18.349-1.0068s-14.904 1.4906-17.732 1.3469zm60.426-1.3152l-0.002-0.002c0.0116-0.0116 0.0201-0.0271 0.0317-0.0431-0.003 0.004-0.003 0.006-0.005 0.009-0.007 0.0131-0.0162 0.0261-0.0249 0.0363zm-65.204-0.34693s1.1846-0.67165 2.9841-0.77324c1.7937-0.10014 15.082-0.93904 21.902-1.1451 0 0-19.874 1.4003-24.886 1.9184zm3.4535-1.6848s2.2832-0.61052 3.7097-0.62358c1.1784-0.009 12.035-0.66186 19.542-0.49206 0 0-18.254 0.70494-23.252 1.1156zm4.7755-1.4671s0.33687-0.51201 2.907-0.59183c2.5861-0.0871 12.721 0.23583 12.721 0.23583s-13.177 0.13106-15.628 0.356zm93.408-4.5374c-0.6224-0.004-1.2454-0.1249-1.6372-0.27437-5.4436-2.068-10.973-12.625-13.086-19.565-0.88671-2.9126-1.4356-5.0782-1.9478-7.39 0 0-3.1659-2.5467-4.263-2.805-0.0116 3.4917-0.71047 5.3776-1.4898 7.1292-1.132 2.5397-2.8311 3.454-4.3288 4.0113-2.4163 0.88235-5.1361 0.25823-7.4059-1.3265-1.6515-1.1596-3.3064-3.3593-2.932-6.3764-2.0912-2.4889-3.8852-7.0363-4.1769-10.576-0.1814-2.1914-0.1824-4.3883 0.17461-6.1791-1.0899-2.0332-4.1981-6.3323-6.7029-6.6893-0.92879-0.13351-1.8316-0.009-2.3061 0.5873-0.50794 0.64435-0.62222 1.5343-0.35374 2.6576 0.96507 3.9851 5.3072 16.683 7.8367 23.272-0.72127-0.20608-5.4413-1.7171-6.2381-1.9478-2.174-5.4233-5.81-16.783-7.8911-22.431-1.6152-2.8067-4.514-5.4226-6.1292-6.3673-1.3453-0.78948-3.1402-0.84699-3.1315 2.0453 0.0305 6.4377 5.5625 15.653 9.4489 19.612 0.53696 0.54857 0.34068 1.3176 0.0272 1.6281-0.60371 0.60372-2.0149 2.1605-2.517 3.0023-0.0784 0.119-0.20191 0.26757-0.40363 0.30385-0.23365 0.0392-0.53841-0.0771-0.83446-0.33107-2.248-1.8677-5.0273-2.3435-8.7483-1.4988-2.1362 0.48326-2.3244-0.18168-2.5102-0.82313-0.18141-0.63129-0.34159-2.3234-0.48526-3.1202-0.39039-2.1072-3.0312-3.9591-5.2313-4.9183 0.48181 12.193-2.4708 19.674-8.1655 21.723-3.3306 1.1958-6.7002 0.9462-9.5374-0.83447-2.991-1.8808-5.1588-5.3068-5.3605-9.0249-5.8674-5.7629-9.1056-14.083-9.7006-21.342-0.61388-7.4913 0.75936-13.691 3.9637-17.918 1.891-2.4831 4.9554-4.0197 7.7868-4.2199 3.4844-0.24961 6.7904 0.97524 9.8163 3.6281 6.519 5.7048 10.666 17.036 11.079 25.274 2.9344 0.87654 6.9266 3.9114 7.7596 6.483 1.6718-1.1131 4.0603-0.5053 6.2517-0.0975-6.0909-6.0822-9.4955-16.67-9.2517-20.862 0.10739-1.9229 0.54793-4.1798 2.6871-4.9954 1.4672-0.56308 3.7929-0.13297 5.3719 0.92063 2.351 1.5673 5.347 4.212 7.4353 7.5238 0.36136-3.8414 2.5872-3.9796 4.0181-3.9796 3.7834 0 9.6262 4.2102 12.864 10.236 0.97523-2.6993 2.9111-4.0219 5.1678-4.1859 3.9561-0.30331 7.7366 2.3605 9.5782 5.0816 2.2204 3.29 3.6498 6.4678 4.297 11.565 0 0 2.4236 1.4903 4.0998 2.8095-0.57905-1.6834-1.0066-5.8976-0.82086-8.0657 0.11465-1.3932 0.75828-2.627 1.6145-3.4716 0.8243-0.80109 1.9241-1.2293 3.2041-1.1814 4.2478 0.16689 11.016 6.0639 13.825 11.354 1.5746-3.2014 3.9329-4.2343 6.5873-4.3605 3.9067-0.17995 7.4055 2.3095 10.88 7.4875 1.6878 2.5252 3.2639 6.0417 4.6644 9.0748 1.5485 3.3654 3.0823 6.7802 4.5669 8.1995-0.0275-2.3438 2.6217-7.316 3.5737-8.6961-6.2882 0.40634-8.6288-3.293-8.7551-5.3174-0.0914-1.3642 0.51356-2.717 1.229-3.4354 0.77641-0.77786 2.4223-1.6499 4.322-1.4104 3.676 0.46875 7.0038 3.1083 7.7483 7.4489 2.8183-1.415 3.4378-3.3733 3.4059-4.3514-0.10449-3.0128-2.9382-5.103-5.0657-6.4149-2.1304-1.3134-4.8928-2.344-6.3832-2.8911-5.3681-1.994-42.247-15.155-74.791-26.771-23.561-8.41-44.241-15.79-49.313-17.63l0.69388-0.97278c10.596-0.55873 15.263-1.941 19.757-5.0771 5.8441 6.0996 15.207 10.094 23.345 13.961 3.1057 1.4759 41.771 17.488 64.415 26.587 11.159 4.4843 19.976 8.0291 21.61 8.7823 4.4219 2.0404 8.5147 4.6913 8.5147 10.181 0 3.5599-3.0625 5.5163-5.9592 6.4626 0.43102 1.8257-2.2287 6.8997-3.3651 9.0476-0.35411 0.67192-0.64181 1.207-0.80725 1.5669-0.56018 1.2045-0.65751 2.5748-0.31066 3.907l-5.4943-1.3651c-1.1552-1.3279-2.5567-4.3044-3.7279-6.966-0.96798-2.2044-2.5509-5.3189-3.873-7.9297-2.9997-5.9022-5.3702-9.1912-8.7052-9.3378-2.0216-0.0871-3.0737 1.0101-4.1723 3.1927 3.8313 1.518 6.625 3.7405 8.4013 6.0567 2.2755 2.9707 2.9013 6.3656 2.2018 8.8095-0.67483 2.3626-3.1155 4.0797-5.5986 3.4354-2.7356-0.71111-5.2953-2.9082-7.195-6.0748-1.7662-2.9475-3.5099-7.5727-3.1224-12.066-1.473-2.1769-4.5274-6.2106-6.8639-7.6734-1.341-0.84317-2.7184-1.2953-3.5805-0.83673-0.7648 0.39909-1.2398 1.0161-1.4082 2.2018-0.25542 1.7734 0.11265 4.0733 0.82086 7.3923 9.1298 6.9703 13.348 14.812 14.165 22.524 0.18431 1.7531-0.0845 3.5934-1.4966 4.7732-0.38966 0.32508-1.0125 0.43937-1.6349 0.43538zm-46.587-5.9206c-2.7022-0.55873-2.4059-2.2018-2.4059-2.2018l1.1474 0.18594c-0.357 1.1958 1.2585 2.0159 1.2585 2.0159zm-1.3923-2.7574s-0.34286-0.0744-0.80726-0.11791l2.0113-1.1633c1.2336-0.65741 7.9864-4.0032 6.9342-5.7301 0 0 0.3785-0.55982 0.19274-1.1882 0.0145-0.22784 0.0129-0.46185-0.005-0.69841 0.67918 0.68064 1.1963 1.414 0.86394 1.8798 0 0 1.8854 1.6543-9.1904 7.0181zm4.5986-5.9002c-1.8561 0-3.8678-1.7148-4.4875-3.8322-0.62404-2.1116 0.37904-3.8299 2.2381-3.8299 1.8547 0 3.8604 1.7184 4.483 3.8299 0.62549 2.1174-0.37451 3.8322-2.2335 3.8322z" fill="#df4601"/><path d="m204.8 613.69c-1.1247 0.79383-2.4932 0.78657-3.5468 0.15093-1.354-0.82141-2.2639-2.5382-2.3249-4.3813-0.0493-1.457 0.47891-2.8227 1.4817-3.8545 1.161-1.1828 2.856-2.4584 5.5263-1.5877 1.0971 4.1215 0.79818 8.3026-1.1363 9.6725m-7.8283-10.201c-0.79674-1.5499-1.0638-3.3408-1.3743-4.9778-0.59065-3.0824-0.32072-8.2126 2.6529-8.8395 0.56018-0.11174 1.3351 0.0232 1.9345 0.41506 2.3641 1.5456 4.3813 6.5161 5.2288 11-2.3844-0.43827-5.8064 0.33379-8.4419 2.4018m35.423 25.001c0.80399 2.5818 0.14223 5.329-2.47 2.8198-2.113-2.0259-6.8803-13.833-8.0587-19.538 4.4495 3.5018 8.7089 10.903 10.529 16.718m25.278-16.209c-1.9809-1.8953-0.89832-4.8834 1.6733-4.8834 1.2756 0 2.1116 0.36861 2.8735 1.1915 0.90267 0.97813 1.5906 2.5585 1.2074 4.9299-2.5223 0.27138-4.567-0.10594-5.7542-1.2379m-112.29 2.0397c-1.6312 0.67773-3.3001 0.53116-4.7122-0.40925-1.875-1.2423-3.0345-3.766-3.0345-6.5712 0-2.8517 1.37-5.9602 3.5758-8.0936 1.9244-1.8692 4.2072-2.9315 7.6045-2.7051 0.83447 7.1038 0.52825 16.128-3.4336 17.779m-11.583-14.201c-2.7153-3.3451-4.5496-7.725-5.075-12.028-0.76626-6.323 0.15093-15.885 5.8238-17.074 1.7284-0.36571 2.8909-0.15238 4.554 0.96072 2.7327 1.8228 4.8239 5.8761 6.1039 8.9571 1.5818 3.808 2.9199 9.1022 3.2929 13.013-6.5799-0.74013-11.135 1.1131-14.7 6.1707m111.83 17.973c0.24961 1.4193 0.0987 2.3887-0.61678 2.9808-0.66467 0.55582-1.8532 0.22349-2.7298-0.34975-1.5238-0.99265-4.8312-5.7585-4.8312-11.047 4.9952 2.0419 7.4739 4.4495 8.1777 8.4157m-28.568 46.923h-0.003l0.003 0.001s-0.24961 0.0305-0.91573 0.0435c-0.0595 0.004-0.12481 0.004-0.19302 0.004-0.0813 0.001-0.16834 0.001-0.26703 0.001-1.013 0.001-0.63999-0.68353-0.63999-0.68353l2.0158 0.63274zm-33.957-25.671 0.11029 0.0247c-0.0406-0.0102-0.0827-0.0189-0.1219-0.0261 0.003 0 0.007 0.001 0.0116 0.001"/><path d="m214.13 666.35 0.20635-0.49206s0.8233-0.70141 1.8072-0.5737c0.98394 0.13061 3.9554 0.16372 6.2426-0.56916 0 0-0.29033 0.1756-0.6009 0.25397-0.18866 0.0464-2.428 0.58485-5.7165 0.61678 0 0-0.59346 0.11446-1.1406 0.46712-0.54567 0.34829-0.79818 0.29705-0.79818 0.29705zm6.3197-1.4512c-0.8785 0.0344-2.9848 0.011-5.7755-0.73243 0 0-0.43519-0.51755-0.64852-0.9297 0 0 3.1578 1.1842 6.873 1.6326 0 0-0.15614 0.018-0.44897 0.0295zm-11.599-0.10431s0.61315-0.0474 0.6712-0.78458l0.43764 0.002s-0.11474 0.86213-1.1088 0.78231zm-13.673-16.673s-3.2538-2.8912-4.9909-1.4399c-0.002 0.003-0.008 0.0107-0.0114 0.0136v-0.007l-0.005-0.0249c0-0.009 0.005-0.0224 0.005-0.034 0.0218-0.2409 0.54476-0.86113 1.5737-0.70294 0.004-0.0522 0.0298-0.13651 0.0748-0.2381 0.0101-0.0131 0.0162-0.0278 0.0249-0.0408 0.20318-0.39183 0.73233-0.94149 1.6916-0.64398 0.18141 0.0566 0.3688 0.15211 0.58504 0.2653 1.2016 0.62839 2.4063 1.7136 2.8707 2.1519 0.12626 0.119 0.19728 0.19048 0.19728 0.19048s-3.9699-3.4774-5.2789-1.8912c-0.0479 0.0566-0.0938 0.11709-0.13152 0.1882-0.004 0.007-0.0115 0.0169-0.0159 0.0227 0.12771 0.0218 0.26141 0.0496 0.40363 0.0975 0.15964 0.0522 0.31909 0.1219 0.5034 0.21769 1.1494 0.62258 1.8903 1.2662 2.2517 1.6145 0.16689 0.16109 0.2517 0.26077 0.2517 0.26077zm4.7415-0.91383s-0.10087-0.0893-0.27211-0.23583c-0.0508-0.0406-0.13859-0.11148-0.27211-0.22902-1.2495-1.0362-4.3322-3.3306-5.6485-1.9955-0.0537 0.058-0.10875 0.121-0.16099 0.19501-0.0131 0.0203-0.0278 0.0267-0.0408 0.0499-0.006-0.0464 0.028-0.14957 0.10204-0.27438 0.007-0.0116 0.0102-0.0238 0.0204-0.034 0.26122-0.42086 0.94512-1.0584 2.0408-0.64626 0.003-0.006 0.008-0.014 0.0114-0.0227 0.0203-0.0493 0.0688-0.14368 0.14286-0.25397 0.009-0.0102 0.0177-0.0232 0.0249-0.0363 0.33088-0.47456 1.1397-1.221 2.6417-0.39229 0.19011 0.10449 0.38693 0.22957 0.60317 0.38775 1.46 1.1 2.3964 2.1957 2.8027 2.7211 0.15528 0.20027 0.23356 0.32426 0.23356 0.32426s-4.2375-4.5378-6.1111-3.0952c-0.0102 0.009-0.0183 0.0131-0.0227 0.0204-0.0392 0.0305-0.0726 0.0641-0.10884 0.0975-0.0755 0.0711-0.14722 0.15365-0.21542 0.24943 0.009 0.004 0.0185 0.006 0.0272 0.0114 0.13206 0.0479 0.42712 0.17415 0.86394 0.43537 1.309 0.78222 2.6455 2.0384 3.136 2.5261 0.12916 0.12335 0.20182 0.19727 0.20182 0.19727zm5.127-0.55102s-3.7421-4.7737-6.2789-3.5692c-0.10449 0.0494-0.20989 0.1103-0.31293 0.18141 0.001-0.006 0.004-0.0109 0.0114-0.0181 0.0421-0.0711 0.11491-0.15111 0.20635-0.22222 0.0145-0.016 0.0354-0.0284 0.0499-0.0385 0.29605-0.21914 0.78421-0.39311 1.3923-0.35828-0.0276-0.0842-0.0633-0.16898-0.0952-0.2517-0.93895-2.216-3.7256-2.8118-3.7256-2.8118-0.73143-2.1623-8.8434-4.801-14.374-6.1564 0.0435 0.009 0.0818 0.0185 0.12245 0.0272 6.0284 1.2814 14.233 3.5343 14.925 5.5646 0 0 2.6417 0.56671 4.0204 3.8276 0.26848 0.0914 0.54259 0.21869 0.82993 0.40589 1.4309 0.94476 2.8469 2.8812 3.1632 3.3311 0.045 0.058 0.0658 0.0884 0.0658 0.0884zm-20.812-0.0952s-0.77723-0.10458-1.7075-0.38321c-0.96943-0.28735-2.1041-0.77043-2.7165-1.5193 0 0 2.0585-0.94422 6.4195 0.19501 0.4078 0.10884 0.83791 0.22839 1.2834 0.37641 0 0-4.9928-1.1336-6.653-0.36734 0 0 0.69514 0.9336 3.3741 1.6984zm-6.65-1.91s-0.521-0.14739-1.1247-0.43764c-0.59356-0.28009-1.2701-0.69551-1.6213-1.2426 0 0 2.3554-0.5346 7.3492-0.0136-0.81995-0.44118-1.458-1.0227-1.458-1.0227 4.4814-0.56888 7.842 0.49606 9.238 1.0635 0.46005 0.18721 0.70522 0.31973 0.70522 0.31973-5.9907-1.7067-8.8299-1.0726-8.8299-1.0726l1.3946 1.136s-5.8544-0.83129-7.0226 0.0975c0 0 0.32327 0.57587 1.3696 1.1723zm14.299-2.0023s-2.0754-1.7771-5.3537-2.2517c-0.22204-0.0334-0.45569-0.0599-0.68934-0.0816h0.0114c1.2306 0.0943 4.791 0.48925 5.8344 1.9637 0.0813 0.11755 0.14938 0.239 0.19727 0.36961zm1.8072-0.80952s-1.8235-2.0897-4.1111-2.3809c0.92106 0.0787 2.8903 0.4308 3.966 2.1292 0.0508 0.0798 0.10013 0.16027 0.14512 0.2517zm-4.1111-2.3809c-0.0619-0.005-0.15943-0.0219-0.21088-0.0249 0.0406 0.003 0.0804 0.007 0.12245 0.0114 0.009 0 0.0216-0.00064 0.0317 0.002 0.0194 0.002 0.0374 0.009 0.0567 0.0114zm-16.551 2.0363s-0.30141-0.15247-0.65987-0.4195c-0.31201-0.2322-0.67101-0.54594-0.92063-0.93197 0 0 1.7269-1.013 7.2721-0.0726 1.0522 0.1785 2.2364 0.42684 3.576 0.76644 0 0-8.072-1.3187-9.7278-0.33334 0 0-0.29578 0.32481 0.46032 0.99093zm22.884-0.1678s-2.0767-2.1465-3.9183-2.5238c-0.0798-0.0145-0.15746-0.0298-0.23583-0.0385 0 0 2.2432-0.13369 3.9614 2.2812 0.0639 0.0885 0.13179 0.18105 0.19274 0.28118zm-11.499-1.712s-16.816-2.928-14.231-0.29252c0 0-0.39301-0.2448-0.77324-0.5873-0.29169-0.26557-0.5736-0.58838-0.66212-0.90475 0.40779-0.0522 3.117-0.87166 14.342 1.5011 0.0392 0.007 0.0818 0.0171 0.12245 0.0272l0.6576 0.14059h0.002c0.17415 0.0363 0.35909 0.075 0.54195 0.11564zm4.814-0.19274c-0.0639-0.003-0.13116-0.002-0.19501-0.002 0.001 0 0.0818-0.00063 0.19501 0.002zm-2.5306-0.4898c-12.643-3.975-19.025-3.0635-19.025-3.0635-0.0203 0.30331 0.8526 0.78912 0.8526 0.78912-0.41505-0.1103-0.79709-0.33932-1.0975-0.55556-0.40634-0.29315-0.66439-0.57823-0.66439-0.57823s2.1135-0.65387 7.1406 0.14286c7.3476 1.1566 10.702 2.309 12.034 2.8866 0.55147 0.23655 0.75964 0.37868 0.75964 0.37868zm43.553-10.855c-0.13351-0.0929-0.31165-0.2342-0.53514-0.44898-0.74158-0.71546-2.0572-3.235-3.4127-6.3537-0.6371-1.6123-1.2516-3.2859-1.7755-4.8866 1.9418 2.4802 3.6906 5.4855 4.9909 8.3401 0.17705 0.48906 0.34077 0.96933 0.48299 1.4308 0.26268 0.8156 0.29588 1.5062 0.24943 1.9184zm27.669-9.7868c-0.50649-0.90122-1.0347-1.9693-1.5601-3.0839 0.62114 0.4165 1.4052 0.8165 2.3674 1.1111-0.29025 0.64435-0.57071 1.3139-0.80726 1.9728zm-14.855-0.98865c-0.15383 0.0305-0.64109-0.0611-1.1882-0.4195-0.51084-0.32798-1.5647-1.5474-2.492-3.3106-0.1727-0.56888-0.32327-1.1555-0.42631-1.7664 1.9505 0.99265 3.2828 2.0752 4.1564 3.39 0.0334 0.13496 0.0578 0.26494 0.0839 0.40136 0.15819 0.89251 0.11727 1.4701-0.13379 1.7052zm-101.12-6.6213c-0.58322-0.0482-1.1435-0.24735-1.6667-0.59637-0.44263-0.29605-0.83564-0.68671-1.1723-1.1496-0.0972-0.51374-0.14739-1.0504-0.14739-1.6077 0-2.5034 1.214-5.2438 3.1746-7.1406 1.3816-1.341 2.8138-2.074 4.5669-2.2902 0.30331 6.6539-0.8039 11.577-2.9546 12.474-0.61242 0.25615-1.2172 0.35891-1.8004 0.31066zm59.916-0.4331c-0.36299 0.0178-0.72471-0.0701-1.0476-0.26531-0.19737-0.12335-0.38431-0.27174-0.55555-0.44444 0-0.045-0.005-0.0872-0.005-0.12925-0.0392-1.0957 0.35564-2.1204 1.1088-2.8866 0.73432-0.75465 1.5747-1.4217 2.7415-1.4739 0.14367 2.4482-0.37569 4.2517-1.1927 4.8322-0.32363 0.22567-0.68689 0.34957-1.0499 0.36735zm59.222-0.70068c-1.1247 0.0276-2.0714-0.11538-2.7868-0.41723 0.24672-0.26993 0.61452-0.42177 1.0499-0.42177 0.86929 0 1.329 0.21451 1.7324 0.59183 0.001 0.0827 0.009 0.16445 0.005 0.24717zm-64.143-11.061-0.0476-0.23583c-0.53261-2.7893-0.16708-6.9144 1.6281-7.2902 0.18575-0.0421 0.60952 0.006 0.9433 0.21769 0.80109 0.5297 1.6502 1.7009 2.415 3.2494 0.27573 0.79673 0.52589 1.6347 0.73922 2.5011-1.8706 0.0464-3.8872 0.60435-5.678 1.5578zm-64.247-3.2834c-0.59646-0.87509-1.1346-1.8038-1.6077-2.7732-0.50503-1.4745-0.86249-2.9949-1.0454-4.5056-0.67047-5.5104 0.0353-14.632 4.7823-15.624 1.4121-0.29605 2.2099-0.12961 3.5465 0.76871 1.6922 1.1334 3.4469 3.5857 5.0113 6.9773 1.1058 3.0055 2.0389 6.6657 2.483 9.7278-5.5844-0.26993-9.8365 1.4841-13.17 5.4285z" fill="#fff"/></g></g></svg>
