<?xml version="1.0" encoding="UTF-8" standalone="no"?>
<svg xmlns:rdf="http://www.w3.org/1999/02/22-rdf-syntax-ns#" xmlns="http://www.w3.org/2000/svg" height="200" width="200" version="1.1" xmlns:cc="http://creativecommons.org/ns#" xmlns:dc="http://purl.org/dc/elements/1.1/" viewBox="0 0 200 200.00404">
 <g transform="translate(138.29 -431.36)">
  <g>
   <path d="m31.807 461.63c-18.695-18.697-43.557-28.994-70.003-28.994-26.442 0-51.302 10.297-70.001 28.994-18.699 18.699-28.997 43.56-28.997 70.008 0 26.442 10.297 51.304 28.997 70.003 18.699 18.701 43.56 28.999 70.001 28.999 26.444 0 51.308-10.297 70.003-28.999 18.699-18.699 28.999-43.562 28.999-70.003 0-26.448-10.299-51.308-28.999-70.008" fill="#002d62"/>
   <path d="m-38.197 437.18c-52.164 0-94.457 42.287-94.457 94.455s42.293 94.457 94.457 94.457c52.168 0 94.459-42.289 94.459-94.457s-42.291-94.455-94.459-94.455" fill="#eb6e1f"/>
   <path d="m-38.197 622.35c-50.097 0-90.711-40.613-90.711-90.713 0-50.095 40.615-90.707 90.711-90.707 44.617 0 81.713 32.215 89.299 74.649 0.92434 5.2123 1.4118 10.576 1.4118 16.058v0.004c0 50.097-40.608 90.709-90.711 90.709" fill="#002d62"/>
   <path d="m100.09 39.672c-33.475 0-60.6 27.127-60.6 60.598 0 33.47 27.125 60.6 60.6 60.6 33.47 0 60.6-27.13 60.6-60.6 0-33.471-27.13-60.598-60.6-60.598z" transform="translate(-138.29 431.36)" fill="#eb6e1f"/>
   <path d="m-4.2062 576.76-4.0857-12.569h-15.665-0.0061l18.529 13.453c-9.2435 6.5918-20.544 10.485-32.763 10.485-12.209 0-23.513-3.8875-32.753-10.485l18.523-13.453h-0.002-9.735l-10.771 14.893 0.75849-2.324c-13.667-10.309-22.508-26.67-22.508-45.123 0-5.1719 0.69376-10.174 1.9963-14.935 0.18811-0.67556 0.38632-1.3511 0.59668-2.0287l29.615 21.521v-3.7318-0.006l-22.619-16.43-9.3102-3.0178h2.8742c7.6051-21.749 28.121-37.423 52.356-37.837l0.97693-3.0077v55.351 0.006h11.847v-11.77l-7.6658-2.7427v-9.7127h5.9385l-9.1403-28.125c24.243 0.42071 44.755 16.088 52.354 37.837h2.8843l-9.3082 3.0178h-22.607v20.168l29.595-21.505c0.21238 0.66342 0.41262 1.337 0.59668 2.0186 1.3026 4.7572 1.9984 9.7653 1.9984 14.929 0 18.442-8.8409 34.812-22.502 45.123" fill="#002d62"/>
   <path d="m100.09 40.801l-0.977 3.008-9.138 28.125h5.939v0.004 9.708l-7.666 2.743v11.763h11.842v-55.351zm-56.209 40.845l9.312 3.018 22.619 16.426v-16.701h-0.003l-7.666-2.743h-21.385-2.877zm88.159 0l-7.65 2.743v0.275h22.61l9.31-3.018h-2.89-21.38zm-43.792 26.954v7.44l5.371-7.44h-5.371zm-18.055 24.23l-4.084 12.57-0.755 2.32 10.769-14.89h-0.004-5.924-0.002z" transform="translate(-138.29 431.36)" fill="#f4911e"/>
   <path d="m96.92 15.23l-2.266 2.266v6.555l2.266 2.271h5.06l0.48 0.479v4.006l-0.48 0.48h-4.332l-0.677-1.773h-2.317v4.828h8.596l2.27-2.264v-6.555l-2.27-2.265h-5.061l-0.47-0.481v-4.006l0.47-0.478h4.341l0.68 1.771h2.31v-4.834h-8.6zm-15.775 1.868l-5.385 1.687 0.722 2.301 1.407 0.172 3.759 12.008-0.314 0.599-3.729 1.162-0.599-0.304-3.766-12.006 1.065-0.949-0.729-2.299-5.383 1.691 0.721 2.293 1.412 0.18 4.141 13.213 2.847 1.494 6.155-1.936 1.484-2.847-4.139-13.217 1.051-0.947-0.72-2.295zm38.125 0.095l-1.57 5.034 2.18 0.681 1.34-1.9 1.8 0.56-3.89 12.465-1.41 0.178-0.72 2.303 5.39 1.679 0.71-2.298-1.05-0.956 3.89-12.462 1.79 0.558 0.03 2.34 2.18 0.676 1.57-5.045-12.24-3.813zm26.58 11.315l-3.16 0.586-8.3 11.972 0.58 3.166 5.3 3.672 3.16-0.582 8.3-11.978-0.57-3.16-5.31-3.676zm-91.612 0.068l-5.293 3.664-0.58 3.17 8.315 11.981 3.168 0.568 5.289-3.686 0.576-3.158-8.311-11.972-3.164-0.567zm90.912 3.184l3.22 2.222 0.11 0.659-6.85 9.9-0.66 0.119-3.21-2.224-0.12-0.665 6.85-9.894 0.66-0.117zm-90.207 0.051l0.661 0.125 6.865 9.888-0.119 0.662-3.209 2.221-0.666-0.109-6.864-9.885 0.118-0.672 3.214-2.23zm107.98 10.732l-1.9 1.477 0.32 1.38-10.35 8.061-1.25-0.643-1.91 1.475 3.47 4.455 1.9-1.48-0.32-1.381 7.05-5.496-6.58 10.974 2.2 2.828 12.71-9.916 1.27 0.661 1.9-1.489-3.48-4.453-1.89 1.483 0.32 1.382-7.06 5.493 6.59-10.981-2.99-3.83zm-125.85 0.219l-3.459 4.447 1.899 1.492 1.258-0.658 3.966 3.082-2.906 3.748-3.973-3.084 0.325-1.381-1.903-1.478-3.465 4.451 1.901 1.476 1.262-0.652 10.359 8.055-0.324 1.385 1.902 1.472 3.463-4.455-1.9-1.476-1.264 0.654-3.965-3.088 2.906-3.748 3.973 3.084-0.32 1.394 1.894 1.471 3.467-4.453-1.9-1.477-1.264 0.655-10.354-8.057 0.319-1.383-1.897-1.476zm31.078 29.172v9.712l2.457-1.751h0.002l7.668 2.748-2.465 1.746v16.701 0.01 3.73 15.55l-7.662 2.74v9.7l2.389-2.4 0.068-0.07h0.002 22.829v-5.5l2.47-1.73h0.006l-7.66-2.74h-0.002l-2.475 1.73v-15.97h28.623l-2.46 2.46v11.78l-7.67 2.74v0.01 2.39 7.3l2.48-2.47h22.82v-5.5l2.47-1.73-7.65-2.74-2.48 1.73v-39.464-0.003l6.12-2.198 1.54-0.55v-5.487l2.47-2.474h-21.83-5.94v9.712l2.48-1.751 7.65 2.748-2.46 1.746v11.769h-11.85-11.836l-2.477 2.469v-15.981-0.003l7.661-2.748v-5.487l2.476-2.47v-0.004h-5.939-21.825zm82.09 71.466l-6.12 6.03-0.02 3.22 4.59 4.66 3.22 0.03 3.6-3.55h0.67l2.81 2.85v0.68l-3.08 3.04-1.74-0.78-1.65 1.63 3.4 3.45 6.13-6.05 0.02-3.21-4.6-4.66-3.21-0.03-3.6 3.55h-0.67l-2.82-2.87 0.01-0.66 3.08-3.05 1.74 0.78 1.64-1.62-3.4-3.44zm-98.594 1.64l-13.201 9.64-1.324-0.46-1.682 1.7 4.036 3.96 1.675-1.72-0.494-1.31 1.68-1.21 3.498 3.42-1.193 1.71-1.317-0.47-1.678 1.71 4.034 3.95 1.677-1.71-0.498-1.32 9.395-13.36-4.608-4.53zm-0.3 4l0.904 0.89-4.631 6.59-2.775-2.72 6.502-4.76zm81.324 8.64l-5.75 2.89-1.01 3.05 6.57 13.02 3.05 1 5.76-2.91 1-3.04-6.57-13.02-3.05-0.99zm-64.981 0.09l-3.044 1.02-2.936 5.85 1.014 3.05 4.517 2.27 0.219 0.64-1.803 3.58-0.644 0.21-3.869-1.94 0.177-1.89-2.064-1.05-2.172 4.33 7.691 3.86 3.045-1.01 2.942-5.85-1.012-3.05-4.521-2.27-0.217-0.65 1.804-3.58 0.643-0.21 3.865 1.94-0.179 1.9 2.062 1.03 2.176-4.32-7.694-3.86zm65.231 3.22l0.64 0.2 5.43 10.74-0.21 0.64-3.5 1.77-0.64-0.22-5.43-10.74 0.22-0.64 3.49-1.75zm-49.311 3.45l-0.812 5.2 2.258 0.37 1.043-2.09 1.857 0.29-2.01 12.9-1.357 0.39-0.377 2.38 5.582 0.87 0.367-2.38-1.18-0.77 2.006-12.92 1.854 0.29 0.367 2.3 2.258 0.35 0.806-5.22-12.662-1.96zm29.991 0.44l-9.77 1.55 0.36 2.38 1.37 0.38 2.06 12.95-1.19 0.8 0.38 2.37 5.57-0.88-0.37-2.37-1.37-0.39-0.78-4.97 2.75-0.43 2.18 4.52-0.98 0.67 0.37 2.37 5.57-0.87-0.37-2.38-1.5-0.43-2.26-4.71 1.59-2.2-1.02-6.46-2.59-1.9zm-0.78 3.23l0.54 0.4 0.62 3.95-0.38 0.56-4.23 0.65-0.77-4.89 4.22-0.67z" transform="translate(-138.29 431.36)" fill="#fff"/>
   <path d="m132.04 71.934l-2.47 2.472v5.49l-1.54 0.551-6.12 2.198v39.465l2.48-1.73v-15.55-20.166-0.275l7.65-2.743v-9.712zm-36.126 0.004l-2.473 2.47v5.487l-7.664 2.751v15.981l2.471-2.469v-0.006-11.763l7.666-2.743v-9.708zm-25.307 7.958l-2.457 1.75h-0.007l7.666 2.743h0.003l2.463-1.748-7.666-2.745h-0.002zm36.143 0l-2.48 1.749 7.67 2.744 2.46-1.748-7.65-2.745zm-20.973 26.244v15.97l2.471-1.73v-4.34-7.44h5.371 0.004 18.317l2.46-2.46h-28.623zm46.263 16.98l-2.47 1.74v5.49h-22.82l-2.48 2.47h10.06 15.66 2.05v-9.69-0.01zm-36.126 0.01l-2.475 1.72v5.5h-22.832l-0.068 0.07-2.396 2.41h2.05 0.002 5.922 0.004 9.736 0.004 10.051v-7.31h0.002v-2.39z" transform="translate(-138.29 431.36)" fill="#e7e9ea"/>
  </g>
 </g>
</svg>
