<?xml version="1.0" encoding="UTF-8" standalone="no"?>
<svg xmlns:rdf="http://www.w3.org/1999/02/22-rdf-syntax-ns#" xmlns="http://www.w3.org/2000/svg" xml:space="preserve" height="149.99" viewBox="0 0 141 149.98655" width="141" version="1.1" xmlns:cc="http://creativecommons.org/ns#" xmlns:xlink="http://www.w3.org/1999/xlink" xmlns:dc="http://purl.org/dc/elements/1.1/"><g transform="matrix(1.25 0 0 -1.25 -7.2513 423.77)"><g transform="matrix(1.4631 0 0 1.4631 -27.564 -128.2)"><path d="m63.732 0c-5.0125 0-9.0723 4.063-9.0723 9.0742 0 5.01 4.0598 9.0742 9.0723 9.0742 5.0112 0 9.0723-4.0642 9.0723-9.0742 0.001-5.0108-4.06-9.0738-9.072-9.0738zm-10.294 12.965c-0.13928-0.01723-0.28141 0.04836-0.35547 0.17773l-7.0273 12.287c-0.09875 0.17375-0.03898 0.39344 0.13476 0.49219 0.1725 0.0975 0.39344 0.03969 0.49219-0.13281l7.0254-12.287c0.09875-0.1725 0.03773-0.39148-0.13476-0.49023-0.04312-0.025-0.08834-0.04113-0.13477-0.04687zm16.289 4.791c-0.13852 0.02654-0.25422 0.13305-0.28516 0.2793l-3.004 14.033c-0.0425 0.195 0.08234 0.38524 0.27734 0.42774 0.195 0.04125 0.38648-0.08234 0.42773-0.27734l3.0039-14.033c0.04125-0.19375-0.08164-0.38648-0.27539-0.42774-0.04906-0.01031-0.09836-0.0108-0.14453-0.002zm-12.205 0.97656c-0.14057-0.005-0.27805 0.07305-0.3418 0.20898l-5.1328 11.029c-0.08375 0.18125-0.0042 0.39547 0.17578 0.48047 0.18125 0.08375 0.39477 0.0042 0.47852-0.17578l5.1348-11.029c0.0825-0.18 0.0042-0.39672-0.17578-0.48047-0.04531-0.02094-0.09182-0.03152-0.13867-0.0332zm3.5039 1.748c-0.13998 0.01172-0.26461 0.10555-0.31055 0.24805l-5.4082 16.654c-0.06125 0.19 0.04367 0.39383 0.23242 0.45508s0.39258-0.04242 0.45508-0.23242l5.4062-16.654c0.06125-0.18875-0.04367-0.39188-0.23242-0.45312-0.0475-0.01563-0.09592-0.02148-0.14258-0.01758zm3.3027 0.33203c-0.13822 0.02303-0.25633 0.12719-0.29102 0.27344l-3.2227 13.596c-0.04625 0.19375 0.07578 0.38734 0.26953 0.43359 0.1925 0.04625 0.38734-0.07383 0.43359-0.26758l3.2188-13.596c0.0475-0.19375-0.07313-0.38734-0.26562-0.43359-0.04812-0.01156-0.0965-0.01354-0.14258-0.0059zm-19.779 7.8926c-0.12686-0.01389-0.2557 0.04789-0.32227 0.16602l-9.0449 16.162c-0.09 0.1575-0.03375 0.35727 0.125 0.44727 0.1575 0.0875 0.35656 0.0318 0.44531-0.12695l9.0449-16.164c0.08875-0.1575 0.0325-0.35461-0.125-0.44336-0.03937-0.02219-0.08076-0.03639-0.12305-0.04102zm15.51 40.248c-0.12457 0.02713-0.22758 0.12664-0.25195 0.25977l-1.6738 9.0469c-0.03375 0.17875 0.08422 0.34906 0.26172 0.38281 0.1775 0.0325 0.34906-0.08492 0.38281-0.26367l1.6738-9.0449c0.03375-0.1775-0.08492-0.34836-0.26367-0.38086-0.04438-0.0084-0.08738-0.009-0.12891 0zm-14.977 1.4688c-0.1275 0.0116-0.24094 0.09719-0.28125 0.22656l-1.3477 4.2422c-0.055 0.1725 0.04039 0.35516 0.21289 0.41016s0.35586-0.04039 0.41211-0.21289l1.3477-4.2402c0.055-0.17375-0.04164-0.35641-0.21289-0.41016-0.04344-0.01375-0.08836-0.01949-0.13086-0.01563zm-24.458 1.856c-0.12738-0.01148-0.25461 0.05187-0.31836 0.17188l-5.0977 9.5742c-0.085 0.16-0.02328 0.35836 0.13672 0.44336s0.35711 0.02453 0.44336-0.13672l5.0957-9.5742c0.084-0.16 0.025-0.357-0.135-0.442-0.04-0.02125-0.08254-0.03328-0.125-0.03711zm31.854 2.8984c-0.12533 0.02379-0.23164 0.11883-0.25977 0.25195l-1.7832 8.3359c-0.0375 0.1775 0.07375 0.35312 0.25 0.39062 0.1775 0.03625 0.35188-0.0757 0.39062-0.25195l1.7832-8.3379c0.03875-0.1775-0.0757-0.34992-0.25195-0.38867-0.04406-0.0094-0.08713-0.0079-0.12891 0zm-20.518 0.48633c-0.12785-0.0027-0.25227 0.06859-0.30664 0.19141l-3.6406 8.1191c-0.07375 0.165-0.0022 0.35789 0.16406 0.43164 0.165 0.07375 0.36109 0.000938 0.43359-0.16406l3.641-8.116c0.075-0.165 0.000938-0.35984-0.16406-0.43359-0.04125-0.01844-0.08434-0.02644-0.12695-0.02734zm10.828 2.1289c-0.1275 0.01195-0.24094 0.09914-0.28125 0.22852l-7.1914 22.697c-0.05375 0.1725 0.04234 0.35516 0.21484 0.41016 0.17125 0.0537 0.35516-0.0404 0.41016-0.21289l7.1895-22.697c0.055-0.1725-0.03914-0.35711-0.21289-0.41211-0.04344-0.01375-0.08641-0.01766-0.12891-0.01367z" transform="matrix(.8 0 0 -.8 23.4 318.68)" fill="#ef3e42"/><path d="m84.973 24.705c-1.0943 0.06034-2.5238 1.727-1.7441 5.3145-0.525 2.6775-3.3638 10.877-4.8438 11.088-0.85375 0.12125-0.89453-1.2512-0.45703-2.8887 0.4375-1.6388 2.7936-4.5929 1.3398-6.0879-0.844-0.867-2.448-0.41-3.83-0.349-0.883 0.039-0.258-2.433-1.719-1.601-1.1662 0.66375-1.1216 3.0714-0.53906 4.2227-0.43625 2.795-0.78555 3.9281-2.1543 7.7031-1.5825 4.3675-5.766 6.1702-5.6348 2.2715 3.3962-0.47 6.4876-6.9685 4.2676-8.6348-2.33-1.7475-7.1334 1.3643-7.3984 9.4355l-2.3145 3.7559c0.52375-3.3638 1.1958-7.8763 1.4883-10.143-1.1638 0.03625-2.6523 0.99414-2.6523 0.99414l-0.33984 1.377c-1.4188-2.1425-8.0274-0.13344-7.7949 10.32-0.36125 2.8188-2.0566 3.574-2.1016 2.8027-0.22625-3.8138 2.1421-15.051 2.9434-19.129-0.80125-0.145-2.7695 0.89258-2.7695 0.89258s-2.1562 10.267-2.2012 10.277c-3.6188-2.4138-6.8813 3.5819-6.9551 5.7656-0.4375 0.43625-1.0291 0.91688-1.5391 1.1719-0.315-1.3275-0.92461-2.5511-2.2871-2.9648-4.5162-1.37-8.1991 5.3087-7.0078 11.607l-3.3887 4.8594c0.225 0.40625 0.67367 0.58602 1.1699 0.54102l3.4668-3.1504c4.175 2.7838 8.1616-1.2417 8.2129-8.5742 0.6125-0.4 1.2031-1.3512 1.2031-1.4375-0.2725 2.03 0.33711 5.8307 2.6309 6.1582 2.4475 0.35 3.8226-2.5888 4.2051-3.8125 0.48 0.6125 1.0493 1.3992 1.9668 1.3555 2.0963-0.0875 2.7508-2.7661 3.1445-3.9023 1.86 2.9562 4.6595 0.4975 5.3145-1.25l-0.30664 2.0078c-1.6925 2.0375-4.5723 6.2891-4.5723 6.2891-5.8675 2.1262-17.298 6.3496-22.016 13.412 0.02125 0.04375 1.0036 0.87375 7.1211 0.21875 0.76375-2.075 5.4316-6.234 12.275-8.5215-1.6788 3.4088-1.3427 8.5769 1.5273 8.3594 5.1788-0.39125 6.6024-8.6409 7.2949-11.881 4.41-1.8962 12.3-4.9334 20.539-8.4746 7.6512-3.2875 18.607-8.7848 16.127-15.84-1.0038-2.8525-4.796-2.2889-5.7598-1.3789 0-3.7675-1.9002-4.7702-3.8652-7.084-0.4375-1.6175 0.83672-2.1496 1.0117-3.5371 0.13406-1.0523-0.40199-1.5948-1.0586-1.5586zm-0.62695 7.3301c2.5112 2.9125 1.8796 5.9838 0.59961 6.625-0.65625 0.32625-1.4041-0.67102-2.1328 0.02148-1.09 1.0338-0.36398 2.7587 1.1348 3.0137 2.14 0.36375 3.5609-1.1084 4.9922-2.5996 0.44125-0.46 2.1109-1.4784 3.1484-0.75586 1.5525 1.08 0.43336 3.6827-0.24414 4.709-2.84 4.2962-10.618 7.3003-33.273 15.539 0.2175-1.5438 0.53719-3.8506 0.83594-5.5469 1.2225-1.7038 2.2848-3.7134 3.4648-5.4609 0.52375 0.87375 1.3316 2.2012 3.1016 2.1562 5.6075-0.14625 8.0677-10.668 8.9414-14.775 0.4225 0.08875 0.9757 0.16609 1.377 0.15234-0.41 1.33-3.5403 8.4384 0.61719 9.6484 4.14 1.2075 6.6988-10.229 7.4375-12.727zm-16.637 5.916c0.05558 0.0035 0.10734 0.01945 0.15625 0.04883 0.72875 0.43625-0.40648 4.017-2.459 4.6445-0.04102-2.0074 1.469-4.7461 2.3027-4.6934zm-11.141 4.8438c0.6475-0.07875 1.2853 0.75039 1.0391 2.0566-0.13875 0.7275-0.11523 2.2631-0.52148 3.5469-0.4325 1.3625-1.1569 3.0765-2.3594 3.3027-2.2962 0.43125-1.5507-8.5025 1.8418-8.9062zm-38.896 0.797c-7.276-0.204-16.161 5.978-17.506 12.922-0.355 1.8262-0.26711 4.7633 1.5566 5.707 1.7912 0.9275 5.9067 0.39242 8.168-6.3926 0.36375-1.0912 0.36359-1.848 0.058594-2.373-1.9025 6.0575-6.0448 6.7857-6.9023 5.752-4.1775-5.0388 9.118-16.869 16.73-12.566 4.0825 2.3088 4.2643 9.1465 3.0605 14.459-0.89875 3.9612-2.7777 8.1371-7.0352 8.9121-1.6012 0.29-2.2137 0.11539-3.6699 0.05664 0.32-0.7275 0.88234-2.5326 1.4648-5.2988 1.315-6.245-0.63383-13.105 4.3887-17.518 0.1325-0.30625-0.17508-0.39258-0.39258-0.39258-9.2325 4.69-6.3326 20.75-8.5176 23.371-6.7712 0.99875-8.9297 7.0698-7.5859 7.9336 1.0188 0.65625 6.3778-1.2216 9.5078-6.2754 2.2712-0.0425 9.5173 1.9491 13.934-6.0996 2.995-5.455 3.9376-14.958-0.85742-19.658-1.7294-1.695-3.9769-2.4713-6.4023-2.5391zm27.363 4.4785c0.10168-0.0064 0.20602-0.0032 0.3125 0.0078 0.59 0.0625 0.84977 1.0915 0.79102 1.4902-0.0575 0.38625-0.46219 3.7733-0.55469 4.1445-0.4325 1.73-1.3006 2.9539-2.5156 2.9102-2.0186-0.07508-1.1852-8.3558 1.9668-8.5527zm-10.664 3.7754c0.74302-0.03214 1.6026 0.66492 1.5449 2.0332 0.18 0.495-2.0981 0.27758-2.5781-0.60742-0.05195-0.93461 0.4553-1.4008 1.0332-1.4258zm-2.3359 2.9648c0.765 1.3962 2.7597 1.629 3.9297 1.584 0.16375 2.025-1.3673 5.7147-3.4648 5.3047-1.7125-0.33375-1.8761-4.9524-0.46484-6.8887zm24.191 2.7344c-0.08125 0.59125-0.39062 1.9727-0.39062 1.9727s-0.79 0.33594-1.1562 0.46094c0.51125-0.755 1.3431-2.1011 1.5469-2.4336zm-0.96289 6.0117c-0.79375 3.7562-1.5402 5.812-3.2539 6.5645-1.3975 0.61375-0.7282-3.5452 0.43555-5.3652 1.53-0.58375 2.8184-1.1992 2.8184-1.1992zm-47.017 8.684c-0.7425 1.31-2.3887 2.8966-3.6699 2.6191 0.18875-1.47 1.8349-2.2991 3.6699-2.6191z" transform="matrix(.8 0 0 -.8 23.4 318.68)" fill="#005a9c"/><g fill="#fff"><path d="m72.022 312.05c0.938 3.055-0.681 5.046-0.886 5.281-2.086-1.148-3.5-3.366-3.5-5.916 0-1.159 0.293-2.25 0.807-3.203 0.421 0.12 2.673 0.89 3.579 3.838"/><path d="m76.699 310.62c-0.903-2.94 0.518-4.839 0.804-5.183 2.158 1.127 3.633 3.382 3.633 5.984 0 1.108-0.271 2.15-0.744 3.072-0.313-0.084-2.758-0.828-3.693-3.873"/><path d="m76.198 310.77c1.009 3.287 3.5 4.275 3.808 4.385-1.21 1.816-3.274 3.014-5.62 3.014-0.905 0-1.766-0.182-2.553-0.504 0.193-0.266 1.699-2.48 0.69-5.766-0.962-3.133-3.202-4.155-3.672-4.339 1.22-1.747 3.242-2.893 5.535-2.893 0.852 0 1.664 0.165 2.415 0.453-0.289 0.42-1.563 2.522-0.603 5.65"/></g></g></g></svg>
