<?xml version="1.0" encoding="UTF-8" standalone="no"?>
<svg xmlns:rdf="http://www.w3.org/1999/02/22-rdf-syntax-ns#" xmlns="http://www.w3.org/2000/svg" xml:space="preserve" height="150.07" viewBox="0 0 149 150.0664" width="149" version="1.1" xmlns:cc="http://creativecommons.org/ns#" xmlns:xlink="http://www.w3.org/1999/xlink" xmlns:dc="http://purl.org/dc/elements/1.1/"><g transform="matrix(1.25 0 0 -1.25 -10.768 768.26)"><g transform="matrix(1.2052 0 0 1.2052 -13.179 -112.99)"><path d="m46.803 32.988 0.08594 1.4414 0.12109 1.9688v0.002l0.49219 8.1797 0.08594 1.3594 22.133 40.619 0.86328 1.6172 0.87695-1.6172 21.99-40.539 0.0039 0.01172 0.84375-13.043-23.75 43.947-22.348-41.355-0.80664-1.4922-0.5918-1.0996z" transform="matrix(.8 0 0 -.8 11.007 602.92)" fill="#ffd100"/><path d="m45.141 31.068c-0.91918 0.59805-1.8143 1.1968-2.666 1.7832-25.974 17.867-23.998 29.911-16.646 36.08 1.2868 1.1007 2.763 2.1208 4.25 2.8398 2.0431 0.98665 3.9821 1.9085 6.0508 2.5508 0.23736 0.0745 0.472 0.1295 0.70703 0.21094 0.02094 0.0025 0.08116 0.02128 0.12305 0.03516-0.02868-0.0143-0.12552-0.05846-0.24805-0.10938-0.23736-0.10238-0.58254-0.25134-0.76172-0.32812-0.14428-0.06512-0.28774-0.12978-0.42969-0.19726-0.06749-0.02787-0.13174-0.05959-0.19922-0.08984-2.6551-1.2659-5.4516-3.2009-7.4668-5.5605-0.54685-0.64225-1.035-1.3132-1.4492-2.0137-2.725-5.1171-1.8016-12.4 8.4141-22.197 2.2456-2.1502 4.7686-4.3063 7.7402-6.5449l2.582-6.459zm3.8105 37.146-17.541 44.836h-10.076l0.20508-0.5293-0.21094 0.5293-7.5527 4.2617h20.557l15.039-38.455 0.18164-0.46094 0.01953-0.03906 20.98 38.822 20.973-38.822 15.219 38.955h20.562l-7.5644-4.3008h-10.076l-17.52-44.795-21.599 39.965-21.6-39.965z" transform="matrix(.8 0 0 -.8 11.007 602.92)" fill="#0078c8"/><path d="m99.684-0.0019531-4.873 1.8614c-0.48 0.2234-10.759 4.9119-12.565 5.7031-10.655 4.6795-24.958 11.012-30.894 14.042-1.1845 0.6027-3.1055 1.6519-5.2324 2.8945-20.253 12.724-35.104 26.974-27.558 43.354-8.6467-10.032-1.066-24.765 8.075-34.946 6.1038-6.8112 8.9919-9.6289 12.105-14.686 2.4434-3.9606 4.0123-8.1184 3.875-12.305 0.15824 0.0745-3.2617-1.6523-3.2617-1.6523 0.41421 1.345-0.47101 9.5048-5.7324 16.695-5.7571 7.8537-25.62 25.211-19.596 41.561 3.3393 9.0498 11.909 10.856 14.068 11.195 0.16522 0.01125 0.32651 0.05673 0.48242 0.06836-18.692-9.633-13.798-33.515 38.402-57.727 19.472-9.2316 32.7-16.057 32.705-16.057zm-71.106 73.785c0.0093 0 0.01293 0.000859 0.01758 0.0059-0.0256-0.0075-0.2068-0.02759-0.5-0.07422h-0.0078l-18.564 46.482h26.73l13.705-35.01 20.549 37.666 20.574-37.666 13.664 35.01h26.748l-37.203-92.989-23.781 43.68-19.907-36.911c9.3523-6.0828 18.958-10.931 23.717-13.221l-1.875-0.88672c-8.2865 4.1538-14.916 7.8172-20.373 11.191-0.77723 0.48401-1.5346 0.95927-2.2676 1.4316l-1.7695-3.2812-1.2383-2.3066-1.6621 4.1621-2.584 6.457c-2.9693 2.2386-5.495 4.3947-7.7383 6.5449-10.216 9.7968-11.139 17.082-8.4141 22.199 0.41421 0.69811 0.90237 1.3675 1.4492 2.0098 2.0175 2.3596 4.8117 4.2962 7.4668 5.5645 0.06749 0.03025 0.13174 0.06031 0.19922 0.08594 0.14195 0.06975 0.28579 0.13444 0.42774 0.19726 0.18151 0.07913 0.52632 0.22769 0.76367 0.33008 0.1117 0.0465 0.2057 0.08769 0.23828 0.10156 0.0046-0.0025 0.01217-0.0011 0.02148 0.0039-0.26295-0.114-0.62646-0.29314-0.88476-0.42578h-0.002v0.002c-0.19547-0.10012-0.38423-0.20973-0.58203-0.31445-0.09541-0.05588-0.19719-0.1101-0.29492-0.16602-0.01861-0.01125-0.03728-0.02383-0.06055-0.0332-0.1722-0.10475-0.34417-0.20973-0.51172-0.31445-0.12566-0.07913-0.24972-0.15842-0.37305-0.24219-0.05817-0.03725-0.11723-0.07714-0.17774-0.11914-0.07912-0.05588-0.1654-0.10659-0.24219-0.16016-0.735-0.51-1.305-1.01-1.652-1.324-0.1-0.088-0.226-0.213-0.337-0.32l13.01-33.223 1.125-2.8711 0.80859-2.0625 0.0078 0.002 0.5918 1.0977 0.80664 1.4922 22.35 41.357 23.746-43.947 33.01 84.322h-20.562l-15.225-38.953-20.972 38.823-20.981-38.823-0.02148 0.04102-0.17969 0.46875v-0.0078l-15.041 38.453h-20.555l16.871-43.098c0.0512 0.01125 0.10859 0.01839 0.16211 0.02539-0.80282-0.14195-1.557-0.30112-2.2109-0.45703h-0.01953zm12.762-33.201-11.412 28.551c-0.84704-1.0402-1.4664-2.0121-1.8945-2.7754-0.53987-0.97036-0.77539-1.6055-0.77539-1.6055-0.19082-0.6376-0.35593-1.3756-0.47461-2.2227-0.98666-7.1812 5.7209-14.978 14.557-21.947zm51.043 23.068-20.92 38.686-0.91602 1.6953-0.91211-1.6934-20.859-38.578-18.646 47.719-8.1875 0.002-0.40234 1.0391-0.20703 0.5332h10.078v-0.002l17.539-44.836 21.6 39.961 21.602-39.961 17.516 44.797h10.074l-0.043-0.10938-0.63477-1.541h-8.0859l-18.594-47.711z" transform="matrix(.8 0 0 -.8 11.007 602.92)" fill="#a7a9ac"/><path d="m94.834 1.8496s-21.676 8.2367-25.99 9.9238c-0.05818 0.021-0.000919-0.0011-0.01953 0.0039-2.0478 0.50265-4.9434 1.0205-7.0098 0.94141-1.642-0.049-4.429-0.394-7.591-1.723-0.947-0.398-6.478-2.6808-11.137-4.8612-0.156-0.0722-0.31-0.1443-0.471-0.2188 0.138 4.186-1.43 8.344-3.871 12.305-3.116 5.059-6.001 7.876-12.107 14.687-9.14 10.181-16.723 24.912-8.076 34.946-7.547-16.38 7.304-30.632 27.556-43.356 2.129-1.243 4.05-2.292 5.235-2.894 5.938-3.03 20.238-9.362 30.896-14.042 1.803-0.7907 12.083-5.4792 12.564-5.7026 0.0092-0.005 0.02148-0.00977 0.02148-0.00977zm-48.039 31.137-0.80859 2.0664-1.125 2.8691-13.01 33.221c0.1117 0.10938 0.23783 0.23152 0.33789 0.32227 0.34673 0.31182 0.917 0.81461 1.6523 1.3242 0.07214 0.0535 0.1533 0.10509 0.23242 0.15625 0.01163 0.0087 0.03059 0.022 0.04687 0.03125 0.04421 0.03025 0.08943 0.06125 0.14062 0.09375 0.12334 0.0815 0.24739 0.16074 0.37305 0.24219 0.16987 0.10238 0.34184 0.2101 0.51172 0.3125 0.02327 0.01125 0.04194 0.02383 0.06055 0.0332 0.08145 0.04887 0.16307 0.09018 0.24219 0.13672 0.05353 0.03262 0.10859 0.05764 0.16211 0.08789 0.15591 0.08613 0.30976 0.1721 0.47266 0.25586l11.506-28.193-0.08594-1.3652-0.5-8.1758-0.11914-1.9707-0.08984-1.4473zm47.502 0.0039-0.8418 13.041 11.186 28.535 15.057 38.336 0.041 0.10938 7.5684 4.2988-33.01-84.32zm-63.65 41.225-16.871 43.096 7.5527-4.2598 0.21094-0.53125 0.40234-1.0371 0.0039-0.002h-0.0039l0.01172-0.0176 13.921-36.808c0.0046 0 0.0078-0.0059 0.0078-0.0059-0.12566 0.0075-0.2552 0.01367-0.38086 0.01367-0.10006 0.005-0.19448 0.0059-0.29688 0.0059-1.5265-0.0087-3.0398-0.20975-4.3965-0.42383-0.05353-0.0087-0.11092-0.01572-0.16211-0.02734z" transform="matrix(.8 0 0 -.8 11.007 602.92)" fill="#f60"/><path d="m68.254 17.904c-5.543 2.7715-13.339 7.0242-20.213 11.311l1.7715 3.2812c0.73302-0.47239 1.4884-0.94799 2.2656-1.4297 5.455-3.376 12.087-7.04 20.369-11.191l-2.8457-1.3359-1.3477-0.63476zm-20.664 28.037v0.0059l-11.506 28.191h0.0039c0.2583 0.13264 0.61986 0.31176 0.88281 0.42578-0.0093-0.005-0.01488-0.0039-0.01953-0.0039-0.03258-0.014-0.12854-0.05506-0.24023-0.10156 0.12334 0.05125 0.22403 0.09538 0.25195 0.10938h-0.0059c-0.07214 0-0.70655 0.06608-1.0742 0.08008 0 0-0.0032 0.0039-0.0078 0.0039l-13.922 36.811-0.0098 0.0176h8.1836l18.646-47.721 20.859 38.58 0.91211 1.6914 0.91992-1.6973 20.92-38.684 18.59 47.711h8.0879l-0.33008-0.84571-14.092-35.947-11.186-28.535-0.002-0.01172-21.992 40.537-0.875 1.6172-0.866-1.616-22.129-40.618z" fill="#fff" transform="matrix(.8 0 0 -.8 11.007 602.92)"/></g></g></svg>
