<?xml version="1.0" encoding="UTF-8" standalone="no"?>
<svg xmlns:rdf="http://www.w3.org/1999/02/22-rdf-syntax-ns#" xmlns="http://www.w3.org/2000/svg" height="106.28" width="184.96" version="1.1" xmlns:cc="http://creativecommons.org/ns#" xmlns:dc="http://purl.org/dc/elements/1.1/" viewBox="0 0 184.96286 106.28125">
 <g transform="translate(130.72 -478.22)">
  <g>
   <path d="m51.958 542.82c-0.4625-0.78125-1.04-1.5288-1.7212-2.2188-0.0075-0.008-1.9138-1.9138-1.9138-1.9138-1.2612-1.2375-2.845-2.2838-4.72-3.1238-0.26625-0.62-0.5775-1.235-0.89375-1.835 0.2275-0.16125 0.47875-0.2875 0.685-0.47875 1.3288-1.2325 2.095-2.9062 2.1638-4.7112 0.0037-0.1 0.0063-0.1975 0.0063-0.29625 0-2.045-0.80875-3.9662-2.2938-5.4362 0-0.004-1.4325-1.425-1.4325-1.425l0.1075 0.11375c-1.5175-1.7612-3.8162-2.915-6.655-3.3362 0.005 0-1.7762-0.16625-1.7762-0.16625-1.6788-0.0612-3.37 0.3125-4.9175 1.0475-0.45-0.4525-0.91-0.91125-0.91-0.91125l-0.16375-0.15-0.42125-0.36125c-2.3275-1.83-5.5075-2.1425-8.135-2.0225-1.2438-1.3325-2.9312-2.1088-4.7575-2.1762l-0.7425 0.005c-0.0475 0.004-0.4 0.0263-0.4 0.0263l-0.0088 0.001-0.51875 0.0675h0.0038l-0.99 0.21999c-0.0375 0.0138-0.44625 0.14125-0.44625 0.14125-2.5725-7.2712-6.7775-13.964-12.288-19.472-9.8475-9.8488-22.942-15.271-36.869-15.271-13.925 0-27.02 5.4225-36.869 15.271-4.4725 4.4712-7.98 9.6375-10.56 15.319-0.2425-0.0888-0.4825-0.20875-0.7225-0.28876-0.01375-0.004-0.74375-0.23875-0.74375-0.23875-2.0988-0.63999-4.365-1.0575-6.7262-1.2337-0.0037 0-0.69875-0.0462-0.69875-0.0462l-0.635-0.0288c-18.781-0.68625-26.069 8.125-26.602 15.88-0.0512 0.74124-0.04 1.4938 0.0375 2.23 0.24 2.4175 1.1438 4.6113 2.6162 6.34-0.005-0.004 0.5975 0.65125 0.5975 0.65125-0.004-0.003 0.1325 0.13375 0.32875 0.33-2.0875 0.87125-3.9988 2.0138-5.6112 3.3775-3.8688 3.2762-6 7.6163-6 12.223v0.0188c0.008 4.8288 1.91 9.3762 5.36 12.819l1.7838 1.785c3.0175 3.0087 8.6288 6.5925 18.228 6.5812 10.059-0.015 18.595-2.7763 24.404-7.7938 1.52 2.0425 3.1425 4.0125 4.945 5.8138 9.8488 9.8462 22.944 15.272 36.869 15.272 21.428 0 40.668-13.232 48.488-33.085 6.84 1.0062 14.025 2.555 20.249 3.985 5.8788 1.3513 19.651 4.52 22.308-5.1425 0.165-0.6 0.24375-1.2288 0.24375-1.87 0-1.4938-0.4375-3.0538-1.28-4.485" fill="#fff"/>
   <path d="m92.674 3.0781c-13.35 0-25.899 5.2005-35.338 14.637-4.811 4.812-8.517 10.43-10.998 16.553-0.798-0.372-1.63-0.707-2.5-0.998-0.398-0.13-0.663-0.215-0.678-0.217-1.896-0.58-3.991-0.981-6.267-1.151-0.214-0.016-0.597-0.042-0.653-0.045-0.199-0.009-0.398-0.019-0.599-0.027-17.237-0.63-23.895 7.075-24.364 13.867-0.043 0.632-0.032 1.253 0.03 1.858 0.196 1.968 0.927 3.769 2.113 5.16 0.147 0.179 0.303 0.349 0.467 0.512l1.797 1.8c0.376 0.369 0.776 0.691 1.205 0.965-0.339 0.083-0.54 0.139-0.612 0.156-0.303 0.085-0.515 0.147-0.642 0.186-2.694 0.811-5.153 2.107-7.1506 3.797v0.004c-3.3788 2.857-5.2394 6.617-5.2344 10.582 0.006 4.246 1.6827 8.256 4.7227 11.287l1.7871 1.787c2.7262 2.72 7.8362 5.959 16.695 5.947 11.568-0.016 19.889-3.735 24.691-8.855 1.798 2.667 3.864 5.185 6.19 7.51 9.439 9.438 21.988 14.637 35.338 14.637 21.716 0 40.246-13.929 47.116-33.321 7.09 0.954 14.62 2.559 22.1 4.277 8.21 1.887 17.87 3.182 19.74-3.609 0.39-1.429 0.1-3.135-0.81-4.678-0.37-0.627-0.85-1.235-1.4-1.797l-1.9-1.906c-1.08-1.052-2.45-1.954-4.1-2.691-0.18-0.079-0.41-0.175-0.51-0.215s-0.18-0.074-0.26-0.106c-0.5-1.467-1.57-3.252-2.21-4.412 0.82-0.162 1.58-0.552 2.21-1.131 0.9-0.838 1.42-1.976 1.47-3.205 0.06-1.566-0.51-2.99-1.65-4.115-0.26-0.252-1.01-1-1.44-1.437-1.15-1.333-3-2.258-5.33-2.606-0.5-0.075-1.01-0.123-1.54-0.144-1.86-0.068-3.7 0.524-5.21 1.584-0.06-0.063-0.12-0.125-0.18-0.186-0.11-0.119-1.53-1.543-1.85-1.855-0.03-0.033-0.08-0.072-0.13-0.123-0.1-0.088-0.2-0.176-0.3-0.258-2.22-1.739-5.75-1.709-7.82-1.504-0.16-0.263-0.34-0.508-0.56-0.735-0.85-0.918-2.01-1.452-3.26-1.5-0.18-0.006-0.37-0.003-0.55 0.006-0.09 0.005-0.17 0.011-0.26 0.018-0.12 0.012-0.25 0.028-0.39 0.047-0.28 0.051-0.53 0.098-0.77 0.17-0.16 0.045-0.28 0.09-0.38 0.119-0.15 0.061-0.27 0.107-0.36 0.142-0.55 0.234-1.07 0.554-1.54 0.944-2.34-7.885-6.61-15.109-12.59-21.088-9.44-9.4364-21.99-14.637-35.336-14.637zm-53.672 38.649c1.427 0.251 2.743 0.729 3.775 1.388 0.044 0.074 0.079 0.148 0.116 0.223 0.138 0.334 0.205 0.679 0.193 1.029-0.061 1.659-1.821 3.077-4.285 3.735l1.967-4.549-1.786-1.785 0.02-0.041zm-3.322 18.865c1.586 0.466 3.02 1.191 4.24 2.156 1.237 1.578 1.922 3.412 1.924 5.193 0.002 0.455-0.064 0.95-0.196 1.485-0.681-2.509-2.031-4.853-3.964-6.828l-1.643-1.641c-0.117-0.122-0.238-0.245-0.361-0.365zm-11.494 4.447c1.585-0.001 3.11 0.423 4.324 1.199 0.384 0.642 0.58 1.32 0.58 2.024 0.002 0.282-0.031 0.561-0.094 0.836-2.127-0.032-4.127 0.786-5.625 2.289-1.469 1.47-2.277 3.428-2.275 5.506 0.001 0.961 0.182 1.906 0.521 2.789-0.4-0.077-0.787-0.175-1.162-0.284-0.004-0.003-0.01-0.003-0.014-0.003-1.121-0.337-2.119-0.811-2.966-1.418-0.954-1.344-1.463-2.976-1.463-4.739-0.007-4.513 3.66-8.194 8.174-8.199z" transform="translate(-130.72 478.22)" fill="#001851"/>
   <path d="m92.674 4.3223c-13.016 0-25.255 5.0691-34.459 14.276-4.715 4.715-8.341 10.225-10.76 16.23 0.378 0.204 0.741 0.417 1.098 0.637 6.988-17.518 24.11-29.897 44.121-29.897 21.296 0.0004 39.326 14.023 45.346 33.34 0.55 0.363 1.01 0.756 1.38 1.151 0.06-0.084 0.13-0.167 0.19-0.247-2.23-7.943-6.46-15.223-12.46-21.214-9.2-9.2066-21.44-14.276-34.456-14.276zm0 14.057c-16.115 0-29.662 10.996-33.549 25.894 0.407 0.097 0.802 0.249 1.17 0.454 0.167 0.092 0.331 0.19 0.484 0.302 0.27-0.132 0.548-0.27 0.825-0.406 0.678-0.335 1.347-0.66 1.839-0.885 1.974-0.894 4.784-1.247 6.618-0.015 0.096 0.065 0.193 0.134 0.281 0.207 0.074 0.065 0.158 0.139 0.252 0.224 0.017 0.013 1.32 1.317 1.32 1.317 0.808-0.775 1.719-1.573 2.719-2.325 0.404-0.302 0.822-0.599 1.252-0.882 0.286-0.189 0.577-0.372 0.875-0.547 0.049-0.028 0.096-0.057 0.142-0.084 2.328-1.354 4.98-2.291 7.809-2.184 1.334 0.049 2.563 0.416 3.57 1.051 0.048-0.16 0.101-0.319 0.164-0.484l0.551-1.383 0.742-0.078c7.812-0.81 13.802-1.407 20.602-1.717 0.42-0.019 0.85-0.037 1.28-0.055 0.59-0.022 1.18-0.045 1.79-0.064 0.17-0.005 0.34-0.012 0.51-0.018l0.25 0.004 1.74 0.016c0.12 0.017 0.24 0.035 0.35 0.06 0.78 0.158 1.52 0.519 2.16 1.071 0.05 0.053 0.12 0.116 0.2 0.187 0.3 0.29 1.53 1.517 1.87 1.863 0.48 0.497 0.86 1.103 1.12 1.799 0.3-0.25 0.6-0.489 0.91-0.721 0.35-0.262 0.7-0.507 1.05-0.744 0.06-0.043 0.13-0.089 0.19-0.132 0.02-0.014 0.24-0.155 0.41-0.266 0.15-0.094 0.3-0.183 0.46-0.272-5.26-12.45-17.59-21.187-31.956-21.187zm-9.955 46.66c-2.298 1.101-4.41 1.679-6.086 1.981-0.091 0.016-0.18 0.031-0.268 0.044-0.187 0.032-0.368 0.059-0.543 0.084-0.027 0.004-0.054 0.008-0.08 0.012-0.746 0.101-1.376 0.147-1.857 0.164-0.398 0.014-0.697 0.009-0.877 0-0.126-0.002-0.274-0.008-0.434-0.017-0.987-0.057-2.568-0.252-3.943-1.28-1.091 1.134-2.409 2.26-3.875 3.063-0.368 0.2-0.745 0.378-1.131 0.533-0.393 0.156-0.794 0.287-1.201 0.387 5.939 10.575 17.259 17.72 30.25 17.72 13.406 0 25.036-7.61 30.806-18.744-0.5 0.039-0.99 0.086-1.48 0.141-0.52 0.059-1.04 0.124-1.55 0.203-2.75 0.423-5.29 1.117-7.56 2.149-0.32 0.147-0.64 0.303-0.95 0.46-0.52 0.269-1.02 0.554-1.51 0.86-0.77 0.487-1.5 1.022-2.19 1.613l-1.02 0.877-1.29-0.387c-2.87-0.867-8.334-1.877-14.307-1.881-3.9 0-7.94 0.481-11.684 1.391l-0.669 0.162-2.458-2.455-0.324-0.826-0.451-1.145-0.424-1.076 0.854-0.545c0.224-0.142 0.448-0.275 0.67-0.414 0.733-0.452 1.465-0.889 2.201-1.302 1.124-0.634 2.252-1.229 3.381-1.772zm54.561 4.357c-6.67 18.177-24.12 31.144-44.606 31.144-16.706 0-31.397-8.625-39.863-21.669-0.254 0.354-0.525 0.703-0.811 1.047 1.794 2.704 3.869 5.249 6.215 7.594 9.204 9.203 21.443 14.278 34.459 14.278 21.086 0 39.086-13.466 45.856-32.245-0.42-0.051-0.84-0.101-1.25-0.149z" transform="translate(-130.72 478.22)" fill="#fff"/>
   <path d="m92.674 19.623c-15.56 0-28.669 10.686-32.379 25.104 0.167 0.092 0.331 0.19 0.484 0.302 0.27-0.132 0.548-0.27 0.825-0.406 1.223-4.521 3.412-8.644 6.324-12.144l3.037-0.61 0.828 1.022 1.383-3.789-0.817-1.008c5.542-4.515 12.61-7.229 20.315-7.229 8.286 0 15.846 3.136 21.546 8.281l-1.96-0.468-0.92 0.941 3.34 0.799-0.47 0.541 1.24 3.84 0.87-0.994-1.06-3.252 0.21-0.215c3.01 3.017 5.42 6.627 7.05 10.642 0.35-0.262 0.7-0.507 1.05-0.744-1.66-3.998-4.11-7.667-7.26-10.82-6.31-6.314-14.71-9.793-23.636-9.793zm-20.342 8.492l-1.164 3.188-0.484-0.532-1.528 0.309c0.989-1.06 2.052-2.046 3.176-2.965zm2.48 2.832l-1.505 3.086-0.426-0.58-4.018 0.383 0.783 1.059 3.399-0.321 0.715 1.102 1.771-3.627-0.719-1.102zm35.078 0.672l-0.82 1.031 3.41 0.45-0.42 0.586 1.35 3.033c0.17-0.004 0.34-0.01 0.51-0.016l0.25 0.004 0.29-0.408-1.39-3.123 0.82-1.031-4-0.526zm-32.921 2.438l-1.819 2.914-0.365-0.621-4.033-0.039 0.666 1.136 3.418 0.033 0.596 1.17 2.136-3.421-0.599-1.172zm30.871 0.734l-0.71 1.111 3.44 0.09-0.35 0.629 0.12 0.215c0.42-0.018 0.85-0.035 1.28-0.053l-0.45-0.773 0.7-1.112-4.03-0.107zm-29.049 2.58l-2.111 2.709-0.297-0.652-4.01-0.457 0.545 1.201 3.393 0.385 0.451 1.16 0.142-0.084 2.36-3.033-0.473-1.229zm-5.082 4.41l0.416 1.252 0.508 0.113c0.404-0.302 0.822-0.599 1.252-0.882l-2.176-0.483zm5.629 25.03l-2.705 0.209c-0.09 0.016-0.18 0.031-0.266 0.044-0.187 0.032-0.369 0.059-0.543 0.084-0.027 0.004-0.054 0.009-0.082 0.012l-0.551 1.104 1.946-0.151c0.733-0.452 1.466-0.887 2.201-1.302zm-6.764 0.496l1.606 2.793h-0.002l-0.703 1.113 3.013 0.08-0.451-1.145-1.258-0.031 0.352-0.629-1.246-2.166c-0.398 0.014-0.697 0.011-0.877 0.002-0.126-0.004-0.274-0.009-0.434-0.017zm-0.928 1.427l-0.755 1.077 1.384 3.121-0.816 1.035 4 0.523 0.818-1.033-3.406-0.447 0.412-0.586-1.637-3.69zm-6.89 0.356c-0.368 0.2-0.747 0.378-1.133 0.533 1.464 2.555 3.275 4.933 5.414 7.07 6.314 6.314 14.71 9.791 23.639 9.791 8.924 0 17.324-3.477 23.634-9.791 2.28-2.276 4.18-4.822 5.69-7.566-0.52 0.059-1.04 0.124-1.55 0.203-0.89 1.516-1.9 2.955-3.02 4.299l-3.05 0.611-0.82-1.021-1.38 3.791 0.81 1.008c-5.54 4.515-12.61 7.226-20.314 7.226-8.291 0-15.85-3.136-21.555-8.285l1.971 0.473 0.922-0.946-3.342-0.797 0.473-0.537-1.245-3.841-0.867 0.994 1.053 3.248-0.213 0.218c-1.982-1.987-3.707-4.232-5.117-6.681zm50.944 2.125l-2.81 0.264c-0.32 0.147-0.64 0.302-0.95 0.46-0.52 0.268-1.02 0.552-1.51 0.86l-0.61 1.262 0.72 1.101 1.5-3.088 0.43 0.58 4.01-0.381-0.78-1.058zm-1.52 3.592l0.48 0.531 1.53-0.309c-0.99 1.06-2.05 2.052-3.17 2.971l1.16-3.193z" transform="translate(-130.72 478.22)" fill="#861a10"/>
   <path d="m32.645 33.035c-14.173 0.306-19.74 6.895-20.143 12.748-0.185 2.69 0.74 5.122 2.318 6.643 0.929 0.894 2.086 1.472 3.377 1.603 1.237 0.127 2.408-0.246 3.323-0.951l-1.19 2.756-0.377 0.873c-4.085 0.44-7.853 1.973-10.678 4.363-3.0959 2.623-4.7995 6.051-4.7945 9.647 0.005 3.916 1.5538 7.615 4.3613 10.418 2.5612 2.554 7.3882 5.6 15.826 5.588 18.122-0.022 27.946-9.333 28.285-18.514 0.07-1.909-0.116-3.688-0.553-5.301 1.705-2.247 3.418-4.91 4.549-7.074 0.418-0.09 0.862-0.221 1.336-0.395-0.702 1.09-1.836 2.848-1.836 2.848-1.119 1.636-1.951 3.858-1.707 5.69 0.006 0.042 0.013 0.083 0.02 0.123 0.013 0.087 0.03 0.174 0.049 0.257 0.011 0.049 0.022 0.098 0.035 0.145 0.02 0.077 0.044 0.156 0.07 0.232 0.015 0.044 0.029 0.089 0.045 0.131 0.042 0.116 0.09 0.232 0.146 0.342 0.037 0.07 0.078 0.142 0.122 0.215 0.002 0.005 0.006 0.01 0.009 0.014 0.148 0.245 0.34 0.494 0.594 0.728 0.586 0.54 1.491 0.989 2.889 1.039 3.236 0.124 6.24-2.607 8.066-4.715 1.373 1.705 3.461 1.785 4.483 1.823 1.333 0.051 7.896-0.056 15.142-6.29 0.181 0.647 0.479 1.211 0.885 1.686 0.952 1.116 2.491 1.722 4.576 1.801 2.803 0.106 5.251-0.811 7.449-2.787 0.948 0.948 2.238 1.613 3.758 1.916-3.957 0.483-7.854 1.268-11.543 2.353-1.486 0.439-2.942 0.922-4.349 1.459-3.719 1.42-7.123 3.247-10.059 5.117l0.734 1.866c3.944-0.959 8.089-1.424 11.973-1.42 6.259 0 11.834 1.07 14.664 1.926l0.64 0.193 0.51-0.438c11.25-9.658 33.21-5.637 54.73-0.689 11.4 2.62 17.04 1.775 18.28-2.736 0.3-1.112 0.05-2.471-0.69-3.731-0.41-0.696-1.04-1.488-2.01-2.277 0-0.006-0.01-0.012-0.02-0.018-0.13-0.106-0.26-0.209-0.4-0.314-0.01-0.005-0.02-0.012-0.02-0.016-0.13-0.095-0.27-0.191-0.41-0.283-0.04-0.025-0.08-0.049-0.11-0.074-0.13-0.087-0.27-0.171-0.41-0.256-0.05-0.031-0.1-0.064-0.16-0.098-0.14-0.077-0.28-0.158-0.42-0.238-0.06-0.034-0.13-0.065-0.19-0.098-0.12-0.063-0.25-0.126-0.37-0.187-0.09-0.043-0.18-0.084-0.27-0.125-0.12-0.062-0.26-0.122-0.39-0.182-0.08-0.032-0.15-0.064-0.22-0.096-0.18-0.072-0.35-0.143-0.53-0.213-0.08-0.03-0.16-0.058-0.24-0.089-0.47-0.174-0.97-0.343-1.51-0.498-0.38-2.127-2.04-4.951-3.1-6.786-0.26-0.447-0.49-0.869-0.69-1.269 0.34 0.135 0.72 0.22 1.1 0.232 0.9 0.034 1.76-0.285 2.43-0.9 0.66-0.614 1.04-1.448 1.08-2.352 0.04-1.198-0.39-2.258-1.21-3.103-1.2-1.249-3.23-2.039-5.79-2.135-2.02-0.075-3.99 0.772-5.41 2.166-0.78 0.775-1.4 1.713-1.75 2.766-3.19 4.127-5.15 5.836-6.24 6.541 0.29-0.486 0.72-1.151 1.39-2.041 0.33-0.444 0.88-0.99 1.45-1.569 1.68-1.698 3.78-3.811 3.61-6.277-0.07-0.941-0.45-1.768-1.12-2.41-0.1-0.095-0.2-0.186-0.31-0.274-2.25-1.766-6.38-1.349-7.79-1.146-0.15-0.45-0.4-0.866-0.73-1.225-0.63-0.68-1.48-1.07-2.4-1.105-1.81-0.069-3.48 0.811-4.58 2.412-0.3 0.442-0.55 0.916-0.73 1.41-0.55-1.272-2.11-3.385-6.44-3.869-3.63-0.407-8.1 1.559-11.96 5.264-0.98 0.936-1.84 1.92-2.58 2.918 0.42-1.682 0.62-3.311 0.51-4.754-0.12-1.431-0.62-2.421-1.28-3.065-0.68-0.661-1.52-0.957-2.28-0.984-0.12-0.005-0.23-0.004-0.35 0.008-0.42 0.022-0.82 0.12-1.2 0.283l0.15-0.35c-8.33 0.419-15.986 1.065-24.205 1.918l-0.275 0.694c-0.796 1.992 0.451 2.853 1.033 3.187l-0.221 0.494-0.683 1.535c0.007-0.245 0.005-0.488-0.014-0.73-0.085-1.116-0.553-2.078-1.301-2.807-0.897-0.875-2.197-1.417-3.74-1.474-4.626-0.175-9.247 2.888-12.783 6.568-0.689 0.716-1.338 1.456-1.936 2.199 0.429-0.912 0.541-1.571 0.571-2.384 0.031-0.84-0.265-1.564-0.84-2.081-0.019-0.015-0.033-0.028-0.049-0.044-0.08-0.068-0.163-0.133-0.252-0.192-1.434-0.961-3.816-0.616-5.422 0.115-0.867 0.394-2.296 1.104-3.367 1.645-0.63-0.699-1.516-1.123-2.475-1.123-0.787 0-1.68 0.369-2.543 1.029-0.258 0.196-0.514 0.421-0.761 0.668-1.492 1.491-2.346 3.422-2.346 5.301 0 0.694 0.098 1.282 0.299 1.773-0.943 1.56-1.967 2.923-2.754 3.901-0.403-0.529-0.834-1.013-1.277-1.467-0.623-0.636-1.275-1.206-1.93-1.721 4.326-2.002 6.842-5.347 6.992-9.416 0.084-2.272-0.995-4.663-3.066-6.73-3.054-3.054-8.273-5.405-15.129-5.658-1.023-0.038-2.007-0.046-2.951-0.026zm0.916 5.467c0.645-0.011 1.279-0.005 1.892 0.018 3.763 0.138 6.943 1.669 8.24 3.724 0.427 0.678 0.648 1.409 0.619 2.168-0.101 2.76-3.351 4.947-7.531 5.27-0.519 0.04-1.051 0.053-1.593 0.033l-0.959-0.045 3.294-7.621-13.75 1.392-1.074 0.108-0.285 0.66c-0.37 0.846-0.412 1.505-0.287 2.023-0.521-0.578-1.17-1.008-1.889-1.261 0.081-1.114 0.522-2.072 1.33-2.918 2.411-2.519 7.476-3.473 11.993-3.551zm68.079 1.119c-0.58 1.808 0.61 2.634 1.12 2.949l-3.24 7.364c-2.502 5.15-3.948 6.068-4.625 6.117-0.005-0.315 0.105-1.13 0.908-2.942l5.837-13.488zm10.41 2.9c0.3 0.85 0.92 1.543 1.72 1.942 0.05 0.024 0.1 0.053 0.15 0.074-0.04 0.523-0.17 1.223-0.46 2.143-0.84 2.641-2.14 4.857-3.38 6.312-1.02 1.193-1.98 1.876-2.59 1.854-0.14-0.006-0.2-0.029-0.21-0.037-0.14-0.182-0.11-1.118 0.34-2.067l4.43-10.221zm20.7 0.493c0.13 0.009 0.18 0.037 0.19 0.041 0.11 0.145 0.12 0.952-0.53 2.113-0.98 1.785-2.9 3.479-5.3 3.914 2.12-3.786 4.5-6.15 5.64-6.068zm-50.113 2.343c-0.079 0.533-0.357 1.444-1.084 2.594-0.57 0.903-1.933 2.727-4.151 3.817 0.787-1.362 1.687-2.694 2.577-3.813 1.252-1.574 2.15-2.3 2.658-2.598zm56.813 1.549c0.02 0.048 0.04 0.097 0.06 0.145 0.15 0.345 0.34 0.654 0.57 0.929-3.36 3.938-9.86 8.138-13.92 7.959-0.94-0.041-1.29-0.154-1.42-0.207-0.01-0.107-0.03-0.297-0.03-0.377-0.03-0.281 0.07-0.872 0.36-1.763 6.36 0.769 10.91-1.759 13.1-4.496 0.56-0.702 0.99-1.44 1.28-2.19zm4.58 3.617c-1.46 2.005-2.85 4.474-3.05 6.76-0.06 0.694-0.02 1.374 0.17 2.014 0.16 0.58 0.49 1.244 1.09 1.848 0.02 0.018 0.04 0.037 0.05 0.054 0.01 0.006 0.02 0.013 0.02 0.02 0.65 0.62 1.61 1.167 3.03 1.484 4.85 1.083 9.43-3.34 12.74-7.885 0.46 0.754 1 1.45 1.53 2.131 0.08 0.098 0.15 0.2 0.23 0.297 0.35 0.449 0.7 0.885 1.01 1.322-2.97 0.504-4.8 1.99-5 4.166-0.1 1.057 0.25 2.067 0.99 2.92 0.16 0.173 0.32 0.334 0.5 0.491-0.82-0.203-1.7-0.419-2.63-0.643-0.07-0.019-0.15-0.037-0.22-0.055-0.17-0.04-0.33-0.08-0.5-0.121-1.16-0.277-2.41-0.568-3.72-0.863-1.85-0.42-3.85-0.849-5.96-1.268-3.24-0.645-6.75-1.264-10.44-1.787-1.79-0.254-3.63-0.485-5.49-0.685 4.66-0.973 10.79-3.783 15.65-10.2zm-57.93 1.569c-5.994 6.044-9.528 6.907-11.161 6.846-0.037 0-0.06-0.007-0.078-0.008-0.046-0.123-0.162-0.612 0.164-1.842 3.29-0.368 7.927-2.27 11.075-4.996zm29.44 1.443c-0.04 0.408-0.04 0.804-0.02 1.186 0.06 0.851 0.27 1.632 0.61 2.336 0.63 1.277 1.69 2.294 3.14 2.994-2.03-0.082-4.01-0.104-5.95-0.08-1.72 0.024-3.41 0.085-5.06 0.191 1.62-0.642 3.21-1.746 4.7-3.291 0.94-0.982 1.81-2.118 2.58-3.336zm-84.499 3.496c4.373 0.373 7.712 2.31 9.752 4.84 1.481 1.836 2.279 3.982 2.281 6.07 0 1.558-0.65 3.762-2.158 5.924-0.759 1.09-1.732 2.169-2.953 3.153 0.762-1.702 1.183-3.618 1.183-5.606-0.003-3.651-1.533-7.102-4.148-9.76-0.747-0.758-1.584-1.455-2.5-2.07-0.645-0.434-1.327-0.828-2.047-1.18l0.59-1.371zm-8.641 4.992c3.047-0.004 5.696 1.362 7.02 3.356 0.571 0.862 0.897 1.842 0.898 2.881 0.002 0.74-0.159 1.455-0.478 2.138-0.318-0.047-0.641-0.07-0.965-0.07-1.754 0.001-3.397 0.685-4.635 1.926-1.237 1.24-1.916 2.887-1.914 4.639 0.002 1.631 0.596 3.131 1.592 4.281-2.945-0.111-5.447-0.904-7.326-2.319-0.246-0.185-0.482-0.38-0.707-0.587-1.859-1.715-2.886-4.134-2.891-6.813-0.006-5.191 4.211-9.422 9.406-9.432zm147.76 2.01c0.9 0.505 1.78 1.246 1.7 2.188-0.04 0.401-0.14 0.822-0.64 1.179-0.61 0.444-2.09 0.975-5.57 0.551 1.28-0.316 2.44-0.977 3.28-1.84v-0.002c0.6-0.615 1.02-1.315 1.23-2.076z" transform="translate(-130.72 478.22)" fill="#fff"/>
   <path d="m33.188 34.254c-23.579 0.228-21.915 17.836-14.868 18.551 1.894 0.192 3.584-1.189 3.776-3.082 0.193-1.894-1.189-3.583-3.082-3.776-0.563-6.951 9.047-8.928 16.486-8.656 5.521 0.203 10.187 3.242 10.043 7.166-0.139 3.733-4.568 6.701-10.4 6.486-0.849-0.031-2.056-0.097-2.748-0.132l3.167-7.331-12.025 1.217c-1.174 2.702 2.268 1.523 1.272 3.858l-4.016 9.304c-8.471 0.628-15.092 6.147-15.086 12.856 0.0125 7.704 6.46 14.793 18.955 14.779 17.731-0.024 26.749-8.881 27.063-17.332 0.078-2.137-0.178-3.95-0.678-5.512 1.992-2.555 3.98-5.692 5.092-7.929 1.375-0.143 3.341-0.977 5.945-2.692-1.383 1.83-3.834 5.758-4.619 6.95-1.661 2.431-2.893 6.836 1.301 6.996 3.612 0.136 7.14-4.236 8.238-5.727 0.767 2.571 2.765 2.778 4.312 2.834 1.797 0.069 8.756-0.294 16.163-7.736-0.343 2.881 0.716 4.792 4.441 4.933 2.121 0.079 4.807-0.436 7.531-3.416 0.859 1.6 2.799 2.63 5.199 2.721 7.48 0.281 13.64-11.111 13.15-17.52-0.15-1.946-1.18-2.873-2.38-2.919-0.07-0.001-0.15 0.001-0.22 0.007-1.14 0.062-2.06 0.981-2.11 2.141-0.04 1.201 0.87 2.211 2.05 2.305 0.09 0.813-0.02 1.932-0.51 3.453-1.46 4.624-4.79 9.113-7.18 9.023-2.04-0.077-1.55-2.579-0.93-3.863l5.63-12.998-9.27 0.576c-0.87 2.171 1.89 1.407 1.08 3.113l-3.33 7.549c-1.964 4.055-3.92 6.904-5.874 6.83-1.526-0.057-1.359-1.778-0.08-4.658l5.464-12.65-9.41 0.953c-0.865 2.174 1.926 1.307 1.114 3.023l-3.289 7.354c-2.349 2.543-8.611 9.051-13.664 8.861-1.574-0.059-1.599-1.86-0.797-4.244 4.838-0.108 14.84-4.936 14.385-10.867-0.132-1.704-1.484-3.056-3.862-3.149-7.356-0.276-15.111 8.761-17.299 14.088-0.757 1.02-3.15 3.938-4.392 3.893-0.684-0.025-0.501-1.087 0.461-2.424l4.314-6.598c1.369-2.083 1.545-2.792 1.586-3.849 0.076-2.073-3.009-1.864-4.826-1.037-1.183 0.536-3.457 1.691-4.326 2.134-0.293-0.846-1.077-1.502-2.024-1.502-1.577 0-4.423 2.694-4.423 5.77 0 0.769 0.136 1.373 0.5 1.779-1.6 2.795-3.552 5.098-4.29 5.928-1.43-2.421-3.517-4.11-5.644-5.549 4.039-1.297 8.125-4.18 8.307-9.133 0.183-4.937-6.428-10.728-17.012-11.117-0.814-0.03-1.601-0.04-2.361-0.033zm99.062 5.463c-7-0.153-15.92 9.044-15.5 14.918 0.34 4.761 5.85 5.207 7.32 5.271 3.61 0.159 13.28-1.557 20-11.609 1.28-0.001 2.76-0.312 4.23-0.811-4.59 4.559-9.65 12.465-2.7 14.016 4.86 1.085 9.72-4.653 12.65-9.102 1 2.77 3.48 4.721 4.68 7.213-3.42 0.069-5.67 1.229-5.86 3.237-0.23 2.566 3.38 4.026 6.16 4.146 2.55 0.109 5.78-1.119 6.05-4.721 2.23 0.83 3.96 2.222 3.8 4.053-0.1 1.149-0.75 4.734-12.06 1.998-12.92-3.129-55.63-15.255-82.178 1.641 11.019-2.508 22.008-0.413 26.008 0.793 11.74-10.071 34.29-5.899 55.81-0.951 14.28 3.281 16.25 0.19 16.81-1.87 0.49-1.77-1.02-5.613-8.24-7.482-0.35-2.51-1.81-4.877-2.81-6.625-0.94-1.696-1.79-3.037-1.9-4.637-0.03-0.412 0.36-1.216 1.13-1.474-0.04 0.152-0.06 0.31-0.07 0.472-0.05 1.187 0.88 2.185 2.07 2.233 1.18 0.044 2.18-0.884 2.23-2.071 0.09-2.563-2.79-3.849-5.82-3.964-2.64-0.1-5.26 1.738-6.01 4.283-6.16 8.026-8.27 7.781-8.77 7.65-0.85-0.221-0.1-1.889 1.83-4.469 1.36-1.808 5.01-4.359 4.82-7.023-0.23-3.259-5.66-3.065-8.1-2.65-0.35 0.058-0.66 0.073-0.94 0.058 0.01-0.037 0.01-0.074 0.01-0.113 0.05-1.231-0.91-2.264-2.14-2.311-3.38-0.126-5.31 4.002-4.12 6.748 0.24 0.562 0.63 0.971 1.15 1.248-3.15 4.292-10.64 9.573-15.68 9.354-2.44-0.105-2.56-0.698-2.63-1.723-0.05-0.705 0.24-1.861 0.77-3.213 13.57 2.343 19.9-11.21 8.67-12.468-0.22-0.025-0.44-0.04-0.67-0.045zm0.59 2.07c3.76 0.269-0.6 9.369-7.79 8.586 1.96-4.071 5.32-8.758 7.79-8.586zm-49.723 2.164c2.421 0.089-0.985 8.855-8.156 9.83 2.116-4.571 6.121-9.905 8.156-9.83zm-52.859 11.801c8.986 0.341 14.038 6.617 14.047 12.187 0.003 4.077-3.472 10.578-11.596 13.26 3.085-1.72 5.213-5.455 5.209-9.783-0.008-5.502-3.728-10.24-9.078-12.385l1.418-3.279zm-7.86 5.045c5.064-0.006 9.147 3.33 9.153 7.459 0 1.279-0.393 2.484-1.084 3.539-0.504-0.156-1.039-0.24-1.592-0.238-2.944 0.003-5.322 2.391-5.322 5.334 0.006 2.756 2.1 5.018 4.781 5.293-1.154 0.151-2.377 0.232-3.672 0.232-8.444 0.01-12.888-5.017-12.894-10.961-0.01-5.881 4.753-10.649 10.63-10.658zm141.11 0.629c0.1 0.652 0.11 1.344-0.03 2.101-0.33 1.853-3.88 1.201-3.66-0.443 0.15-1.053 1.78-1.554 3.69-1.658z" transform="translate(-130.72 478.22)" fill="#001851"/>
   <path d="m92.701 8.4727l-3.498 0.1269 0.004 0.1621c0.123 0.0088 0.268 0.0325 0.275 0.125 0.002 0.08-2.046 6.0553-2.154 6.3693-0.074 0.216-0.153 0.273-0.34 0.32l0.008 0.16 2.371-0.086-0.008-0.162c-0.186 0.008-0.241-0.044-0.248-0.123 0-0.081 0.074-0.259 0.385-1.25l3.176-0.115c0.059 0.171 0.499 1.136 0.5 1.189 0.001 0.079-0.061 0.148-0.25 0.168l0.008 0.163 2.634-0.098-0.002-0.158c-0.162 0.005-0.247-0.072-0.392-0.389-0.904-2.005-2.695-5.9504-2.701-6.0566-0.008-0.1326 0.089-0.1648 0.236-0.1836l-0.004-0.1621zm5.891 0.2343l-0.035 0.1563c0.322 0.1012 0.342 0.2014 0.312 0.3164l-0.795 3.5063c-0.522 2.298 0.915 3.42 2.916 3.875 2 0.453 3.78 0.061 4.3-2.239l0.79-3.504c0.03-0.118 0.09-0.198 0.42-0.152l0.04-0.156-2.69-0.6116-0.04 0.1566c0.32 0.1 0.34 0.203 0.31 0.318l-0.79 3.502c-0.23 1.009-0.92 1.277-1.97 1.039-1.04-0.236-1.552-0.778-1.32-1.783l0.79-3.506c0.03-0.1176 0.09-0.1979 0.42-0.1504l0.03-0.1582-2.688-0.6094zm-14.613 0.2422l-2.133 0.7246 0.052 0.1524c0.14-0.0063 0.289-0.0275 0.34 0.125 0.054 0.1638 0.023 3.6588 0.076 4.3188l-0.025 0.007c-0.462-0.778-2.369-3.483-2.394-3.558-0.045-0.128 0.05-0.186 0.15-0.264l-0.053-0.154-3.021 1.027 0.052 0.152c0.11-0.008 0.283-0.04 0.331 0.1 0.043 0.128 0.131 3.269 0.15 4.322l-0.024 0.006c-0.667-0.92-2.529-3.36-2.574-3.5-0.047-0.137 0.056-0.202 0.199-0.279l-0.048-0.15-2.323 0.785 0.049 0.156c0.039-0.016 0.117 0.002 0.176 0.094 0.139 0.208 3.99 5.255 4.018 5.345 0.058 0.164-0.048 0.227-0.178 0.299l0.051 0.154 2.742-0.929-0.051-0.153c-0.165 0.055-0.308 0.016-0.342-0.084-0.076-0.227-0.081-3.282-0.16-4.896l0.025-0.01c1.049 1.541 2.589 3.622 2.725 4.03 0.034 0.101-0.022 0.176-0.193 0.261l0.05 0.153 2.643-0.895-0.051-0.152c-0.12 0.025-0.265 0.062-0.316-0.092-0.053-0.15 0.008-6.4002-0.027-6.629-0.019-0.1337 0.009-0.2582 0.134-0.3144l-0.05-0.1524zm6.888 0.8516l1.418 3.1402-2.492 0.09 1.074-3.2302zm19.803 2.3162l-0.08 0.141c0.29 0.186 0.28 0.287 0.22 0.392l-2.99 5.485c-0.06 0.105-0.14 0.168-0.44 0.033l-0.08 0.141 2.42 1.32 0.08-0.141c-0.28-0.185-0.27-0.287-0.22-0.392l0.77-1.41 1.72-0.409c0.02 0.389 0.34 3.25 0.26 3.391-0.08 0.152-0.17 0.109-0.31 0.031l-0.07 0.141 2.69 1.471 0.08-0.143c-0.15-0.083-0.25-0.134-0.28-0.397l-0.44-4.894 2.99-0.645c0.44-0.098 0.54-0.16 0.87-0.015l0.07-0.143-2.98-1.629-0.08 0.141c0.12 0.082 0.2 0.128 0.12 0.269-0.07 0.129-2.05 0.516-3.49 0.922l-0.08-0.047 1.15-2.117c0.06-0.106 0.14-0.17 0.45-0.031l0.07-0.141-2.42-1.324zm-43.576 4.455l-2.28 1.553 0.088 0.135c0.294-0.166 0.38-0.114 0.448-0.014l3.519 5.162c0.068 0.099 0.085 0.198-0.174 0.41l0.09 0.133 5.781-3.939c0.12-0.084 0.201-0.06 0.395 0.15l0.131-0.09-1.326-1.949-0.133 0.09c0.14 0.28 0.134 0.364 0.012 0.445l-3.811 2.598-2.822-4.141c-0.068-0.102-0.09-0.203 0.172-0.412l-0.09-0.131zm53.616 1.694l-0.11 0.115c0.22 0.25 0.19 0.347 0.11 0.433l-4.28 4.553c-0.08 0.089-0.18 0.129-0.44-0.082l-0.11 0.117 4.88 4.58c0.1 0.103 0.09 0.186-0.03 0.379l0.12 0.112 1.59-1.7-0.11-0.113c-0.26 0.219-0.35 0.232-0.45 0.129l-3.14-2.945 0.86-0.906 1.81 1.705c0.2 0.183 0.17 0.346 0.08 0.5l0.12 0.111 1.43-1.524-0.12-0.109c-0.14 0.098-0.31 0.132-0.5-0.053l-1.82-1.707 0.77-0.808 3.13 2.943c0.11 0.101 0.1 0.187-0.08 0.44l0.12 0.109 1.59-1.697-0.11-0.112c-0.25 0.197-0.33 0.209-0.44 0.108l-4.87-4.578zm-58.985 2.713l-1.928 1.98 0.119 0.111c0.251-0.218 0.345-0.184 0.432-0.097l4.474 4.355c0.085 0.084 0.126 0.179-0.088 0.438l0.116 0.113 1.927-1.979-0.117-0.113c-0.255 0.221-0.35 0.184-0.435 0.102l-4.473-4.36c-0.088-0.085-0.128-0.177 0.088-0.437l-0.115-0.113zm-4.801 5.111l-1.889 3.103 0.139 0.084c0.122-0.176 0.236-0.234 0.375-0.15 0.149 0.091 0.954 1.426 1.767 2.641-0.38-0.075-3.037-0.371-3.119-0.418-0.138-0.084-0.138-0.209-0.037-0.399l-0.139-0.084-1.814 2.99 0.137 0.084c0.197-0.273 0.3-0.259 0.402-0.197l5.338 3.242c0.101 0.062 0.162 0.144 0.01 0.446l0.138 0.084 1.227-2.016-0.141-0.086c-0.195 0.273-0.296 0.26-0.4 0.197l-4.283-2.601 0.011-0.024 5.717 0.711-3.209-4.738 0.037-0.01 4.215 2.559c0.104 0.062 0.163 0.145 0.012 0.445l0.141 0.086 1.388-2.291-0.138-0.084c-0.197 0.273-0.296 0.257-0.399 0.195l-5.34-3.24c-0.102-0.062-0.164-0.146-0.011-0.445l-0.135-0.084zm71.436 0.082l-0.13 0.088c0.16 0.295 0.1 0.381 0 0.447l-5.26 3.371c-0.1 0.064-0.2 0.083-0.4-0.185l-0.14 0.087 3.61 5.629c0.08 0.124 0.06 0.205-0.11 0.362l0.08 0.136 1.96-1.257-0.08-0.139c-0.3 0.146-0.39 0.139-0.47 0.014l-2.32-3.62 1.04-0.673 1.35 2.097c0.14 0.228 0.08 0.379-0.04 0.506l0.09 0.135 1.75-1.129-0.08-0.135c-0.17 0.06-0.33 0.052-0.48-0.172l-1.35-2.097 0.94-0.604 2.32 3.621c0.08 0.127 0.06 0.207-0.18 0.407l0.08 0.136 1.97-1.259-0.09-0.137c-0.28 0.135-0.36 0.125-0.44 0l-3.62-5.629zm-94.799 12.328c-4.517 0.078-9.582 1.033-11.993 3.553-0.808 0.845-1.248 1.803-1.33 2.916 0.719 0.255 1.368 0.684 1.889 1.261-0.125-0.517-0.083-1.175 0.287-2.021l0.285-0.66 1.074-0.11c2.932-2.558 8.793-3.306 13.465-3.134 2.558 0.093 4.842 0.833 6.453 1.939h0.002c-1.297-2.055-4.477-3.587-8.24-3.724-0.613-0.023-1.247-0.031-1.892-0.02zm17.164 0.217c2.071 2.069 3.149 4.457 3.064 6.73-0.149 4.069-2.664 7.416-6.99 9.418 0.655 0.515 1.307 1.084 1.93 1.719 1.557-0.743 2.877-1.659 3.931-2.723 0.029 0.102 0.064 0.198 0.1 0.291-0.201-0.491-0.301-1.079-0.301-1.773 0-1.88 0.856-3.812 2.348-5.303 0.247-0.249 0.503-0.47 0.761-0.666-0.003 0.002-0.008 0.004-0.011 0.006-0.17-2.024-1.224-4.095-3.051-5.918-0.294-0.292-1.469-1.471-1.768-1.769-0.004-0.003-0.008-0.009-0.013-0.012zm67.025 0.187c0.66 0.644 1.16 1.634 1.27 3.065 0.11 1.442-0.07 3.074-0.5 4.754 0.74-0.998 1.6-1.982 2.58-2.918-0.09 0.088-0.18 0.179-0.28 0.267 0-0.105 0-0.213-0.01-0.318-0.11-1.381-0.58-2.351-1.2-2.996-0.33-0.335-1.55-1.554-1.85-1.844 0-0.004-0.01-0.006-0.01-0.01zm-16.11 0.717l-5.837 13.488c-0.804 1.812-0.913 2.627-0.908 2.944 0.676-0.049 2.125-0.97 4.626-6.121l3.239-7.362c-0.51-0.315-1.7-1.141-1.12-2.949zm-64.117 2.426l-3.296 7.621 0.961 0.047c0.542 0.02 1.073 0.007 1.593-0.033l2.526-5.85-1.784-1.785zm50.879 0.103c0.748 0.729 1.217 1.691 1.303 2.807 0.018 0.244 0.021 0.485 0.014 0.731l0.683-1.534c-0.34-0.38-1.675-1.688-1.984-1.994-0.004-0.003-0.012-0.006-0.016-0.01zm67.638 0.188c0.67 0.644 1.05 1.469 1.12 2.41 0.17 2.466-1.92 4.58-3.61 6.277-0.57 0.58-1.12 1.124-1.45 1.569-0.67 0.89-1.1 1.555-1.39 2.043 1.09-0.707 3.05-2.416 6.24-6.543 0.35-1.052 0.97-1.993 1.75-2.768-0.01 0.011-0.02 0.022-0.03 0.029-0.18-0.428-0.44-0.817-0.77-1.16-0.12-0.121-1.53-1.532-1.84-1.84 0-0.006-0.01-0.011-0.02-0.017zm-43.99 0.183l-4.43 10.221c-0.45 0.949-0.48 1.885-0.34 2.067 0.01 0.009 0.07 0.032 0.21 0.037 0.61 0.022 1.57-0.66 2.59-1.854l3.69-8.529c-0.8-0.399-1.42-1.092-1.72-1.942zm20.7 0.493c-1.14-0.082-3.52 2.282-5.64 6.068 2.4-0.435 4.32-2.13 5.3-3.914 0.65-1.163 0.64-1.968 0.53-2.113-0.01-0.004-0.06-0.033-0.19-0.041zm-63.375 1.73c0.089 0.059 0.172 0.124 0.252 0.192-0.08-0.065-0.162-0.133-0.252-0.192zm0.301 0.235c0.575 0.516 0.871 1.242 0.84 2.082-0.03 0.812-0.142 1.47-0.571 2.382 0.598-0.743 1.247-1.481 1.936-2.197-0.091-0.137-0.197-0.267-0.317-0.387s-1.491-1.496-1.806-1.804c-0.026-0.027-0.056-0.051-0.082-0.076zm100.22 0.318c0.82 0.845 1.25 1.903 1.21 3.103-0.04 0.903-0.42 1.738-1.08 2.35-0.67 0.615-1.53 0.936-2.43 0.902-0.38-0.013-0.75-0.096-1.1-0.232 0.21 0.4 0.43 0.821 0.69 1.268 1.07 1.836 2.72 4.661 3.1 6.789 0.54 0.155 1.04 0.321 1.51 0.496-0.03-0.013-0.06-0.024-0.09-0.037-0.63-1.903-1.95-4.063-2.73-5.459-0.26-0.453-0.49-0.872-0.69-1.272 0.34 0.136 0.71 0.218 1.1 0.231 0.9 0.035 1.76-0.283 2.42-0.897 0.66-0.615 1.05-1.45 1.08-2.351 0.05-1.244-0.42-2.331-1.29-3.194-0.28-0.285-1.39-1.383-1.7-1.697zm-87.263 0.06c-0.508 0.298-1.407 1.025-2.66 2.6-0.89 1.118-1.788 2.447-2.575 3.809 2.218-1.09 3.581-2.912 4.151-3.815 0.727-1.15 1.005-2.061 1.084-2.594zm56.813 1.547c-0.29 0.75-0.72 1.491-1.28 2.194-2.19 2.736-6.74 5.263-13.1 4.494-0.29 0.89-0.39 1.482-0.36 1.763 0 0.08 0.01 0.269 0.03 0.377 0.13 0.052 0.48 0.166 1.42 0.207 4.06 0.178 10.56-4.021 13.92-7.959-0.23-0.275-0.42-0.584-0.57-0.927-0.02-0.048-0.04-0.1-0.06-0.149zm4.58 3.619c-4.86 6.417-10.99 9.226-15.65 10.2 1.86 0.2 3.7 0.431 5.49 0.685 2.3-0.882 4.74-2.207 7.11-4.125 0.21-2.286 1.59-4.755 3.05-6.76zm-57.93 1.569c-3.147 2.726-7.783 4.628-11.073 4.996-0.327 1.23-0.212 1.719-0.166 1.842 0.018 0.001 0.039 0.006 0.077 0.006 1.632 0.062 5.168-0.8 11.162-6.844zm-71.28 0.332c0.375 0.372 1.437 1.438 1.727 1.726 0.94 0.928 2.115 1.529 3.433 1.664 0.118 0.01 0.235 0.02 0.352 0.02l1.188-2.758c-0.915 0.705-2.088 1.078-3.325 0.951-1.291-0.131-2.446-0.709-3.375-1.603zm100.72 1.111c-0.77 1.219-1.64 2.352-2.58 3.334-1.49 1.546-3.08 2.65-4.7 3.291 1.65-0.105 3.34-0.168 5.06-0.191 0.49-0.395 0.96-0.833 1.42-1.313 0.48-0.505 0.95-1.047 1.39-1.617-0.34-0.698-0.55-1.473-0.61-2.318-0.02-0.382-0.02-0.778 0.02-1.186zm42.54 1.283c-3.31 4.545-7.89 8.968-12.74 7.885-1.42-0.316-2.38-0.865-3.03-1.484 0.36 0.357 1.41 1.407 1.71 1.707 0.09 0.09 0.19 0.179 0.29 0.269 2.11 0.418 4.11 0.848 5.96 1.268 3.54-0.814 6.8-4.089 9.34-7.514-0.53-0.68-1.07-1.377-1.53-2.131zm-99.795 0.621c-0.474 0.175-0.916 0.305-1.334 0.395-1.132 2.164-2.845 4.825-4.549 7.074 0.435 1.611 0.621 3.392 0.551 5.301-0.337 9.181-10.164 18.492-28.287 18.514-8.436 0.013-13.263-3.034-15.824-5.588 0.2835 0.281 1.486 1.485 1.785 1.785 2.562 2.554 7.386 5.598 15.826 5.586 18.124-0.023 27.949-9.329 28.285-18.512 0.07-1.909-0.115-3.69-0.552-5.303 0.183-0.243 0.368-0.492 0.55-0.742 0.002 0.009 0.004 0.018 0.006 0.028-0.244-1.833 0.588-4.054 1.705-5.692 0 0 1.137-1.754 1.838-2.846zm-27.244 1.592l-0.59 1.371c0.72 0.35 1.402 0.746 2.047 1.18v-0.002l0.328-0.762c3.27 0.278 5.962 1.433 7.967 3.053-2.04-2.53-5.379-4.467-9.752-4.84zm55.371 0.99c-7.245 6.233-13.809 6.341-15.142 6.29-1.022-0.039-3.112-0.119-4.485-1.823-1.826 2.107-4.827 4.836-8.062 4.713-1.399-0.05-2.305-0.496-2.891-1.037 0.361 0.359 1.458 1.477 1.758 1.76 0.585 0.551 1.497 1.009 2.916 1.064 3.235 0.123 6.238-2.608 8.064-4.717 1.373 1.708 3.464 1.788 4.487 1.827 1.303 0.048 7.633-0.058 14.705-5.928 0.238 0.205 1.471 1.494 1.552 1.576 0.574 0.565 1.319 0.979 2.233 1.236-0.005 0.002-0.007 0.005-0.01 0.008 3.69-1.085 7.586-1.87 11.543-2.353-1.52-0.304-2.81-0.969-3.758-1.916v-0.002c-2.198 1.976-4.646 2.895-7.449 2.789-2.084-0.079-3.624-0.687-4.576-1.803-0.406-0.475-0.704-1.039-0.885-1.684zm85.628 2.041c0.18 0.072 0.35 0.142 0.53 0.213-0.18-0.071-0.35-0.141-0.53-0.213zm0.75 0.309c0.13 0.06 0.27 0.119 0.39 0.18-0.12-0.061-0.26-0.12-0.39-0.18zm0.66 0.307c0.13 0.061 0.25 0.125 0.37 0.187-0.12-0.062-0.24-0.126-0.37-0.187zm0.56 0.285c0.14 0.08 0.28 0.161 0.42 0.238-0.14-0.077-0.28-0.158-0.42-0.238zm0.58 0.336c0.14 0.085 0.28 0.169 0.41 0.256-0.13-0.087-0.27-0.171-0.41-0.256zm0.52 0.33c0.14 0.092 0.28 0.188 0.41 0.283-0.13-0.095-0.27-0.191-0.41-0.283zm-140.11 0.021c2.615 2.659 4.145 6.111 4.148 9.762 0 1.988-0.421 3.904-1.183 5.604 1.221-0.983 2.192-2.063 2.951-3.153 0.01-0.218 0.018-0.441 0.018-0.662-0.008-3.644-1.524-7.09-4.127-9.742-0.332-0.341-1.539-1.536-1.807-1.809zm140.54 0.278c0.14 0.103 0.27 0.207 0.4 0.312-0.13-0.105-0.26-0.209-0.4-0.312zm-153.14 0.095c-5.195 0.01-9.412 4.239-9.406 9.43 0.005 2.679 1.032 5.098 2.891 6.813 0.224 0.206 0.461 0.404 0.707 0.589-1.17-1.57-1.808-3.51-1.813-5.615-0.006-5.195 4.213-9.424 9.407-9.429 2.001-0.002 3.828 0.585 5.222 1.552-1.327-1.985-3.97-3.343-7.008-3.34zm154.23 0.827c0.6 0.588 1.03 1.167 1.34 1.689 0.74 1.26 0.99 2.617 0.69 3.727-1.24 4.512-6.88 5.357-18.28 2.738-21.52-4.948-43.48-8.969-54.73 0.689l-0.51 0.44-0.64-0.195c-2.83-0.856-8.405-1.928-14.664-1.928-3.884-0.003-8.031 0.462-11.975 1.42l1.785 1.789c3.944-0.959 8.09-1.426 11.977-1.426 6.259 0.003 11.827 1.073 14.667 1.93l0.64 0.193 0.51-0.436c11.25-9.661 33.2-5.638 54.73-0.691 11.4 2.624 17.03 1.776 18.28-2.736 0.3-1.11 0.05-2.471-0.69-3.731-0.29-0.485-0.68-1.015-1.22-1.558-0.29-0.299-1.54-1.555-1.88-1.891-0.01-0.008-0.02-0.015-0.03-0.023zm-6.47 1.183c-0.22 0.76-0.63 1.463-1.23 2.078-0.84 0.863-2 1.523-3.28 1.84 3.47 0.424 4.96-0.108 5.57-0.551 0.5-0.357 0.6-0.778 0.64-1.179 0.08-0.942-0.81-1.683-1.7-2.188zm-115.4 0.067c0.013 0.087 0.03 0.174 0.049 0.257-0.019-0.083-0.036-0.17-0.049-0.257zm0.084 0.4c0.021 0.078 0.044 0.156 0.07 0.232-0.026-0.076-0.049-0.154-0.07-0.232zm0.115 0.363c0.044 0.117 0.09 0.232 0.146 0.342-0.056-0.11-0.102-0.225-0.146-0.342zm99.029 0.463c0.17 0.041 0.33 0.081 0.5 0.121-0.17-0.04-0.33-0.08-0.5-0.121zm-98.763 0.094c0.003 0.005 0.007 0.012 0.011 0.016-0.004-0.004-0.008-0.011-0.011-0.016zm99.483 0.082c0.93 0.224 1.81 0.442 2.63 0.644-0.82-0.202-1.7-0.42-2.63-0.644zm-27.42 3.316c-0.16 0.001-0.31 0.006-0.47 0.008-1.05 2.123-2.29 4.158-3.67 6.076l0.09 1.051c1.65-2.216 2.99-4.615 4.05-7.135zm2.75 0.034c-0.73 1.635-1.56 3.227-2.47 4.759l0.69-0.379-0.11 0.872c0.99-1.687 1.82-3.434 2.53-5.229-0.21-0.009-0.43-0.017-0.64-0.023zm3.36 0.179c-1.54 3.647-3.57 7.1-5.95 10.26l0.95-0.111c2.25-3.119 4-6.535 5.31-10.125-0.11-0.009-0.21-0.017-0.31-0.024zm-74.896 0.834c0.984 2.139 2.172 4.179 3.59 6.088l0.094-1.051c-1.118-1.547-2.14-3.17-3.047-4.855-0.219-0.049-0.433-0.109-0.637-0.182zm-2.553 0.393c-0.021 0.43-0.065 0.86-0.125 1.289 0.42 0.866 0.87 1.718 1.358 2.557l-0.106-0.872 0.686 0.379c-0.645-1.09-1.252-2.209-1.813-3.353zm1.807 3.972l0.547 5.084 3.361 0.372 0.379-3.391-4.287-2.065zm69.822 0l-4.29 2.065 0.38 3.391 3.36-0.374 0.55-5.082zm-72.635 0.702c-0.09 0.233-0.184 0.469-0.285 0.703 0.695 1.216 1.452 2.401 2.279 3.545l0.95 0.111c-1.055-1.397-2.04-2.856-2.944-4.359zm7.867 0.775l-0.478 4.295c0.891 1.001 1.819 1.963 2.793 2.867l-0.049-4.447c-0.561-0.615-1.11-1.253-1.64-1.912-0.212-0.269-0.417-0.537-0.626-0.803zm59.708 0c-0.2 0.268-0.41 0.534-0.62 0.803-0.53 0.659-1.08 1.297-1.64 1.912l-0.05 4.447c0.97-0.904 1.9-1.867 2.79-2.867l-0.48-4.295zm-56.733 3.471l0.047 4.326c0.997 0.885 2.036 1.719 3.113 2.498l-0.582-4.393c-0.891-0.765-1.75-1.573-2.578-2.431zm53.763 0c-0.83 0.857-1.69 1.664-2.58 2.429l-0.58 4.393c1.07-0.779 2.12-1.611 3.11-2.496l0.05-4.326zm-62.083 0.746c0.214 0.28 0.431 0.558 0.65 0.836 0.711 0.887 1.448 1.738 2.209 2.558l4.211-0.045c-0.971-0.907-1.897-1.865-2.781-2.873l-4.289-0.476zm70.403 0l-4.29 0.476c-0.88 1.008-1.81 1.965-2.78 2.873l4.21 0.045c0.76-0.818 1.5-1.673 2.21-2.56 0.22-0.278 0.43-0.554 0.65-0.834zm-58.71 2.344l0.567 4.291c1.095 0.753 2.228 1.45 3.394 2.093l-1.107-4.285c-0.978-0.65-1.933-1.348-2.854-2.099zm47.02 0c-0.93 0.751-1.88 1.449-2.86 2.099l-1.1 4.285c1.16-0.643 2.29-1.34 3.39-2.093l0.57-4.291zm-50.881 1.699l-4.313 0.043c1.04 1.072 2.125 2.079 3.246 3.023l4.18-0.553c-1.077-0.785-2.114-1.626-3.113-2.513zm54.741 0c-1 0.887-2.04 1.727-3.12 2.512l4.18 0.554c1.13-0.944 2.21-1.951 3.25-3.023l-4.31-0.043zm-47.159 0.961l1.08 4.174c1.176 0.615 2.383 1.173 3.623 1.673l-1.621-4.115c-1.051-0.525-2.077-1.106-3.082-1.732zm39.579 0c-1.01 0.626-2.04 1.207-3.09 1.732l-1.62 4.115c1.24-0.5 2.45-1.058 3.63-1.673l1.08-4.174zm-43.216 2.148l-4.275 0.567c1.162 0.935 2.36 1.804 3.592 2.609l4.089-1.059c-1.168-0.651-2.306-1.354-3.406-2.117zm46.846 0c-1.1 0.763-2.24 1.465-3.41 2.115l4.1 1.059c1.23-0.805 2.42-1.672 3.58-2.607l-4.27-0.567zm-39.197 0.035l1.576 4.006c1.035 0.393 2.083 0.747 3.154 1.053 0.213 0.061 0.43 0.116 0.645 0.174l-2.104-3.891c-1.106-0.396-2.2-0.842-3.271-1.342zm31.557 0c-1.08 0.5-2.17 0.947-3.28 1.342l-2.1 3.891c0.21-0.056 0.43-0.115 0.64-0.176 1.07-0.305 2.13-0.656 3.16-1.049l1.58-4.008zm-27.311 1.676l2.05 3.795c1.304 0.319 2.611 0.574 3.926 0.764l-2.566-3.619c-1.151-0.262-2.288-0.575-3.41-0.94zm23.061 0c-1.13 0.365-2.26 0.678-3.41 0.94l-2.569 3.619c1.313-0.19 2.619-0.445 3.919-0.764l2.06-3.795zm-30.641 0.895l-4.192 1.084c1.263 0.785 2.561 1.501 3.885 2.15l3.93-1.543c-1.238-0.506-2.446-1.073-3.623-1.691zm38.221 0c-1.18 0.617-2.39 1.185-3.63 1.691l3.93 1.543c1.33-0.649 2.63-1.367 3.89-2.15l-4.19-1.084zm-26.225 0.257l2.506 3.528c1.323 0.16 2.653 0.246 3.982 0.275l-2.988-3.281c-1.174-0.116-2.339-0.294-3.5-0.522zm14.224 0c-1.158 0.228-2.327 0.406-3.504 0.522l-2.982 3.283c1.327-0.03 2.657-0.117 3.98-0.277l2.506-3.528zm-21.631 1.807l-4.029 1.584c1.345 0.625 2.722 1.18 4.119 1.664l3.715-2.012c-0.174-0.043-0.347-0.088-0.523-0.14-1.117-0.318-2.209-0.688-3.282-1.096zm29.042 0c-1.08 0.409-2.17 0.778-3.28 1.096-0.18 0.051-0.35 0.097-0.53 0.14l3.72 2.012c1.4-0.485 2.77-1.039 4.12-1.664l-4.03-1.584zm-24.241 1.5l-3.803 2.051c1.41 0.46 2.843 0.844 4.29 1.156l3.437-2.437c-1.316-0.194-2.621-0.452-3.924-0.77zm19.441 0c-1.3 0.318-2.613 0.576-3.929 0.77l3.439 2.437c1.45-0.312 2.88-0.697 4.29-1.156l-3.8-2.051zm-14.497 0.906l-3.52 2.496c1.455 0.282 2.921 0.49 4.395 0.627l3.117-2.836c-1.329-0.031-2.665-0.127-3.992-0.287zm9.552 0c-1.331 0.16-2.663 0.256-3.994 0.287l3.117 2.834c1.473-0.136 2.939-0.343 4.392-0.625l-3.515-2.496z" transform="translate(-130.72 478.22)" fill="#ba9765"/>
  </g>
 </g>
</svg>
