<?xml version="1.0" encoding="UTF-8" standalone="no"?>
<svg xmlns:rdf="http://www.w3.org/1999/02/22-rdf-syntax-ns#" xmlns="http://www.w3.org/2000/svg" xml:space="preserve" height="150" viewBox="0 0 150 149.99892" width="150" version="1.1" xmlns:cc="http://creativecommons.org/ns#" xmlns:xlink="http://www.w3.org/1999/xlink" xmlns:dc="http://purl.org/dc/elements/1.1/"><g transform="matrix(1.25 0 0 -1.25 -13.5 406)"><g><g><path d="m70.873 205.67c32.694 0 59.2 26.506 59.2 59.199 0 32.696-26.506 59.202-59.2 59.202s-59.2-26.506-59.2-59.202c0-32.693 26.506-59.199 59.2-59.199" fill="#fff"/><path d="m70.873 321.78c-31.378 0-56.906-25.528-56.906-56.907 0-31.376 25.528-56.907 56.906-56.907s56.907 25.531 56.907 56.907c0 31.38-25.529 56.907-56.907 56.907" fill="#efb21e"/><path d="m70.873 320.1c-30.452 0-55.225-24.775-55.225-55.227 0-30.453 24.774-55.227 55.225-55.227 30.452 0 55.227 24.774 55.227 55.227 0 30.452-24.775 55.227-55.227 55.227" fill="#003831"/><path d="m70.873 298.68c-18.645 0-33.812-15.168-33.812-33.812 0-18.643 15.168-33.812 33.812-33.812 18.645 0 33.812 15.169 33.812 33.812 0 18.645-15.167 33.812-33.812 33.812" fill="#efb21e"/></g><g transform="matrix(1.7425 0 0 1.7434 90.603 232.04)"><path d="m0 0 3.392-6.081-1.321-0.737-3.394 6.08 1.323 0.738zm-14.044-8.5508h0.000918l-0.0018-0.010784 0.000919 0.010784zm5.3335 5.7082-3.0416-0.15684 0.36136-6.9468 3.0613 0.15864-0.067251 1.2897-1.5522-0.080659-0.080702 1.5675 1.3486 0.069009-0.065458 1.2906-1.3504-0.070805-0.07801 1.5111 1.5315 0.07887-0.067251 1.2897zm-7.4793 0.38718v-0.00516h-0.0018l-0.0063-0.045716c-0.08793-0.51434-1.1119-6.8186-1.1119-6.8186 0.004-0.00516 3.0604-0.50011 3.0604-0.50011l0.000918 0.00287 0.0027 0.017036c0.02198 0.10487 0.20803 1.2583 0.20803 1.2583h-0.0054-0.0018c-0.04397 0.011988-1.5584 0.25812-1.5584 0.25812 0.003 0 0.90834 5.5854 0.90834 5.5854l0.0018 0.00459-1.4966 0.24378zm12.947 1.0101-3.7293-1.1346 0.37661-1.235 1.1361 0.34416 1.6499-5.4169 1.4473 0.43916-1.6517 5.4196 1.1469 0.34864-0.37571 1.235zm-19.248 1.4044-2.8864-6.3302 1.3755-0.62648 1.2222 2.678 1.3952-0.63544-1.2213-2.678 1.3755-0.62738 2.8873 6.3284-1.3773 0.62737-1.128-2.4763-1.3952 0.63634 1.1298 2.4754-1.3773 0.62827zm20.996-0.5243h-0.0009182l0.41337-0.73941c-0.088573 0.15948-0.41186 0.73721-0.41248 0.73941zm-25.47 4.0627-0.8384-0.98138 0.90386-0.77077-3.68-4.3083 1.1513-0.98228 3.6791 4.3091 0.91193-0.77795 0.83751 0.98229-2.9653 2.5292zm31.513 0.3351c-0.2448-0.1059-0.4668-0.2401-0.6627-0.4159-1.5448-1.3642-1.3127-3.5231-0.1685-4.8155 1.211-1.3683 3.3015-1.9095 4.9362-0.4634 0.1829 0.1618 0.332 0.3433 0.4439 0.553l-0.8608 0.97515c-0.1079-0.1688-0.2228-0.33094-0.3677-0.45977-0.9872-0.87388-2.2656-0.30348-2.9501 0.47052-0.7094 0.80099-1.0043 2.0067-0.008 2.8886 0.1448 0.1268 0.3003 0.2271 0.4752 0.32l-0.83751 0.94734zm-35.035 1.2279 0.01165-0.017036-0.75322-0.75375-1.2796-1.3972-0.6214 0.86577 1.6938 0.81916 0.9487 0.48308zm1.0258 1.6401-6.6857-2.626 0.87876-1.218 1.1119 0.46247 0.89579-1.244-0.7846-0.91597 0.94242-1.3076 4.5731 5.5549-0.93166 1.2942zm36.95 0.8389c-0.4186-0.2178-0.7645-0.5109-1.0383-0.9124-0.7325-1.0727-0.3413-2.1878 0.564-2.8071 0.83936-0.57128 1.5683-0.41947 2.5036 0 0.46864 0.19577 0.89978 0.46653 1.3414 0.16491 0.3817-0.25967 0.4076-0.7438 0.13182-1.1463-0.25081-0.36953-0.56868-0.57161-0.95139-0.7394l1.0823-0.73761c0.3857 0.15481 0.7814 0.52228 1.0222 0.87384 0.803 1.1746 0.474 2.3439-0.548 3.041-1.554 1.0617-2.9065-0.8038-3.8508-0.1586-0.3527 0.2387-0.3991 0.6272-0.1363 1.0128 0.2348 0.3435 0.6157 0.5393 0.9855 0.6551l-1.1057 0.7538zm-39.639 28.968c0.67345 0.02294 1.5286-0.62323 1.8875-0.91686 0.42767-0.34956 1.7484-1.5209 1.1119-2.298-0.63651-0.77803-2.0462 0.2823-2.4749 0.63185-0.47863 0.39151-1.7493 1.5208-1.1128 2.2989 0.15913 0.19425 0.36374 0.27646 0.58823 0.28411zm41.431 0.412c0.8018-0.956-0.0765-2.091-0.755-2.659-0.6645-0.557-1.9406-1.191-2.682-0.223l3.437 2.8823zm-20.604 0.40062c-10.2 0-18.498-8.2945-18.498-18.489s8.2976-18.488 18.498-18.488 18.498 8.2936 18.498 18.488-8.2976 18.489-18.498 18.489zm-20.598 0.62558c-0.76104-0.02857-1.3756-0.39492-1.8032-0.91776-0.85534-1.0437-0.94553-2.7003 1.0769-4.3522 2.0205-1.6529 3.6273-1.2347 4.4816-0.19001 0.85534 1.0457 0.94642 2.701-1.076 4.354-1.0107 0.82596-1.9183 1.1346-2.6793 1.106zm41.177 0.92671-5.3308-4.4705 0.8671-1.0343c1.5338-1.8267 3.1789-1.5468 4.6977-0.27246 2.9777 2.4959 0.67181 4.6961 0.50394 4.8989l-0.73798 0.87832zm-35.8 2.1734 0.7317-0.77614 1.3576-1.322-0.88413-0.59511-0.76846 1.719-0.45372 0.96346 0.01704 0.01078zm-0.30218 1.9547-1.3217-0.89087 2.4184-6.7604 1.2464 0.83979-0.42772 1.1248 1.2706 0.85592 0.89041-0.812 1.3388 0.90251-5.4151 4.7402zm28.691 1.3704-3.6872-5.8991 1.2841-0.80124 1.6912 2.7067 0.14437 0.24826 0.31025 0.63185 0.026898 0.0052-0.64113-4.5493 1.2159-0.75733 3.6863 5.8982-1.2823 0.80124-1.6571-2.652c-0.192-0.307-0.3577-0.627-0.4557-0.957l-0.026898-0.0052 0.6223 4.5601-1.2312 0.76898zm-6.7727 0.54223 0.017934-0.0046-0.086082-1.062-0.079805-1.8929-1.0339 0.25991 0.76756 1.7199 0.41427 0.97959zm-0.27259 1.9144-3.4191-6.3131 1.458-0.36656 0.55057 1.0701 1.4867-0.37373-0.00986-1.2046 1.5665-0.39345-0.086979 7.1933-1.5459 0.38807zm-12.358 0.08604-1.4759-0.44902-0.29949-3.3403-0.02062-0.0052-0.90386 2.9737-1.4473-0.43916 2.0238-6.6555 1.4464 0.43916-1.0312 3.3896 0.02062 0.0063 2.361-2.9854 1.5244 0.46336-2.6147 3.1198 0.41696 3.4828zm5.5639 0.57449-1.5127-0.04032 0.18292-6.954 3.0972 0.08156-0.03408 1.2915-1.5836-0.04124-0.14975 5.6625z" fill="#fff"/></g><path d="m72.611 43.734c-0.754 0.006-1.501 0.09-2.222 0.258-8.062 1.881-7.347 8.302-7.338 8.367l0.277 2.213 1.313-1.801c1.34-1.836 2.982-1.484 3.664-1.042 0.511 0.317 0.883 0.545 0.883 1.132 0 0.257-0.072 0.581-0.233 1.012 0 0-0.605 1.591-0.912 2.395-0.882-0.151-1.772-0.219-2.682-0.065-2.115 0.361-3.639 1.258-4.527 2.67-1.352 2.155-0.651 4.665-0.623 4.772l0.471 1.63 1.068-1.314c1.164-1.434 2.208-1.085 2.73-0.748 0.423 0.274 0.652 0.425 0.332 1.631 0.005-0.02-7.41 24.81-8.416 28.181-6.068 2.236-6.777 6.34-6.777 8.035 0 0.47 0.051 0.75 0.053 0.77l0.279 1.46 1.154-0.95c0.027-0.02 2.706-2.19 7.135-2.629 0.96-0.094 2.331 0.255 3.66 0.589 1.313 0.34 2.672 0.68 3.815 0.65 1.608-0.04 2.928-0.58 3.818-1.546 0.903-0.981 1.332-2.342 1.24-3.933l-0.029-0.485-5.039-2.816-0.215 1.225c-0.028 0.156-0.104 0.435-0.304 0.548-0.072 0.042-0.173 0.054-0.284 0.061 0.41-1.415 2.279-7.94 2.573-8.965h10.611c0.283 1.097 1.918 7.51 1.918 7.51 1.691 6.895 6.96 9.171 11.422 8.361 4.657-0.83 7.891-5.615 8.433-12.482l0.077-0.955h-0.959c-0.464 0-0.676 0.276-1.061 0.777-0.888 1.156-2.462 2.27-3.631 2.057-0.74-0.135-1.31-0.847-1.697-2.114 0.013 0.044-8.152-33.777-8.152-33.777-0.54-3.626-2.417-6.729-5.264-8.664-1.961-1.33-4.298-2.034-6.561-2.018zm17.385 12.473c-0.789 0.058-1.507 0.38-1.953 0.904-0.723 0.849-0.904 2.033-0.449 2.95 0.368 0.74 1.088 1.157 1.924 1.111 0.024 0 0.09-0.002 0.144-0.002-0.017 0.057-0.041 0.129-0.041 0.129-0.383 0.953-0.542 1.027-0.969 1.221l-0.736 0.332 0.293 0.742 0.881 1.277 0.445-0.101c0.666-0.153 1.839-0.884 2.231-1.217 1.345-1.16 2.266-3.343 1.31-5.614-0.387-0.916-1.215-1.536-2.275-1.699-0.271-0.042-0.542-0.052-0.805-0.033zm9.666 1.537c-3.585 0-6.088 2.444-6.088 5.942 0 3.737 2.519 4.45 4.737 5.082 0.783 0.222 1.979 0.563 1.979 1.14 0 0.882-1.161 0.908-1.296 0.908-1.016 0-2.057-0.477-3.176-1.459l-0.64-0.56-2.426 4.57 0.49 0.342c1.754 1.234 3.851 1.912 5.899 1.912 1.909 0 3.649-0.581 4.889-1.639 1.24-1.051 1.86-2.644 1.86-4.74 0-3.271-2.48-4.383-4.35-4.933l-1.04-0.311c-0.49-0.161-1.328-0.429-1.328-0.852 0-0.393 0.626-0.634 1.078-0.634 0.78 0 1.58 0.312 2.27 0.883l0.64 0.537 2.31-4.489-0.56-0.318c-1.48-0.838-3.54-1.381-5.248-1.381zm-26.295 7.75c0.858 3.75 2.224 9.709 2.555 11.152h-5.783c0.435-1.501 2.153-7.443 3.228-11.152z" transform="matrix(.8 0 0 -.8 10.8 324.8)" fill="#efb21e"/><path d="m72.652 45.502c-0.633 0.003-1.258 0.072-1.861 0.213-3.77 0.879-5.165 2.837-5.686 4.369 1.581-0.788 3.246-0.437 4.297 0.244 0.673 0.414 2.246 1.385 1.207 4.166l-1.451 3.818-0.781-0.226c-0.875-0.25-1.792-0.298-2.719-0.139-1.593 0.272-2.707 0.896-3.316 1.856-0.383 0.603-0.499 1.255-0.531 1.834 1.325-0.745 2.668-0.535 3.63 0.09 0.682 0.441 1.28 1.027 1.28 2.226 0 0.388-0.064 0.84-0.207 1.371l-8.676 29.049-0.432 0.143c-4.435 1.488-5.629 3.938-5.927 5.504 1.351-0.771 3.53-1.764 6.585-2.071 1.269-0.124 2.798 0.265 4.274 0.639 1.197 0.302 2.433 0.615 3.332 0.594 1.132-0.031 1.995-0.357 2.559-0.975 0.589-0.638 0.746-1.469 0.765-2.172-0.503-0.281-1.399-0.781-2.211-1.236-0.196 0.283-0.436 0.52-0.73 0.685-0.481 0.275-1.325 0.498-2.58 0.01l-0.752-0.295 3.422-11.929h12.627l0.683-0.018 2.268 8.873c1.519 6.179 6.01 7.658 9.392 7.049 3.219-0.579 5.532-3.707 6.5-8.238-1.11 0.798-2.412 1.337-3.646 1.109-0.993-0.179-2.331-0.906-3.084-3.387 0 0-8.167-33.826-8.182-33.904-0.618-4.111-2.801-6.37-4.525-7.539-1.657-1.126-3.625-1.722-5.524-1.713zm17.491 12.053c-0.447 0.025-0.862 0.184-1.071 0.433-0.431 0.51-0.444 1.118-0.267 1.471 0.124 0.259 0.342 0.379 0.716 0.359 0.407-0.024 1.021-0.06 1.375 0.432 0.142 0.2 0.194 0.422 0.194 0.648 0 0.325-0.111 0.654-0.215 0.911-0.235 0.579-0.452 0.893-0.674 1.168 0.268-0.161 0.547-0.334 0.684-0.452 0.648-0.559 1.238-1.511 1.238-2.656 0-0.444-0.086-0.914-0.291-1.404-0.276-0.651-0.894-0.839-1.238-0.891-0.15-0.023-0.303-0.028-0.451-0.019zm-16.577 0.884l4.579 19.977h-10.36l4.832-16.697 0.949-3.28zm26.098 0.659c-2.834 0-4.736 1.843-4.736 4.588 0 2.468 1.083 3.025 3.884 3.82 0.995 0.281 2.838 0.802 2.838 2.402 0 1.328-1.09 2.258-2.656 2.258-1.129 0-2.241-0.507-3.371-1.33-0.344 0.644-0.754 1.422-1.078 2.031 1.421 0.866 3.011 1.403 4.596 1.403 1.589 0 3.019-0.468 4.019-1.317 0.91-0.781 1.38-2.031 1.38-3.711 0-1.85-1.01-2.938-3.39-3.638 0 0-1.04-0.314-1.06-0.319-0.791-0.257-2.268-0.733-2.268-2.139 0-1.244 1.232-1.986 2.418-1.986 0.84 0 1.66 0.314 2.43 0.776 0.31-0.599 0.65-1.26 0.96-1.875-1.22-0.566-2.68-0.963-3.966-0.963z" transform="matrix(.8 0 0 -.8 10.8 324.8)" fill="#003831"/></g></g></svg>
