<?xml version="1.0" encoding="UTF-8" standalone="no"?>
<svg xmlns:rdf="http://www.w3.org/1999/02/22-rdf-syntax-ns#" xmlns="http://www.w3.org/2000/svg" height="197.25" width="197.25" version="1.1" xmlns:cc="http://creativecommons.org/ns#" xmlns:dc="http://purl.org/dc/elements/1.1/" viewBox="0 0 197.24932 197.25054">
 <g transform="translate(135.81 -431.64)">
  <g transform="translate(1.0909 -.72727)">
   <path d="m-21.527 435.09c-13.027-2.251-26.136-1.8772-38.949 1.1198-13.266 3.1043-25.547 8.8757-36.513 17.155-20.806 15.708-34.257 38.573-37.865 64.397-3.6105 25.82 3.0602 51.502 18.766 72.31 14.985 19.859 36.738 33.135 61.247 37.374 13.031 2.251 26.127 1.8752 38.941-1.1274 13.272-3.09 25.559-8.86 36.515-17.14 20.808-15.7 34.261-38.57 37.87-64.4 3.608-25.82-3.066-51.5-18.766-72.31-14.989-19.86-36.742-33.13-61.247-37.37" fill="#134a8e"/>
   <path d="m54.934 544.28c-3.4763 24.875-16.43 46.91-36.473 62.032-10.571 7.9822-22.407 13.537-35.187 16.528-1.5435 0.36047-3.0928 0.68068-4.6402 0.96254-10.856 1.9807-21.891 2.021-32.868 0.12464-17.705-3.0698-33.913-11.027-47.009-22.884-4.3602-3.9576-8.3772-8.3389-11.986-13.121-12.3-16.283-18.843-35.677-19.007-55.718-0.0307-4.6287 0.27227-9.2842 0.92803-13.945 2.8359-20.323 11.997-38.745 26.196-53.063 3.1752-3.2059 6.6113-6.2086 10.274-8.9754 7.1079-5.3707 14.793-9.6312 22.953-12.764 3.9671-1.5205 8.0474-2.7822 12.227-3.7543 12.354-2.8896 24.974-3.252 37.522-1.0833 23.609 4.0784 44.559 16.86 59.003 35.996 15.128 20.047 21.554 44.781 18.077 69.666" fill="#fff"/>
   <path d="m47.617 565.58c2.7227-6.8433 4.6459-14.055 5.6871-21.531 1.0623-7.6352 1.1907-15.249 0.39882-22.72v-0.0211c-0.02493-0.14956-0.04602-0.30871-0.06519-0.46977-1.8177-16.277-7.9726-31.822-18.091-45.236-11.227-14.868-26.459-25.837-43.819-31.745-4.575-1.5646-9.3033-2.7822-14.149-3.6163-0.78039-0.1323-1.5646-0.26077-2.3508-0.38157-4.713-0.68643-9.4644-0.99514-14.179-0.95295-2.5904 0.0211-5.1751 0.16298-7.7579 0.40265-1.1044 0.10546-2.2223 0.23201-3.3152 0.37198-0.45251 0.0594-0.91269 0.11697-1.3652 0.19175-15.287 2.2127-29.959 8.2277-42.457 17.661-6.4425 4.8645-12.135 10.45-17.002 16.63-10.024 12.695-16.532 27.875-18.831 44.321-1.0642 7.6371-1.1926 15.261-0.38541 22.741 0.88969 8.3887 2.9394 16.597 6.0897 24.413 3.018 7.499 7.0446 14.657 12.051 21.281 5.7676 7.6409 12.588 14.243 20.21 19.673 2.7783 1.975 5.6737 3.8022 8.6533 5.4551 8.9697 4.9757 18.781 8.4558 29.112 10.237v0.0115c2.3508 0.40841 4.7111 0.71137 7.0772 0.93187 3.9 0.36815 7.8116 0.48703 11.698 0.34897 1.0086-0.0345 2.0075-0.0824 3.018-0.15531 17.834-1.1888 35.183-7.5182 49.619-18.428 1.4285-1.0872 2.8282-2.207 4.1934-3.3516 11.597-9.8421 20.438-22.173 25.956-36.063" fill="#134a8e"/>
   <path d="m15.311 602.15c-19.809 14.956-44.191 20.863-68.657 16.624-22.289-3.854-42.087-15.928-55.72-33.998-14.294-18.935-20.352-42.302-17.078-65.791 3.2884-23.498 15.522-44.302 34.45-58.598 19.809-14.946 44.202-20.856 68.666-16.618 19.859 3.4322 37.725 13.384 51.025 28.292 0.05369 0.0575 0.08437 0.0901 0.11313 0.12463 1.5934 1.7851 3.1216 3.6488 4.5807 5.5797 14.296 18.927 20.359 42.306 17.078 65.794-3.2865 23.496-15.522 44.3-34.45 58.591" fill="#fff"/>
   <path d="m56.734 76.715c-2.8224 1.1946-4.2759 2.6018-6.4004 5.9688-23.132 3.8272-31.053 7.5233-33.141 9.8223-0.30103 0.41991-0.17039 0.62462 0.11914 0.70898 7.6908-0.32212 18.466-0.71076 37.328-0.07422 1.5589 0.0211 3.0805 0.05904 4.5742 0.08594 0.95104-1.2578 2.6667-2.3672 5.9551-2.3672h0.33203 0.63281c6.1127 0.0786 7.2386 6.3516 13.729 6.3516 6.4253 0 7.5917-6.1636 13.566-6.3477 0.20516 0 0.40584-0.0039 0.59375-0.0039h22.385l-0.31054-3.7129h-22.396c-6.2182 0-7.3188-6.3574-13.848-6.3574-6.4592 0-7.5835 6.3262-13.641 6.3262h-0.06055c-6.3773-0.44292-8.9003-5.835-9.418-10.4zm-38.925 17.379c-0.77272-0.01-0.98223 0.30535-0.13281 0.9707 3.6738 2.6633 16.128 7.4846 31.412 10.33 7.3495 1.369 10.7 3.387 15.975 7.0742 11.482 8.0263 27.135 30.69 36.682 58.715 18.104-35.16 39.136-51.993 40.779-53.281l-10.764 0.88086-5.166 0.41992 3.3164-3.9863 1.7988-2.1719-6.9551-6.0059c-3.7812 5.781-7.4643 12.045-9.2168 16.879l7.6484-0.0312c-3.9288 4.8722-11.503 12.922-16.607 21.85-5.09-12.52-17.028-28.62-38.588-37.47-6.245-2.56-12.146-5.96-11.387-10.905-10.827-1.547-22.697-2.805-36.134-3.232-0.96638-0.0173-1.8587-0.03516-2.6621-0.03906z" transform="translate(-138.29 431.36)" fill="#1d2d5c"/>
   <path d="m-60.909 515.03c-1.3479 0.90502-2.3253 2.5885-2.2716 4.2164h2.1776c-0.10546-0.80148-0.35089-2.3795 0.09395-4.2164" fill="#fff"/>
   <path d="m102.39 17.73-4.3066 0.25976c0.3298 0.3854 0.4368 0.86939 0.50391 1.6172l0.4082 6.9316-10.338-8.0801 0.86133 14.611c0.0326 0.68452-0.01919 1.3858-0.52539 1.9629l4.5469-0.26562c-0.43526-0.45251-0.476-0.96603-0.55078-1.8691v-0.0293l-0.38476-6.6777 10.309 8.0938-0.86914-14.812c-0.0288-0.59249 0.00057-1.2379 0.3457-1.7422zm7.9824 0.74414-1.4336 3.5859c0.84942-0.36623 1.5051-0.3447 2.4082-0.18555l2.4043 0.48242-2.2617 11.174c-0.17448 0.85709-0.48343 1.3968-1.0625 1.7305l4.9277 1c-0.34322-0.52154-0.53603-1.2258-0.37305-2.0234l2.2637-11.17 2.6641 0.53711c0.9472 0.19365 1.6413 0.7249 2.0957 1.1602l0.0645-3.9219-11.697-2.3691zm-35.508 3.9062c-2.7238-0.11104-5.4601 1.0924-7.2109 3.4473-2.809 3.785-2.0453 9.1221 1.7109 11.904 3.7486 2.7841 9.0796 1.9784 11.885-1.8047 2.8033-3.7831 2.0395-9.1181-1.7109-11.893-1.4086-1.0476-3.0395-1.5877-4.6738-1.6543zm58.068 2.995c-2.7248-0.11132-5.4643 1.0884-7.2188 3.4492-2.8014 3.785-2.0356 9.1221 1.7148 11.902 3.7466 2.786 9.0874 1.9705 11.891-1.8145 2.8014-3.7696 2.0299-9.1065-1.7129-11.889-1.4093-1.0433-3.039-1.5816-4.6738-1.6484zm-58.232 0.4668c0.98087 0.03837 1.9548 0.35346 2.7832 0.9668 2.205 1.6413 2.6786 4.8848 1.0449 7.0879-1.6317 2.2165-4.8868 2.696-7.0918 1.0547-2.2012-1.6356-2.6844-4.881-1.0508-7.0898 1.027-1.3781 2.6797-2.0835 4.3145-2.0195zm58.052 2.996c0.97921 0.03889 1.9517 0.35418 2.7793 0.9668 2.2031 1.6317 2.6863 4.8886 1.0508 7.0898-1.6394 2.2031-4.8849 2.6864-7.0957 1.0527-2.2031-1.6432-2.6805-4.8906-1.0449-7.0898 1.027-1.3805 2.6785-2.0844 4.3106-2.0195zm-77.904 4.35c-0.6705 0.01635-1.3864 0.16981-2.1055 0.45312-0.19174 0.0709-1.125 0.48071-1.8594 1.0176l-0.05273 0.04492-4.4805 3.2559c0.57139 0.13038 1.2233 0.36107 1.6797 0.97656v0.002l7.7949 10.848c0.19366 0.40841 0.32052 0.92061 0.22656 1.4824l3.9902-2.8945c-0.76889-0.069-1.1988-0.52119-1.6992-1.1348l-3.377-4.6504 8.7578 3.1035 3.7461-2.7285c-0.61358-0.0326-1.3613-0.17027-2.1973-0.39844l-5.775-1.974 0.108-0.283c0.697-1.774 0.363-3.069 0.289-3.309-0.173-0.581-0.451-1.135-0.836-1.645-0.5062-0.70561-1.1284-1.2468-1.8359-1.5996l-0.10156-0.05273c-0.567-0.265-1.073-0.414-1.619-0.485-0.21188-0.0254-0.4308-0.03475-0.6543-0.0293zm-0.12695 3.4492c0.33055 0.0035 0.65012 0.09861 0.97656 0.28125 0.59057 0.32979 0.83459 1.0816 0.86719 1.2676 0.02301 0.13039 0.16889 1.3182-1.25 2.3574l-1.209 0.88086-2.3516-3.207 1.1289-0.83203c0.70465-0.50812 1.287-0.75393 1.8379-0.74805zm96.396 4.2363c-17.006 19.728-64.43 19.483-76.707 23.514-8.0608 2.6422-12.196 7.0301-15.051 11.371-0.28186 4.4695 2.9639 8.7363 6.7969 8.7363 0 0-1.0054-2.5363 0.2793-5.1152 0.50428-0.99514 1.4293-1.9124 2.666-2.6641 9.4646-6.4866 29.744 0.09766 29.744 0.09766-4.7725-0.43142-8.6965-0.34527-12.01 0.09766 5.618 1.7391 11.625 4.116 15.695 5.1016 5.0179 1.2214 8.335 1.8491 13.32 2.1367l-0.1582-1.9648 2.7656 0.4707 7.3926 1.2695 1.0859-2.7715 1.2012-3.0469 2.3457 2.2852c0.0518 0.0499 3.6858 3.5852 5.5879 5.4355-0.33363-3.482-1.1916-12.344-1.2012-12.439l-0.34766-3.5762 3.332 1.3438 3.6406 1.4707 5.4453-8.9277 1.8594-3.0312 1.8594 3.0312 4.4024 7.1992c1.5378-6.247 2.6399-12.862 5.8516-15.936-3.2213 0.11888-5.4855 1.0321-9.0059 3.4922 1.996-5.3937 4.9454-9.3978 8.9336-13.977-3.877 0.58865-7.5735 1.7006-11.205 3.7695 1.3863-3.296 1.4805-7.373 1.4805-7.373zm-109.59 6.555c-2.7262-0.1098-5.469 1.0915-7.2246 3.4512-2.7994 3.7812-2.0221 9.1067 1.7227 11.902 3.7505 2.7822 9.0776 1.9648 11.881-1.8145 2.8033-3.7831 2.0396-9.1142-1.7051-11.891-1.4079-1.0433-3.0381-1.5826-4.6738-1.6484zm-0.17969 3.4551c0.97977 0.03846 1.9507 0.35398 2.7754 0.96875 2.2146 1.6413 2.6864 4.8847 1.0547 7.0859-1.6356 2.2127-4.8867 2.6978-7.0879 1.0488-2.207-1.626-2.6884-4.8809-1.0566-7.0859 1.027-1.3758 2.6815-2.0817 4.3145-2.0176zm-14.638 12.361-4.512 11.033 3.246 2.098c-0.19174-0.90694-0.05261-1.5473 0.26953-2.4121l0.92188-2.2637 10.557 4.3164c0.85325 0.34706 1.2831 0.82151 1.4863 1.4102l1.9258-4.6953c-0.57906 0.24351-1.3012 0.29932-2.0566-0.01172l-10.559-4.3262 1.0352-2.5156c0.36239-0.88968 1.0192-1.4793 1.5254-1.8359l-3.839-0.797zm13.375 55.795c0 0.98939-0.46053 1.938-1.6973 2.4902l-14.912 7.0684c-1.3959 0.63658-2.4992 0.49632-3.4004-0.43555l3.6406 7.6875c2.9413 6.176 7.7884 5.8775 9.9551 4.8574v-0.01c1.6682-0.78614 2.8887-2.1272 3.3105-4.1348 0 0 1.5782 0.73746 3.8906-0.35547h0.0098v-0.004c3.3823-1.6087 4.5966-5.8505 2.7578-9.6758l-3.5547-7.4883zm-0.30078 4.1699 2.002 4.2109c1.2732 2.6959 0.44707 5.6631-1.8711 6.7656-1.3767 0.65576-2.7842 0.42041-4.3066-0.70703l-0.16406-0.13282 0.02344 0.20508c0.28953 2.1801-0.75088 4.1059-2.791 5.0742-2.7342 1.2981-5.3815-0.065-7.0938-3.6602l-1.9434-4.1016 16.145-7.6543zm-0.45898 1.2774-6.2734 2.9766 1.5879 3.3379c1.0987 2.3201 3.105 3.3537 4.8652 2.5234 1.8503-0.87627 2.4705-3.2949 1.4082-5.4961l-1.5879-3.3418zm121.75 0.8164-0.51172 0.0625c-2.1609 0.28953-4.5708 2.0114-5.748 4.0938-0.88202 1.5876-1.2914 3.1489-1.2051 4.6426 0.10929 2.0075 1.0447 3.704 2.709 4.9062 0.23393 0.16106 0.48156 0.3251 0.75 0.47657 3.9096 2.1993 6.3827-0.0136 8.3691-1.793l0.16016-0.14844c1.6202-1.4457 2.7626-2.1682 3.8574-1.5488 0.67493 0.3739 0.9971 1.6282 0.42188 2.7441-0.47361 0.91462-1.1642 1.2675-1.3809 1.3672-1.1447 0.60974-2.9711-0.18164-2.9941-0.18164l-0.0332-0.0234 0.79688 2.7676h0.0332c0.7267 0.0805 1.9749-0.2207 1.9922-0.2207h0.008c1.4534-0.32213 2.5806-1.1719 3.3418-2.5352 0.0326-0.0537 0.057-0.10814 0.0781-0.14649l0.0391-0.0684c1.1869-2.1571 0.70397-4.5684-1.1387-5.6192-1.4496-0.81874-2.7253-0.84083-3.916-0.0547-1.022 0.66918-2.2697 1.7308-2.2793 1.75-2.0555 1.8081-3.8207 3.0983-6.252 1.7676-1.1696-0.63659-1.9752-1.5921-2.3203-2.7617-0.3739-1.3326-0.13866-2.8469 0.70117-4.2754 0.44867-0.75547 2.1324-3.2232 5.2598-3.1484h0.0195l-0.73828-2.043v-0.01h-0.0195zm-122.71 1.9883 0.67774 1.4277c0.5062 1.0718 0.36827 2.1055-0.51758 2.5254-1.0948 0.51579-1.9437-0.51476-2.2773-1.2031l-0.67578-1.4336 2.793-1.3164zm-6.1875 0.57812-7.2598 3.4492 1.5371 3.2324c0.85709 1.8177 2.7561 4.6624 5.8086 3.209 3.4379-1.6279 2.1607-5.153 1.4531-6.6543l-1.5391-3.2363zm129.99 0.43c-0.93186-0.0211-3.254 0.19063-4.832 2.7715-1.346 2.1993-0.78231 4.4347 1.3633 5.6465 2.0421 1.1466 3.5482-0.20395 4.8809-1.4024l0.0723-0.0566 0.60156-0.49609c0.11696-0.0959 0.22473-0.19124 0.33594-0.28711 1.2329-1.0546 2.3912-2.0516 4.1016-1.9922 0.12847 0 1.2659 0.0688 2.3301 0.72266 1.0833 0.64809 1.7908 1.5358 2.0918 2.6191 0.41032 1.4515 0.18408 3.0526-0.62891 4.5156-0.87243 1.5378-2.2512 2.5892-3.8906 2.9766-0.69985 0.16106-1.1051 0.20001-2.0312 0.24219h-0.0195l0.65821 2.2891h0.0195c4.2548-0.20324 6.3242-3.3166 6.8496-4.2715 0.10929-0.18408 0.16211-0.30468 0.16211-0.30468 0.83983-1.5014 1.2348-3.1067 1.1543-4.6406-0.13422-2.2741-1.3354-4.2236-3.3008-5.3262-4.5903-2.5885-7.8081 0.45107-9.3555 1.9141l-0.0664 0.0625c-1.5071 1.4189-2.2222 1.773-2.9336 1.4356-0.15914-0.0748-0.24443-0.13427-0.36523-0.21289-0.78039-0.5503-0.87209-1.5352-0.19141-2.5879 0.14573-0.22817 1.4912-2.1703 3.9531-0.93164l0.041 0.0195-0.97656-2.7051h-0.0234zm-130.69 2.2324 0.63477 1.3262c0.83791 1.787 0.55967 2.7954-0.01172 3.3477-0.22243 0.21284-0.64293 0.47135-0.97656 0.50586-0.90119 0.10738-1.7652 0.17325-2.793-2.0606l-0.63477-1.334 3.7812-1.7852zm16.932 5.3398c0.27994 0.90886 0.10501 1.8739-0.96875 2.8652 0 0.004-0.04057 0.0442-0.12109 0.10938-0.02684 0.0307-10.952 9.7653-12.23 10.9-1.1178 0.93379-2.1165 0.94707-3.3398 0.51757l9.2812 10.422 1.7676-1.1113-6.8828-7.7305 14.9-13.268-2.4062-2.7051zm102.63 1.6113-2.6856 2.5781 4.7266 14.18 5.8965 6.1309 0.0195-0.0117 2.832-2.7246c-1.2233 0.4295-2.1354 0.21292-3.0059-0.51953h-0.004l-3.8262-3.9336-4.168-12.389c-0.10929-0.45251-0.44858-1.2091 0.21485-3.3106zm-99.59 1.8125-14.168 12.631 6.3398 7.1152 3.0039-1.8574s-1.9551-0.10255-3.5312-1.834l-0.06641-0.0781s-1.7499-1.965-2.793-3.1289c1.417-1.2693 9.2724-8.2812 10.578-9.4297 0.0038 0 0.0041 0.00024 0.01367-0.01 0.02493-0.0192 0.05338-0.0454 0.08789-0.0742 0 0 1.7949-1.3345 2.9492-0.62696l-2.3945-2.6914-0.01953-0.0156zm96.133 1.5176-3.3516 3.2246c0.84942-0.38732 1.3735-0.32883 1.6094-0.26172 0.17065 0.0978 0.49585 0.21631 0.90234 1.3438l1.9336 5.2422-5.1348-2.1074c-0.79957-0.40841-1.127-0.92969-1.127-0.92969-0.32021-0.57139-0.042-1.1844 0.11523-1.6465l-3.3047 3.1699-0.0684 0.0723 12.773 4.8164-4.3476-12.924zm-89.279 6.5312c0.58098 1.0296 0.63405 1.7713-0.13867 3.0176-0.0096 0.002-6.832 10.77-6.832 10.77-2.3086 3.6968-1.1819 7.5478 2.998 10.217 4.0937 2.6134 8.3659 2.1502 10.707-1.5312l6.8203-10.766c0.74396-1.1294 1.6593-1.5486 2.6641-1.4297l-3.0352-1.9219-8.0352 12.666c-0.11313 0.17257-0.30664 0.47265-0.30664 0.47265-1.4036 2.2261-4.8077 2.5842-7.5898 0.8125-0.96063-0.60782-1.7188-1.391-2.2461-2.248-0.02109-0.0326-0.04517-0.0554-0.05859-0.0918-0.96255-1.601-1.1219-3.4699-0.22266-4.8945 0 0 0.06284-0.10832 0.29102-0.47071l8.0371-12.668-3.0527-1.9336zm80.094 2.3086-2.6211 2.5137c1.4611-0.48511 2.0088-0.3859 3.2129-0.0293l12.268 4.6465 3.4961 3.668c1.0948 1.0814 1.05 2.3732 0.69531 3.3281l2.8477-2.748-5.8965-6.1211-14.002-5.2578zm-76.236 0.13867-8.1562 12.867c-1.2655 1.9903-0.33137 4.7268 2.0117 6.2109 2.3393 1.4822 5.1766 1.232 6.4766-0.7832l8.1758-12.9-3.0508-1.9453c0.67685 1.0968 0.54773 1.944-0.14062 3.0273 0 0-4.3397 6.8447-6.6387 10.461-0.72095 1.0507-2.384 1.2383-3.7051 0.40234-1.3096-0.83025-1.8495-2.4306-1.2148-3.5273 0.73821-1.1696 6.4771-10.223 6.5078-10.258 0.0767-0.13423 0.11719-0.20118 0.11719-0.20118 0.63658-0.98939 1.441-1.4734 2.6797-1.4082l-3.0625-1.9453zm66.342 3.8535 1.2383 22.416c-0.0288 2.1341-0.35819 3.3543-0.92383 4.1309l3.2227-1.6953-1.3867-20.787 16.361 12.906 3.0723-1.625c-1.2655-0.0345-2.4787-0.79512-3.7461-1.6445l-17.84-13.7zm-50.646 5.2774c0.77464 0.71137 1.245 1.7639 0.97461 2.9316-3.8554 16.223-3.8227 16.082-3.8438 16.176-0.23776 0.86092-0.90225 2.0484-2.4707 2.2363l14.543 3.4551 0.83008-1.9297-11.004-2.5996 4.1289-17.4 10.406 2.4805 0.14258-2.0918-13.707-3.2578zm53.846 0.79883 0.67187 9.7812 7.0254-3.6934-7.6973-6.0879zm-11.604 0.0742-3.498 0.86719 3.6211 14.596s0.71754 2.1201-0.39649 3.8477c-0.79764 1.2252-2.0414 2.1506-3.7383 2.5781-1.5838 0.38924-3.4814 0.21286-4.8965-0.73243-0.62316-0.42567-0.92645-0.68579-1.5918-1.3281l-1.2363 2.0684c3.693 3.5722 8.25 2.0117 8.25 2.0117 1.6873-0.41992 3.1508-1.2359 4.2227-2.3672 1.4246-1.4975 1.987-3.4313 1.707-5.4082 0-0.0403-0.12199-0.64573-0.16992-0.81446l-3.084-12.42c-0.3528-1.5282 0.81055-2.8984 0.81055-2.8984zm-4.4297 1.1055-3.502 0.86133c0.7593 0.12463 1.783 0.94115 2.084 2.1856l3.0508 12.324c0.27802 1.1543-0.64429 2.1816-1.7852 2.4961-1.1409 0.32596-2.0416-0.0315-2.0703-0.0391-1.2674-0.43525-1.8926-2.4024-1.8926-2.4024l-1.4805 2.502c0.57906 0.66535 1.832 1.4824 1.832 1.4824 1.6739 1.0258 3.4498 0.62047 4.0059 0.48242 2.1859-0.54072 4.0671-2.4905 3.4746-4.9199 0-0.0211-3.7168-14.973-3.7168-14.973zm-33.941 2.0527-1.6289 6.8398 8.3691 1.9844 0.70703-2.9609s-0.9739 1.0706-2.7188 0.66601l-3.8809-0.92578 0.73828-3.1055 4.6719 1.1094c2.5444 0.61549 3.1562 1.9863 3.1562 1.9863l0.22656-3.3066-9.6406-2.2871zm52.061 0.73632 2.3008 1.8496-2.0742 1.0859-0.22657-2.9356zm6.4043 2.7832-7.7129 4.0625 0.48047 7.4785 0.0684-0.0352 3.5976-1.8984c-0.8475-0.12463-1.5995-0.87931-1.8027-2.0547l-0.17773-2.625 5.0195-2.6406 2.1914 1.7031c0.55414 0.45442 1.417 1.3415 0.52539 2.5859l3.6348-1.9121 0.0742-0.0312-5.8984-4.6328zm-60.221 4.2812-1.8359 7.7402 10.148 2.3965 1.4121-3.2695c-0.81682 0.48511-1.7396 1.01-3.7012 0.60156-0.04026 0-5.3047-1.25-5.3047-1.25l0.94726-3.998 3.7246 0.88281 0.05664 0.0137c1.7487 0.47935 2.1328 1.7734 2.1328 1.7734l0.70117-2.9258-8.2812-1.9648z" transform="translate(-138.29 431.36)" fill="#134a8e"/>
   <path d="m99.57 41.555c-15.379 0.14343-30.677 6.3286-42.023 18.432-5.5126 5.9018-9.5801 12.638-12.201 19.758 1.1888-0.21284 2.3981-0.4296 3.6367-0.63477 1.5589-3.8329 3.5596-7.5336 6.0273-11.018 0 0.0134 0.0098 0.02946 0.0098 0.03906 0.0115 0.0192 0.03345 0.04151 0.04687 0.06641 0.09587-0.0863 0.19525-0.17554 0.29688-0.26758 0.27419-0.23968 0.54016-0.48695 0.80859-0.73047-0.02493-0.046-0.05129-0.09863-0.07813-0.15039-0.05177-0.0863-0.0928-0.17544-0.14648-0.26172 0.44101-0.56564 0.87948-1.1392 1.3301-1.6934 0.08628 0.10163 0.14965 0.20313 0.21484 0.30859 0.10738 0.1649 0.20264 0.32505 0.28125 0.47461 0.39499-0.31254 0.80426-0.62489 1.2012-0.93359-0.18024-0.37582-0.40525-0.73278-0.66602-1.0664 0.21667-0.25693 0.45343-0.50482 0.67969-0.76367 0.28761-0.3183 0.56984-0.65234 0.85938-0.9668h0.0059c0.0077 0 0.0078 0.000188 0.0078-0.0078 0.44292 0.51195 0.73205 1.0438 0.92188 1.5059 0.35664-0.23584 0.70973-0.47488 1.0645-0.69922 0.07478-0.0518 0.14014-0.09849 0.21875-0.14258-0.20516-0.47935-0.46282-0.94376-0.77344-1.3848-0.113-0.14-0.217-0.286-0.33-0.418 0.48894-0.49278 0.98205-0.96968 1.4863-1.4395 0.13038-0.11504 0.24462-0.23659 0.375-0.35547 0.79765 0.78039 1.1815 1.6202 1.3848 2.3086 0.49661-0.28762 1.0018-0.55586 1.5176-0.82812-0.15339-0.4295-0.35404-0.84766-0.5918-1.2676-0.19558-0.31829-0.41874-0.6168-0.66992-0.91016-0.11696-0.13997-0.24266-0.28953-0.37305-0.41992 0.58098-0.51579 1.1811-1.0108 1.7832-1.4844 0.19174 0.17448 0.35243 0.34313 0.50391 0.51953 0.34705 0.3969 0.61468 0.79218 0.79492 1.1699 0.22626 0.46209 0.34496 0.89177 0.41016 1.2676 0.0077 0.0729 0.02166 0.14006 0.03125 0.21484 0.02109-0.0211 0.04528-0.0255 0.06445-0.0332 0.52537-0.25119 1.0648-0.48255 1.6094-0.69922 0.02493-0.01 0.04532-0.02366 0.06641-0.03516-0.0326-0.18599-0.07327-0.37278-0.12695-0.56836-0.28953-1.091-0.90183-2.1756-1.8184-3.0059v-0.0098c0.37965-0.27036 0.75515-0.5382 1.1367-0.80664 0.39882-0.2857 0.80842-0.55586 1.2188-0.82813-0.0767 0.1649-0.16176 0.32245-0.24805 0.4375 1.6873 1.5493 1.9875 3.0257 1.9434 3.9863 0.64425-0.2205 1.2898-0.42527 1.957-0.60742-0.02493-0.62508-0.16629-1.2675-0.39062-1.8906-0.24351-0.64617-0.59674-1.2801-1.0723-1.8477-0.10738-0.12846-0.22505-0.25826-0.35352-0.38672 0.07286-0.19366 0.15963-0.45305 0.23633-0.76367 0.02109-0.092 0.05508-0.17963 0.07617-0.28125 1.0623-0.63083 2.1494-1.2252 3.252-1.7793-0.29912 0.85709-0.64311 1.6184-0.98633 1.9961 1.6745 1.9021 1.7184 3.3297 1.4922 4.252l-0.01758 0.07617v0.0293c0.67685-0.15531 1.3507-0.28737 2.0371-0.40625 0.20516-1.4381-0.22238-3.1018-1.3613-4.4766 0.02109-0.0326 0.0336-0.07686 0.05469-0.11328 0.02301-0.0383 0.03161-0.07112 0.05078-0.11719 0.24735-0.54263 0.55347-1.3928 0.80273-2.2441 0.91844-0.41608 1.8531-0.79194 2.7773-1.1562 0.29912-0.12271 0.61107-0.24809 0.91211-0.35547-0.38732 1.1274-0.92406 2.3937-1.4609 3.084-0.07478 0.0959-0.1537 0.18878-0.22656 0.25781 1.0105 1.0853 1.4616 2.3846 1.6016 3.4258v0.07227 0.0078c0.0556 0.47743 0.0441 0.89033 0 1.1895 0.59248-0.0575 1.2009-0.08656 1.8164-0.11914 0.06136-0.006 0.12028-0.0063 0.18164-0.01367 0.09587-0.52538 0.12194-1.1046 0.0625-1.6855-0.04027-0.49278-0.14789-0.98921-0.32812-1.459-0.25118-0.60782-0.62679-1.1606-1.1426-1.6016 0.4621-0.79381 1.2016-2.621 1.5391-3.875 10.937-3.5664 22.805-3.6306 33.818-0.15625 0.0498 0.023 0.0967 0.02393 0.14843 0.04883 0.0959 0.0345 0.19515 0.06495 0.29102 0.09375 2.9969 0.97788 5.9336 2.2252 8.7656 3.7266 1.3633-0.43142 2.6965-0.87028 4.0176-1.3516-9.3607-5.5991-19.921-8.3286-30.443-8.2305zm-12.219 5.8164c-0.66534 1.3729-1.7181 3.2879-2.5215 3.8535 1.4055 1.975 1.4584 3.896 1.1133 4.8145 0.64809 0.0288 1.2997 0.06725 1.9766 0.11328 0.44292-1.4994 0.34637-3.4456-0.77148-4.8223 0.56756-0.70753 1.5116-2.5461 2.0293-3.7656-0.61358-0.0786-1.226-0.14351-1.8262-0.19336zm5.9492 0.87695c-0.81299 1.2041-2.095 2.7958-2.8984 3.3652 0.16106 0.23585 0.30914 0.47133 0.44336 0.71484 0.92036 1.6758 0.99543 3.4075 0.75 4.3145 0.63275 0.10546 1.2655 0.21305 1.8887 0.32617 0.41992-1.5435 0.15223-3.617-1.0078-4.9707 0.56948-0.71137 1.9987-2.2499 2.6621-3.3965-0.60015-0.11504-1.2243-0.2308-1.8379-0.35352zm5.2246 1.1055c-0.72479 1.183-1.8718 2.7188-2.6426 3.3535 1.0699 1.2981 1.5234 3.0099 1.6289 4.2754 0.64617-0.0959 1.3132-0.19127 1.9785-0.28906-0.07861-1.3211-0.49689-2.7095-1.3789-3.5781 0.50812-0.75355 1.5929-2.193 2.1758-3.3301-0.5829-0.14189-1.1635-0.28208-1.7617-0.43164zm5.4434 1.4199c-0.62892 1.0948-1.6956 2.4583-2.4473 3.1562 0.60016 0.64425 0.97336 1.449 1.2207 2.2773 0.6059-0.0997 1.2086-0.19322 1.8164-0.29102-0.22242-0.52538-0.52479-1.0085-0.91211-1.3594 0.4621-0.78422 1.5061-2.1405 2.043-3.2891-0.57139-0.16106-1.1416-0.33499-1.7207-0.49414zm5.4766 1.6758c-0.47168 0.77655-1.1825 1.6829-1.8574 2.377-0.22242 0.23201-0.45297 0.4466-0.6543 0.62109 0 0.023 0.0296 0.04335 0.043 0.06445 0.9568-0.16682 1.9202-0.33337 2.8789-0.50977 0.45826-0.62317 0.95308-1.3192 1.2656-1.9941-0.54838-0.19175-1.1159-0.3726-1.6758-0.55859zm39.354 12.395-4.2793 6.9961-2.1484 3.4883-5.3398-2.1543c0.0192 0.0288 1.1729 12.071 1.334 13.66 0.023 0.31254 0.0211 0.59254 0 0.8418-0.0345 0.40458-0.11965 0.72704-0.25195 0.96289-0.21475 0.37198-0.54819 0.55078-0.93359 0.55078-0.0844 0-0.17934-0.014-0.26563-0.0332-0.20324-0.0326-0.40034-0.11915-0.60742-0.22461-0.23392-0.13038-0.45712-0.291-0.67187-0.5-0.0326-0.0211-0.0554-0.04943-0.0957-0.08203-1.0546-1.0201-6.5781-6.3926-6.5781-6.3926l-1.7363 4.416-9.1367-1.5703 0.83203 10.043-2.041 0.70117-1.5176 0.51758 19.391 16.723-3.1699 3.8262 1.1055-0.0977 14.711-1.1934 1.3965 2.6777 0.44727-0.85743 0.94922-1.8203 2.832 0.22851 3.2129 0.26563 9.7773 0.79687-3.1758-3.8262 19.395-16.723-1.7832-0.61133-1.7715-0.60742h0.004l0.81836-10.043-9.123 1.5703-1.7422-4.416s-5.5313 5.3725-6.584 6.3926c-0.0288 0.0326-0.061 0.06093-0.0859 0.08203-0.51003 0.47553-1.0715 0.75781-1.5547 0.75781-0.0959 0-0.1852-0.0027-0.27149-0.0332-0.62124-0.15147-1.0308-0.87078-0.90234-2.3223 0.0211-0.2761 0.0835-0.87181 0.16015-1.6445 0.3624-3.737 1.1621-11.987 1.1621-12.016l-5.3398 2.1543-6.4199-10.484zm-106.48 42.885c1.7334 12.826 7.7267 25.178 17.906 34.719 9.0119 8.4424 19.985 13.472 31.328 15.139-0.50812-1.1428-1.0433-2.2894-1.584-3.459-8.3638-1.555-16.464-5.0572-23.547-10.539 0.22626-1.2329 0.52845-2.242 0.90234-2.5469 0.09779-0.094 0.19731-0.12081 0.30469-0.10547-1.1044-1.6969-1.0298-4.1292-0.74023-5.2969-0.12847-0.0575-0.25019-0.11815-0.36523-0.16992-0.40649-0.18791-0.80618-0.3707-1.2012-0.5586-0.50045 1.4975-0.34704 3.6715 0.52539 5.2266-0.49853 0.80532-0.75286 1.4737-0.90625 2.2656-0.17832-0.15531-0.35474-0.30936-0.52539-0.45508-0.58098-0.48511-1.1431-0.98031-1.6973-1.4961-0.10929-0.0978-0.22466-0.19529-0.33203-0.29883-0.0096-0.004-0.0098-0.004-0.0098-0.0156-0.0115-0.008-0.01956-0.008-0.02148-0.0176 0.18024-0.47169 0.3845-0.88483 0.58008-1.0977 0.01726-0.023 0.04141-0.0356 0.0625-0.0625 0.01534-0.0134 0.0336-0.0354 0.05469-0.0469 0.0077-0.006 0.01591-0.0103 0.03125-0.0195 0.02301-0.0134 0.05512-0.0198 0.07813-0.0312 0.03835-0.01 0.08264-0.002 0.11524 0.01-0.16298-0.32213-0.28875-0.64684-0.37695-0.98047-0.36048-1.2003-0.30897-2.4213-0.11914-3.3359 0.06903-0.33364 0.15413-0.63314 0.25-0.86132-0.51003-0.28953-1.011-0.58182-1.4941-0.88477-0.72095 1.4189-0.90825 3.3593 0.0332 5.0332-0.0767 0.12463-0.14972 0.26632-0.21875 0.40821-0.01726 0.0326-0.03925 0.0633-0.04883 0.10351-0.0882 0.16106-0.16354 0.33159-0.24023 0.51758-0.37198-0.37581-0.73903-0.7532-1.0938-1.1348-0.36623-0.37774-0.71736-0.76506-1.0625-1.1543 0.03451-0.0422 0.07294-0.0748 0.10938-0.10742 0.08628-0.0729 0.16936-0.11733 0.24414-0.125 0.04027 0 0.07308 0.007 0.11719 0.0293-0.57714-1.5244-0.37237-3.1161-0.02148-4.2129 0.0767-0.22434 0.16364-0.44277 0.24609-0.62109-0.32021-0.22626-0.63292-0.45933-0.95312-0.6875-0.15531-0.11505-0.32122-0.22465-0.47461-0.33203-0.56948 0.97597-0.90719 2.1794-0.74805 3.4258 0.05369 0.41991 0.17115 0.82997 0.3418 1.2441v0.004c-0.0038 0-0.01172 0.01-0.01172 0.0117-0.0077 0.01-0.0079 0.0104-0.01172 0.0215-0.4947-0.58864-0.97924-1.1948-1.4375-1.7988-0.21667-0.27802-0.43954-0.56594-0.6543-0.85547-0.0096-1.0392 0.23831-2.0527 0.55469-2.8887 0.07478-0.18599 0.15182-0.3703 0.22852-0.53711-0.4295-0.34514-0.84756-0.70398-1.2617-1.0644-0.42567 0.78039-0.74809 1.6773-0.85547 2.5976-0.44101-0.64234-0.86094-1.2995-1.2598-1.9648 0.06519-0.27228 0.15221-0.53799 0.25-0.79492 0.13805-0.39883 0.29224-0.77394 0.46289-1.1152-0.40841-0.37774-0.79627-0.75909-1.1836-1.1426-0.18216 0.32596-0.33283 0.67848-0.48047 1.0332-0.0326 0.0863-0.0689 0.16371-0.09766 0.25-0.14381-0.2531-0.27018-0.50673-0.41016-0.76367-0.16106-0.28761-0.31923-0.58348-0.4707-0.8711 0.1323-0.24543 0.27015-0.47256 0.4082-0.67773-0.35472-0.4295-0.6957-0.84788-1.0312-1.2793-0.03068 0.0364-0.06488 0.075-0.08789 0.11719-0.04218 0.0671-0.08268 0.1184-0.11719 0.18359-2.3124-4.8645-3.8765-9.9899-4.6934-15.219-1.1159-0.22434-2.2134-0.46555-3.2891-0.71289zm110.04 9.9629c-0.52154 1.5109-1.0922 3.0061-1.7461 4.4883-0.80532 1.8369-1.7299 3.6364-2.75 5.4004-0.45251-0.95295-0.57728-1.8963-0.63672-2.6191-0.51387 0.0192-1.0391 0.0475-1.5644 0.084 0.10737 0.83983 0.28064 1.6151 0.5625 2.3438 0.21091 0.53688 0.47098 1.0604 0.80078 1.5801-1.8906 3.0372-4.1021 5.9431-6.6465 8.6562-6.5422 6.9832-14.472 11.87-22.959 14.666-0.85901 1.3096-1.7272 2.6548-2.5996 4.0449 10.321-2.6748 20.032-8.2026 27.857-16.564 6.0571-6.454 10.349-13.928 12.916-21.826l-3.2344-0.25391zm-8.9414 7.5547c-0.51771 0.0575-1.0449 0.12249-1.5703 0.19727 0.25694 1.58 0.86986 2.6108 1.6426 3.9434-0.59823 1.0508-1.2897 2.5888-1.7422 3.7891 0.5714-0.10546 1.1295-0.20061 1.6875-0.27539 0.51771-1.277 1.1722-2.7083 1.7109-3.7207-1.2367-1.4381-1.579-2.9442-1.7285-3.9336zm-4.8145 0.82227c-0.48319 0.46785-1.0025 0.98717-1.5586 1.5566 0.36623 0.96638 0.95283 1.7426 1.8809 2.502-0.11505 0.23584-0.23886 0.52343-0.375 0.83789-0.39116 0.9357-0.84002 2.1477-1.1641 3.1582 0.65575-0.16106 1.3128-0.31333 1.957-0.46289 0.54838-1.4227 1.2033-3.0265 1.6348-3.9277-1.7008-1.0814-2.1833-2.6689-2.375-3.6641zm-3.9082 4.0156c-0.32213 0.34514-0.6549 0.71797-1.002 1.0957 0.11121 0.0652 0.22877 0.12795 0.34765 0.18165-0.40649 1.137-0.92436 2.5776-1.2676 4.0195 0.61166-0.17257 1.2421-0.35492 1.8672-0.53516 0.44868-1.4937 1.0107-3.1496 1.4824-4.0508-0.56755-0.16107-1.0327-0.40798-1.4277-0.71094zm-64.885 6.7129c-0.46018 1.7008-0.36346 4.2462 1.0957 5.4043-0.60207 0.92803-0.81414 1.9552-0.90234 3.7422 0.55989 0.17832 1.1259 0.34255 1.6973 0.48828 0.21475-2.322 0.52841-3.7577 1.2148-3.6484-1.4918-1.0757-1.5482-4.0294-1.3047-5.3965-0.60974-0.18024-1.2064-0.37318-1.8008-0.58985zm4.6738 1.3438c-0.25885 1.5263-0.0062 3.7098 1.1719 4.9102 0.17065 0.17065 0.35726 0.31887 0.55859 0.45117-0.4621 0.9242-0.54282 2.1908-0.42969 3.834 0.59057 0.0978 1.2026 0.18669 1.8047 0.24805-0.05369-2.0095 0.08505-3.8102 0.77148-3.791-1.8139-1.2789-2.1031-3.9869-1.9746-5.2774-0.64234-0.11696-1.2811-0.2427-1.9023-0.375zm5.3398 0.79297c-0.02493 1.7851 0.68324 4.3208 2.4473 5.084-0.28953 1.1677-0.28822 2.5032-0.0332 4.041 0.60399-0.0115 1.2028-0.0239 1.8145-0.0527-0.21283-1.7755-0.27671-3.9993 0.38672-4.0645-1.9117-1.0757-2.5911-3.5965-2.6602-4.8984-0.65576-0.0211-1.3108-0.0519-1.9551-0.10938z" transform="translate(-138.29 431.36)" fill="#e8291c"/>
  </g>
 </g>
</svg>
