<?xml version="1.0" encoding="UTF-8" standalone="no"?>
<svg xmlns:rdf="http://www.w3.org/1999/02/22-rdf-syntax-ns#" xmlns="http://www.w3.org/2000/svg" xml:space="preserve" height="150" viewBox="0 0 150 150.00226" width="150" version="1.1" xmlns:cc="http://creativecommons.org/ns#" xmlns:xlink="http://www.w3.org/1999/xlink" xmlns:dc="http://purl.org/dc/elements/1.1/"><g transform="matrix(1.25 0 0 -1.25 -11.938 758.81)"><g transform="matrix(1.0409 0 0 1.0409 -2.6231 -22.389)"><path d="m69.405 603.78c-31.409 0-56.872-25.461-56.872-56.872 0-31.408 25.462-56.87 56.872-56.87 31.408 0 56.872 25.462 56.872 56.872 0 31.409-25.464 56.87-56.872 56.87" fill="#ab0003"/><path d="m69.406 600.62c-29.669 0-53.717-24.049-53.717-53.716s24.049-53.716 53.717-53.716c29.665 0 53.716 24.049 53.716 53.717 0 29.665-24.051 53.714-53.716 53.714" fill="#14264b"/><path d="m69.405 585.55c-21.343 0-38.644-17.301-38.644-38.645 0-21.343 17.301-38.644 38.644-38.644s38.644 17.301 38.644 38.645c0 21.343-17.301 38.644-38.644 38.644" fill="#ab0003"/><path d="m69.405 583.3c-20.101 0-36.399-16.294-36.399-36.395 0-20.103 16.298-36.399 36.399-36.399s36.397 16.296 36.397 36.399c0 20.101-16.296 36.395-36.397 36.395" fill="#14264b"/><path d="m69.555 598.11-0.74565-9.6002 1.7963-0.13558 0.42931 5.5585 4.9908-6.1121 0.44344-0.0339 0.74282 9.6002-1.7963 0.1384-0.42931-5.5585-4.9908 6.1092-0.44061 0.0339zm-6.5668-0.66374-1.8726-0.27115 1.3586-9.3997 1.8754 0.27114-1.3614 9.3997zm-8.3179-1.624-1.7709-0.68351 1.7992-4.666-3.5983-1.384-1.7907 4.6688-1.7709-0.68068 3.4119-8.8631 1.7681 0.67786-0.99137 2.5759 3.5955 1.384 0.99137-2.5759 1.7653 0.68069-3.4091 8.8659zm31.608-1.0507c-2.0137 0-3.7284-1.2038-4.4767-3.1379-0.99601-2.5903 0.28459-5.3258 2.9798-6.3634 0.76824-0.29465 1.485-0.44061 2.1918-0.44061 0.55675 0 1.1006 0.0934 1.6664 0.27962l0.10451 0.0339 1.3162 3.4147-3.9203 1.5111-0.6242-1.6212 2.2539-0.8671-0.36153-0.93488c-0.60556-0.10665-1.2483-0.0201-1.9912 0.26549-1.7408 0.67064-2.4644 2.2867-1.7992 4.022 0.49348 1.2744 1.5471 2.0675 2.751 2.0675 0.35249 0 0.71029-0.0668 1.0592-0.20053 1.2039-0.46457 1.5459-1.1262 1.7935-1.7624l0.08756-0.22595 1.6834 0.69481-0.07909 0.21465c-0.48445 1.2925-1.3799 2.1527-2.8188 2.7058-0.5911 0.22776-1.1997 0.34458-1.8161 0.34458zm10.159-4.5445-1.0196-1.4037 2.1663-1.576-4.5699-6.2731 1.528-1.1156 4.5727 6.2731 2.1635-1.5789 1.0224 1.4009-5.8635 4.2734zm-55.667-1.4941c-0.52602-0.066-1.0413-0.27973-1.5393-0.64397-0.63086-0.45733-1.0456-1.0785-1.1721-1.7455-0.12473-0.67063 0.04249-1.3654 0.4745-1.9602 0.55675-0.76463 1.2731-1.1213 2.2511-1.1213 0.39226 0 0.82756 0.0558 1.3698 0.17511l0.66657 0.14123c0.34706 0.0723 0.67549 0.14123 0.95748 0.14123 0.3778 0 0.63301-0.12416 0.8445-0.41519 0.13738-0.188 0.18867-0.39316 0.15252-0.61008-0.05061-0.32718-0.29611-0.66442-0.69198-0.95183-0.67425-0.49168-1.4045-0.55924-2.124-0.19771l-0.20901 0.10451-0.83603-1.6071 0.21748-0.10733c0.54048-0.26392 1.1027-0.39825 1.6721-0.39825 0.80982 0 1.5932 0.26787 2.3217 0.79932 1.6052 1.1713 1.9866 2.7438 0.9942 4.1067-0.58387 0.79898-1.3025 1.1721-2.2624 1.1721-0.39045 0-0.83388-0.0552-1.4376-0.18359l-0.66939-0.14404c-0.40672-0.0868-0.73209-0.14405-0.9942-0.14405-0.34887 0-0.55528 0.0999-0.75412 0.37283-0.30007 0.41214-0.20189 0.86133 0.26267 1.1976 0.46637 0.34165 0.90212 0.37859 1.4715 0.13276l0.22878-0.096 0.6242 1.6438-0.20901 0.0904c-0.54681 0.23228-1.0839 0.31453-1.6099 0.24855zm64.702-8.0779c-1.099 0-2.1492-0.37542-3.0476-1.093-1.0484-0.83874-1.6991-2.0109-1.8274-3.2961-0.12834-1.269 0.25951-2.5361 1.0874-3.5701 0.95082-1.1912 2.3413-1.8726 3.8073-1.8726 1.099 0 2.1528 0.37825 3.0476 1.0959 1.0502 0.84055 1.6972 2.008 1.8274 3.2933 0.12834 1.2672-0.25668 2.5361-1.0846 3.5701-0.95082 1.1912-2.3424 1.8726-3.8102 1.8726zm-75.488-1.1693-0.23725-0.29374 4.8495-9.3658 1.2258 1.4941-0.79366 1.497 2.2087 2.6917 1.6212-0.49145 1.2682 1.545-10.143 2.9233zm75.683-0.68916c0.86947 0 1.6631-0.39621 2.2398-1.1156 1.0683-1.334 0.8227-3.1179-0.58183-4.2423-0.61821-0.49348-1.3194-0.75695-2.0279-0.75695-0.86947 0-1.6631 0.39622-2.2398 1.1156-1.0647 1.334-0.8227 3.118 0.58183 4.2423 0.61641 0.49349 1.3175 0.75695 2.0279 0.75695zm-72.763-1.9714 2.2539-0.68351 0.30786-0.0932-1.3077-1.5873-1.254 2.364zm-7.9197-4.2028-0.7513-1.7596 4.2197-3.7028-6.0047-0.0254-0.15252-0.36153 4.1491-4.3355-5.6093 0.43779-0.78237-1.8444 10.179-0.6468 0.14687 0.35871-4.4428 4.6914 6.4369-0.009 0.16099 0.37282-7.5497 6.8238zm90.517-3.3808-8.9619-3.5418 0.66374-1.6749 5.1856 2.0505-3.265-7.0752-0.0424-0.0904 0.15817-0.41519 8.9647 3.5418-0.66656 1.6749-5.1828-2.0477 3.3046 7.1628-0.15817 0.41519zm-82.891-41.494-8.0892-5.2308 0.97725-1.5139 4.6857 3.0278-1.8444-7.6768 0.25137-0.36718 8.0835 5.2224-0.97725 1.5139-4.6857-3.025 1.8387 7.6711-0.24008 0.37848zm74.604-1.0789c-1.1605 0-2.0705-0.52331-2.7086-1.5591-0.40852-0.66159-0.55822-1.3928-0.42084-2.0562 0.13558-0.67063 0.55336-1.2513 1.1806-1.6382 0.46095-0.2838 0.91806-0.42084 1.3953-0.42084 0.69052 0 1.3833 0.27442 2.316 0.91794l0.55924 0.38695c0.46637 0.31452 0.87286 0.58748 1.2597 0.58748 0.17173 0 0.34052-0.0525 0.51405-0.161 0.20065-0.12111 0.32221-0.29023 0.37282-0.49992 0.0759-0.32357-0.0219-0.73198-0.27679-1.1495-0.44106-0.71402-1.0807-1.0436-1.8924-0.98573l-0.23442 0.0169-0.16382-1.8048 0.2429-0.0142c0.0922-0.007 0.18359-0.0113 0.27397-0.0113 1.3557 0 2.5149 0.67402 3.265 1.8924 0.56036 0.90924 0.75672 1.8065 0.57053 2.5928-0.15365 0.64533-0.56692 1.1922-1.2032 1.5845-0.49891 0.30729-0.97963 0.45755-1.4659 0.45755-0.78452 0-1.5004-0.37858-2.3302-0.94618l-0.56771-0.38412c-0.5694-0.38864-0.93669-0.59878-1.2512-0.59878-0.14642 0-0.29306 0.0456-0.45755 0.14687-0.43203 0.26572-0.51089 0.71616-0.20901 1.206 0.29464 0.47721 0.67707 0.68351 1.2682 0.68351l0.29374-0.006-0.0452 1.7596-0.28527 0.003zm-9.137-9.6765-1.3444-1.336 6.6995-6.7334 4.166 4.1463-1.2258 1.2286-2.8216-2.8075-5.4737 5.502zm-56.008-0.97726-9.5155-4.5502 1.4546-1.2738 1.5224 0.74564 2.6211-2.2906-0.54229-1.6043 1.5054-1.319 3.2396 10.046-0.28527 0.24572zm-2.4657-3.0814-0.75412-2.2313-0.10451-0.30222-1.5421 1.3557 0.28527 0.13839 2.1155 1.0394zm7.2334-0.96595-0.81344-1.5308 2.364-1.2569-3.6322-6.8577 1.6721-0.88969 3.635 6.8605 2.3669-1.254 0.81344 1.5308-6.4058 3.3978zm43.533-0.56206-0.32198-0.19771 1.3529-10.459 1.6608 0.98573-0.2316 1.6777 2.9939 1.7709 1.3557-1.014 1.7229 1.0168-8.5326 6.2194zm1.8387-3.4995 1.8811-1.415 0.25702-0.19206-1.7709-1.045-0.04519 0.31633-0.32199 2.3358zm-8.736-0.17511-1.7455-0.44626 1.384-5.4031-6.6063 4.1208-0.08473 0.0565-0.43214-0.11015 2.3923-9.3291 1.7455 0.44626-1.3868 5.4031 6.6092-4.1208 0.08473-0.0565 0.43214 0.11015-2.3923 9.3291zm-26.53-0.36153-2.6437-9.1201 1.8189-0.52817 2.6437 9.1257-1.8189 0.52252zm10.558-1.7286c-2.7657 0.12473-4.9857-1.9138-5.1122-4.6434-0.12292-2.7277 1.9294-4.961 4.6716-5.084 0.08134-0.005 0.16054-0.009 0.24008-0.009 2.6572 0 4.7482 1.999 4.8693 4.649 0.12292 2.7277-1.9284 4.9621-4.6688 5.0868zm-0.219-1.77c0.05061 0 0.10191-0.003 0.15252-0.003 0.83332-0.038 1.5737-0.38616 2.0816-0.97726 0.50614-0.58928 0.76282-1.3947 0.72305-2.2624-0.07954-1.8058-1.3572-3.0454-3.0871-2.9713-1.7046 0.0777-2.8842 1.4392-2.8047 3.2396 0.08134 1.7516 1.2896 2.9741 2.9346 2.9741zm2.1377 77.172c-18.859 0-34.148-15.289-34.148-34.148 0-18.861 15.289-34.15 34.148-34.15 18.861 0 34.152 15.289 34.152 34.15 0 18.859-15.291 34.148-34.152 34.148" fill="#fff"/><path d="m70.466 553.05c1.8745 4.4486 5.591 5.5368 5.591 0.005 0-6.0266-3.0061-13.174-5.6254-17.586-2.5108 4.9656-2.1547 12.38 0.03435 17.581m18.304 18.13c-4.8824 3.9117-9.322-0.97973-9.322-3.7816 4.8915-1.0448 9.2551-5.929 7.2992-18.635-1.5961-10.387-7.7186-16.854-11.578-16.985 2.4186 3.4887 4.5733 7.3553 5.9778 11.69 1.3141 4.031 1.9342 7.4131 1.9342 10.253 0.0036 3.9027-1.0647 6.7714-2.5325 8.6766-0.7339 0.95081-1.5636 1.6612-2.4078 2.1402-0.83693 0.47179-1.8112 0.72847-2.6265 0.7357-2.0065 0.002-3.9768-0.81885-5.544-2.1276-2.3572-1.9685-4.1901-5.0234-5.4789-8.5465-1.2816-3.5249-2.0065-7.5288-2.0101-11.426 0-3.035 0.44106-6.005 1.4353-8.6351 0.60375-1.598 1.4226-3.073 2.4747-4.3365-0.66702-0.65437-1.3503-1.2256-2.0354-1.692-1.466-0.99781-2.9302-1.5256-4.3781-1.5256-0.67967 0.002-1.3666 0.11569-2.0734 0.36876-0.98516 0.36333-1.6431 1.0087-2.1457 2.0752-0.49529 1.0629-0.7574 2.5488-0.7574 4.3293-0.0072 4.416 1.5943 10.555 4.0563 16.652 2.3318 5.788 5.4265 11.569 8.5682 15.949-0.68328 0.0217-1.5672 0.0416-2.1113 0.0416-8.3477-0.002-14.403-1.9306-18.425-4.7523-4.0166-2.8199-5.9905-6.5617-5.9905-10.049-0.0036-2.2686 0.84055-4.4016 2.4512-5.9815 0.89116-0.93636 2.0824-1.4606 3.3025-1.4606 0.9942 0 1.9233 0.36333 2.612 1.0213 0.79717 0.75378 1.2039 1.8022 1.1533 2.9537-0.047 1.0954-0.50794 2.1565-1.3015 2.9898-0.49168 0.51879-1.0846 0.91466-1.7227 1.1659 0.44287 0.79536 1.1225 1.5961 2.0969 2.3318 1.4208 1.081 3.4779 2.0065 6.2454 2.5036-1.7281-3.0368-3.1851-6.0664-4.3474-9.0129-2.0788-5.2873-3.214-10.307-3.2176-14.656 0-2.9609 0.52783-5.6236 1.701-7.8307 1.1677-2.2053 3.0206-3.9226 5.4753-4.8752 1.1189-0.43744 2.2776-0.64532 3.4381-0.64532h0.0036c2.2523 0 4.4884 0.76463 6.6268 2.0426 1.748 1.0466 3.4453 2.4349 5.056 4.0834 3.3911-1.8402 11.271-2.5903 17.248 8.0638 7.1727 12.776 7.4312 31.603 0.84959 36.887" fill="#14264b"/><path d="m85.095 571.47c-0.58489 0.01-1.1638-0.1193-1.7257-0.38977-1.2599-0.60013-2.2071-1.8064-2.5759-2.8386 3.0187-1.0105 7.5977-4.1347 7.5977-13.755 0-1.7426-0.14676-3.7021-0.48298-5.9002-1.5094-9.801-6.968-16.455-11.332-17.74-1.2111-0.35972-2.3185-0.2873-3.2368 0.161 2.7603 3.7346 5.1253 8.2141 6.7504 12.84 5.018 14.685-1.3035 20.308-4.4795 20.308-10.363 0.35791-16.704-24.895-7.6824-33.975-3.0911-3.3622-6.6967-5.2094-10.402-3.8808-8.3928 3.0133-0.84722 25.635 7.9903 38.977-21.693-0.002-26.819-13.312-21.166-18.867 1.2527-1.3178 3.1987-1.5024 4.3411-0.41237 1.1478 1.0882 1.0645 3.0393-0.18641 4.3553-0.69413 0.73028-1.5942 1.1104-2.4601 1.1213 0.90382 3.1634 4.6557 6.4457 12.024 7.0639-9.9311-16.334-12.008-32.872-2.1098-36.74 4.68-1.8275 10.006 0.89851 14.65 5.9002 1.3051-0.71583 3.1278-1.3802 4.6914-1.3586 3.1109 0.047 7.6406 1.473 11.608 8.5354 3.3007 5.8947 5.2819 13.435 5.4229 20.7 0.14461 6.9359-1.4678 12.429-4.2931 14.695-0.97499 0.7818-1.9682 1.1844-2.9431 1.2004zm-10.846-13.56c5.582 0 2.5792-15.081-3.8271-24.553-5.5693 7.4601-2.2682 24.553 3.8271 24.553zm-50.772-11.575-1.0281-3.1577h-3.3187l2.686-1.9517-1.0253-3.1549 2.686 1.9488 2.6832-1.9488-1.0253 3.1549 2.686 1.9517h-3.3187l-1.0253 3.1577zm91.862-0.003-1.0281-3.1549h-3.3215l2.686-1.9517-1.0224-3.1577 2.686 1.9517 2.6832-1.9517-1.0253 3.1577 2.686 1.9517h-3.3215l-1.0224 3.1549z" fill="#ab0003"/></g></g></svg>
