<svg width="960" height="640" viewBox="0 0 960 640" fill="none" xmlns="http://www.w3.org/2000/svg">
<g clip-path="url(#clip0_873_2776)">
<path d="M577.818 275.558L553.139 342.067L538.189 306.432C538.189 306.432 543.975 311.04 546.483 315.392C546.483 315.392 564.711 293.53 564.711 270.899C564.711 245.811 546.432 235.52 533.632 232.704C527.642 226.509 513.408 216.986 482.381 216.986C451.354 216.986 433.127 227.635 427.392 250.522L407.322 330.496L386.944 275.507C347.571 169.574 136.781 167.117 102.784 0C56.397 80.8448 95.1554 150.63 95.1554 150.63C70.221 239.053 128.896 308.07 128.896 308.07C115.123 420.25 257.255 490.957 296.013 522.035C338.765 556.339 386.33 640.051 386.33 640.051C386.33 640.051 388.839 609.69 407.271 600.883C407.271 600.883 416.538 527.206 468.915 513.536C468.915 513.536 468.659 503.194 478.08 498.432L482.279 427.981L486.477 498.432C495.898 503.194 495.642 513.536 495.642 513.536C548.019 527.206 557.287 600.883 557.287 600.883C575.719 609.69 578.227 640.051 578.227 640.051C578.227 640.051 625.792 556.339 668.544 522.035C707.303 490.957 849.434 420.25 835.661 308.07C835.661 308.07 894.336 239.053 869.402 150.63C869.402 150.63 908.211 80.8448 861.773 0C827.776 167.117 617.037 169.574 577.715 275.558H577.818ZM782.925 244.326C853.376 197.018 861.261 161.894 861.261 161.894C879.898 242.074 825.011 304.589 825.011 304.589C838.733 416 700.903 482.714 662.093 513.843C623.283 544.973 581.555 614.298 581.555 614.298C578.074 602.675 570.855 596.89 567.015 594.534C562.509 564.992 542.234 517.786 504.807 505.549C504.09 502.016 501.939 496.691 496.307 492.595L482.381 397.875L468.455 492.595C462.771 496.691 460.672 502.016 459.955 505.549C422.528 517.786 402.253 565.043 397.747 594.534C393.907 596.89 386.688 602.675 383.207 614.298C383.207 614.298 341.53 545.024 302.669 513.843C263.859 482.714 126.029 416 139.751 304.589C139.751 304.589 84.8642 242.074 103.501 161.894C103.501 161.894 111.386 197.018 181.837 244.326C181.837 244.326 53.325 143.667 101.504 30.2592C146.202 170.65 342.451 185.805 377.114 279.245L409.267 366.029L437.632 253.184C441.523 237.773 452.071 227.584 482.432 227.584C519.603 227.584 528.051 242.534 528.051 242.534C528.051 242.534 554.266 244.736 554.266 271.002C554.266 285.747 543.36 301.568 543.36 301.568C531.328 287.744 522.01 294.912 522.01 294.912L553.856 370.688L587.751 279.245C622.413 185.805 818.663 170.65 863.36 30.2592C911.488 143.718 783.027 244.326 783.027 244.326H782.925Z" fill="white"/>
<path d="M540.185 287.283C540.185 287.283 542.694 278.169 542.694 272.076C542.694 251.903 520.217 253.542 520.217 253.542C520.217 248.319 511.513 239.359 482.329 239.359C453.145 239.359 450.227 249.497 448.845 255.027L409.574 411.391L478.848 309.503L556.467 411.391L507.161 289.126C507.161 289.126 527.744 273.049 540.237 287.283H540.185ZM489.293 258.099L472.806 254.463C472.806 254.463 488.115 251.238 505.83 259.481C494.72 269.004 489.293 258.099 489.293 258.099Z" fill="white"/>
<path d="M101.606 70.5527C104.064 150.834 155.469 206.028 210.406 248.473L164.941 136.908C134.682 116.326 111.232 94.5143 101.658 70.5527H101.606Z" fill="#C8102E"/>
<path d="M200.883 248.372L212.761 277.505C166.374 250.676 123.827 222.209 110.72 189.543C113.894 292.66 205.133 351.386 269.645 395.828L230.733 300.391C299.648 339.201 369.126 376.116 395.494 415.489C355.507 349.185 298.982 318.055 200.883 248.423V248.372Z" fill="#C8102E"/>
<path d="M149.325 319.795C152.551 422.451 276.25 467.661 314.496 505.856L287.463 439.398C319.821 458.496 349.312 477.44 370.407 496.742C294.836 392.294 177.28 381.133 149.325 319.795Z" fill="#C8102E"/>
<path d="M799.77 136.908L754.305 248.473C809.242 206.028 860.647 150.783 863.105 70.5527C853.53 94.5143 830.029 116.274 799.821 136.908H799.77Z" fill="#C8102E"/>
<path d="M569.165 415.436C595.533 376.063 664.96 339.199 733.927 300.338L695.015 395.775C759.527 351.282 850.765 292.607 853.939 189.49C840.832 222.207 798.285 250.623 751.898 277.452L763.776 248.319C665.677 317.951 609.203 349.081 569.165 415.385V415.436Z" fill="#C8102E"/>
<path d="M815.335 319.795C787.379 381.133 669.875 392.294 594.253 496.742C615.399 477.44 644.839 458.496 677.197 439.398L650.163 505.856C688.41 467.609 812.058 422.451 815.335 319.795Z" fill="#C8102E"/>
<path d="M472.807 254.514L489.293 258.149C489.293 258.149 494.72 269.055 505.831 259.532C488.167 251.289 472.807 254.514 472.807 254.514Z" fill="#041E42"/>
<path d="M587.649 279.193L553.754 370.636L521.908 294.86C521.908 294.86 531.175 287.692 543.258 301.516C543.258 301.516 554.164 285.644 554.164 270.949C554.164 244.735 527.949 242.482 527.949 242.482C527.949 242.482 519.501 227.532 482.33 227.532C451.969 227.532 441.421 237.721 437.53 253.132L409.165 365.977L377.012 279.193C342.349 185.753 146.1 170.597 101.402 30.207C53.2741 143.666 181.735 244.274 181.735 244.274C111.284 196.965 103.399 161.842 103.399 161.842C84.7621 242.021 139.649 304.537 139.649 304.537C125.927 415.948 263.757 482.661 302.567 513.791C341.377 544.921 383.105 614.245 383.105 614.245C386.586 602.623 393.805 596.837 397.645 594.482C402.151 564.94 422.426 517.733 459.853 505.497C460.57 501.964 462.721 496.639 468.353 492.543L482.279 397.823L496.205 492.543C501.889 496.639 503.988 501.964 504.705 505.497C542.132 517.733 562.407 564.991 566.913 594.482C570.753 596.837 577.972 602.623 581.453 614.245C581.453 614.245 623.13 544.972 661.991 513.791C700.801 482.661 838.631 415.948 824.909 304.537C824.909 304.537 879.796 242.021 861.159 161.842C861.159 161.842 853.274 196.965 782.823 244.274C782.823 244.274 911.335 143.615 863.156 30.207C818.458 170.597 622.208 185.753 587.546 279.193H587.649ZM101.607 70.5526C111.181 94.5142 134.682 116.274 164.89 136.908L210.356 248.473C155.469 206.028 104.065 150.834 101.607 70.5526ZM287.412 439.397L314.445 505.855C276.199 467.609 152.5 422.45 149.274 319.794C177.229 381.132 294.733 392.293 370.356 496.741C349.21 477.439 319.77 458.495 287.412 439.397ZM230.733 300.338L269.645 395.775C205.133 351.282 113.895 292.607 110.721 189.49C123.828 222.207 166.375 250.623 212.762 277.452L200.884 248.319C298.983 317.951 355.457 349.081 395.495 415.385C369.127 376.012 299.7 339.148 230.733 300.287V300.338ZM478.797 309.503L409.524 411.391L448.794 255.026C450.177 249.497 453.812 239.359 482.279 239.359C510.746 239.359 520.167 248.319 520.167 253.541C520.167 253.541 542.644 251.903 542.644 272.076C542.644 278.22 540.135 287.282 540.135 287.282C527.693 273.049 507.06 289.125 507.06 289.125L556.365 411.391L478.746 309.503H478.797ZM650.164 505.855L677.197 439.397C644.839 458.495 615.348 477.439 594.253 496.741C669.876 392.293 787.38 381.132 815.335 319.794C812.109 422.45 688.41 467.66 650.164 505.855ZM853.888 189.49C850.714 292.607 759.476 351.333 694.964 395.775L733.876 300.338C664.909 339.148 595.482 376.063 569.114 415.436C609.101 349.132 665.626 318.002 763.725 248.37L751.847 277.503C798.234 250.674 840.781 222.207 853.888 189.541V189.49ZM754.202 248.473L799.668 136.908C829.927 116.325 853.377 94.5142 862.951 70.5526C860.493 150.834 809.089 206.028 754.151 248.473H754.202Z" fill="#041E42"/>
<path d="M628.352 621.567C634.496 621.567 639.514 616.55 639.514 610.406C639.514 604.262 634.496 599.244 628.352 599.244C622.208 599.244 617.19 604.262 617.19 610.406C617.19 616.55 622.208 621.567 628.352 621.567ZM628.352 601.599C633.216 601.599 637.107 605.542 637.107 610.406C637.107 615.27 633.165 619.161 628.352 619.161C623.539 619.161 619.546 615.219 619.546 610.406C619.546 605.593 623.488 601.599 628.352 601.599Z" fill="#041E42"/>
<path d="M626.15 611.583H627.891L630.297 616.755H632.96L630.451 611.379C631.936 610.867 632.96 609.433 632.96 607.795C632.96 605.695 631.27 604.006 629.171 604.006H623.795V616.755H626.201V611.583H626.15ZM626.15 606.412H629.12C629.888 606.412 630.502 607.027 630.502 607.795C630.502 608.563 629.888 609.177 629.12 609.177H626.15V606.412Z" fill="#041E42"/>
</g>
<defs>
<clipPath id="clip0_873_2776">
<rect width="960" height="640" fill="white"/>
</clipPath>
</defs>
</svg>
